<?xml version="1.0" encoding="utf-8" standalone="no"?>
<!DOCTYPE svg PUBLIC "-//W3C//DTD SVG 1.1//EN"
  "http://www.w3.org/Graphics/SVG/1.1/DTD/svg11.dtd">
<svg xmlns:xlink="http://www.w3.org/1999/xlink" width="648pt" height="288pt" viewBox="0 0 648 288" xmlns="http://www.w3.org/2000/svg" version="1.1">
 <metadata>
  <rdf:RDF xmlns:dc="http://purl.org/dc/elements/1.1/" xmlns:cc="http://creativecommons.org/ns#" xmlns:rdf="http://www.w3.org/1999/02/22-rdf-syntax-ns#">
   <cc:Work>
    <dc:type rdf:resource="http://purl.org/dc/dcmitype/StillImage"/>
    <dc:date>2022-01-23T02:57:12.776533</dc:date>
    <dc:format>image/svg+xml</dc:format>
    <dc:creator>
     <cc:Agent>
      <dc:title>Matplotlib v3.5.0, https://matplotlib.org/</dc:title>
     </cc:Agent>
    </dc:creator>
   </cc:Work>
  </rdf:RDF>
 </metadata>
 <defs>
  <style type="text/css">*{stroke-linejoin: round; stroke-linecap: butt}</style>
 </defs>
 <g id="figure_1">
  <g id="patch_1">
   <path d="M 0 288 
L 648 288 
L 648 0 
L 0 0 
L 0 288 
z
" style="fill: none"/>
  </g>
  <g id="axes_1">
   <g id="patch_2">
    <path d="M 81 252 
L 583.2 252 
L 583.2 34.56 
L 81 34.56 
z
" style="fill: #ffffff"/>
   </g>
   <g id="patch_3">
    <path d="M 103.827273 24153.442545 
L 120.736364 24153.442545 
L 120.736364 44.821728 
L 103.827273 44.821728 
z
" clip-path="url(#p14e12afb68)" style="fill: #ff0000"/>
   </g>
   <g id="patch_4">
    <path d="M 171.463636 24153.442545 
L 188.372727 24153.442545 
L 188.372727 203.711395 
L 171.463636 203.711395 
z
" clip-path="url(#p14e12afb68)" style="fill: #ff0000"/>
   </g>
   <g id="patch_5">
    <path d="M 239.1 24153.442545 
L 256.009091 24153.442545 
L 256.009091 44.443636 
L 239.1 44.443636 
z
" clip-path="url(#p14e12afb68)" style="fill: #ff0000"/>
   </g>
   <g id="patch_6">
    <path d="M 306.736364 24153.442545 
L 323.645455 24153.442545 
L 323.645455 171.342014 
L 306.736364 171.342014 
z
" clip-path="url(#p14e12afb68)" style="fill: #ff0000"/>
   </g>
   <g id="patch_7">
    <path d="M 374.372727 24153.442545 
L 391.281818 24153.442545 
L 391.281818 191.4378 
L 374.372727 191.4378 
z
" clip-path="url(#p14e12afb68)" style="fill: #ff0000"/>
   </g>
   <g id="patch_8">
    <path d="M 442.009091 24153.442545 
L 458.918182 24153.442545 
L 458.918182 108.464303 
L 442.009091 108.464303 
z
" clip-path="url(#p14e12afb68)" style="fill: #ff0000"/>
   </g>
   <g id="patch_9">
    <path d="M 509.645455 24153.442545 
L 526.554545 24153.442545 
L 526.554545 58.340908 
L 509.645455 58.340908 
z
" clip-path="url(#p14e12afb68)" style="fill: #ff0000"/>
   </g>
   <g id="patch_10">
    <path d="M 120.736364 24153.442545 
L 137.645455 24153.442545 
L 137.645455 44.930086 
L 120.736364 44.930086 
z
" clip-path="url(#p14e12afb68)" style="fill: #0000ff"/>
   </g>
   <g id="patch_11">
    <path d="M 188.372727 24153.442545 
L 205.281818 24153.442545 
L 205.281818 242.116364 
L 188.372727 242.116364 
z
" clip-path="url(#p14e12afb68)" style="fill: #0000ff"/>
   </g>
   <g id="patch_12">
    <path d="M 256.009091 24153.442545 
L 272.918182 24153.442545 
L 272.918182 45.118493 
L 256.009091 45.118493 
z
" clip-path="url(#p14e12afb68)" style="fill: #0000ff"/>
   </g>
   <g id="patch_13">
    <path d="M 323.645455 24153.442545 
L 340.554545 24153.442545 
L 340.554545 160.540434 
L 323.645455 160.540434 
z
" clip-path="url(#p14e12afb68)" style="fill: #0000ff"/>
   </g>
   <g id="patch_14">
    <path d="M 391.281818 24153.442545 
L 408.190909 24153.442545 
L 408.190909 101.477684 
L 391.281818 101.477684 
z
" clip-path="url(#p14e12afb68)" style="fill: #0000ff"/>
   </g>
   <g id="patch_15">
    <path d="M 458.918182 24153.442545 
L 475.827273 24153.442545 
L 475.827273 98.142839 
L 458.918182 98.142839 
z
" clip-path="url(#p14e12afb68)" style="fill: #0000ff"/>
   </g>
   <g id="patch_16">
    <path d="M 526.554545 24153.442545 
L 543.463636 24153.442545 
L 543.463636 71.309716 
L 526.554545 71.309716 
z
" clip-path="url(#p14e12afb68)" style="fill: #0000ff"/>
   </g>
   <g id="patch_17">
    <path d="M 137.645455 24153.442545 
L 154.554545 24153.442545 
L 154.554545 44.945658 
L 137.645455 44.945658 
z
" clip-path="url(#p14e12afb68)" style="fill: #008000"/>
   </g>
   <g id="patch_18">
    <path d="M 205.281818 24153.442545 
L 222.190909 24153.442545 
L 222.190909 216.851287 
L 205.281818 216.851287 
z
" clip-path="url(#p14e12afb68)" style="fill: #008000"/>
   </g>
   <g id="patch_19">
    <path d="M 272.918182 24153.442545 
L 289.827273 24153.442545 
L 289.827273 44.961253 
L 272.918182 44.961253 
z
" clip-path="url(#p14e12afb68)" style="fill: #008000"/>
   </g>
   <g id="patch_20">
    <path d="M 340.554545 24153.442545 
L 357.463636 24153.442545 
L 357.463636 159.093724 
L 340.554545 159.093724 
z
" clip-path="url(#p14e12afb68)" style="fill: #008000"/>
   </g>
   <g id="patch_21">
    <path d="M 408.190909 24153.442545 
L 425.1 24153.442545 
L 425.1 81.139566 
L 408.190909 81.139566 
z
" clip-path="url(#p14e12afb68)" style="fill: #008000"/>
   </g>
   <g id="patch_22">
    <path d="M 475.827273 24153.442545 
L 492.736364 24153.442545 
L 492.736364 78.763365 
L 475.827273 78.763365 
z
" clip-path="url(#p14e12afb68)" style="fill: #008000"/>
   </g>
   <g id="patch_23">
    <path d="M 543.463636 24153.442545 
L 560.372727 24153.442545 
L 560.372727 92.594948 
L 543.463636 92.594948 
z
" clip-path="url(#p14e12afb68)" style="fill: #008000"/>
   </g>
   <g id="matplotlib.axis_1">
    <g id="xtick_1">
     <g id="line2d_1">
      <defs>
       <path id="m7d3436da92" d="M 0 0 
L 0 3.5 
" style="stroke: #000000; stroke-width: 0.8"/>
      </defs>
      <g>
       <use xlink:href="#m7d3436da92" x="129.190909" y="252" style="stroke: #000000; stroke-width: 0.8"/>
      </g>
     </g>
     <g id="text_1">
      <!-- A1 -->
      <g transform="translate(116.969034 272.878125)scale(0.2 -0.2)">
       <defs>
        <path id="LiberationSerif-Bold-41" d="M 1338 228 
L 1338 0 
L 63 0 
L 63 228 
L 375 313 
L 1866 4225 
L 2772 4225 
L 4256 313 
L 4575 228 
L 4575 0 
L 2709 0 
L 2709 228 
L 3194 313 
L 2794 1397 
L 1184 1397 
L 800 313 
L 1338 228 
z
M 2003 3594 
L 1313 1741 
L 2675 1741 
L 2003 3594 
z
" transform="scale(0.015625)"/>
        <path id="LiberationSerif-Bold-31" d="M 2141 344 
L 2869 269 
L 2869 0 
L 513 0 
L 513 269 
L 1238 344 
L 1238 3503 
L 516 3266 
L 516 3531 
L 1697 4225 
L 2141 4225 
L 2141 344 
z
" transform="scale(0.015625)"/>
       </defs>
       <use xlink:href="#LiberationSerif-Bold-41"/>
       <use xlink:href="#LiberationSerif-Bold-31" x="72.216797"/>
      </g>
     </g>
    </g>
    <g id="xtick_2">
     <g id="line2d_2">
      <g>
       <use xlink:href="#m7d3436da92" x="196.827273" y="252" style="stroke: #000000; stroke-width: 0.8"/>
      </g>
     </g>
     <g id="text_2">
      <!-- A2 -->
      <g transform="translate(184.605398 272.878125)scale(0.2 -0.2)">
       <defs>
        <path id="LiberationSerif-Bold-32" d="M 2925 0 
L 269 0 
L 269 591 
Q 538 878 766 1106 
Q 1266 1600 1497 1883 
Q 1728 2166 1836 2469 
Q 1944 2772 1944 3159 
Q 1944 3500 1778 3709 
Q 1613 3919 1338 3919 
Q 1144 3919 1028 3878 
Q 913 3838 816 3756 
L 681 3150 
L 409 3150 
L 409 4103 
Q 659 4159 898 4198 
Q 1138 4238 1419 4238 
Q 2109 4238 2476 3953 
Q 2844 3669 2844 3144 
Q 2844 2816 2734 2548 
Q 2625 2281 2389 2028 
Q 2153 1775 1450 1203 
Q 1181 984 869 706 
L 2925 706 
L 2925 0 
z
" transform="scale(0.015625)"/>
       </defs>
       <use xlink:href="#LiberationSerif-Bold-41"/>
       <use xlink:href="#LiberationSerif-Bold-32" x="72.216797"/>
      </g>
     </g>
    </g>
    <g id="xtick_3">
     <g id="line2d_3">
      <g>
       <use xlink:href="#m7d3436da92" x="264.463636" y="252" style="stroke: #000000; stroke-width: 0.8"/>
      </g>
     </g>
     <g id="text_3">
      <!-- A3 -->
      <g transform="translate(252.241761 272.878125)scale(0.2 -0.2)">
       <defs>
        <path id="LiberationSerif-Bold-33" d="M 2981 1141 
Q 2981 569 2572 253 
Q 2163 -63 1434 -63 
Q 853 -63 278 63 
L 241 1078 
L 528 1078 
L 691 406 
Q 963 253 1259 253 
Q 1638 253 1850 495 
Q 2063 738 2063 1172 
Q 2063 1550 1892 1751 
Q 1722 1953 1341 1978 
L 978 2000 
L 978 2378 
L 1328 2403 
Q 1606 2422 1739 2608 
Q 1872 2794 1872 3169 
Q 1872 3519 1714 3719 
Q 1556 3919 1266 3919 
Q 1097 3919 989 3867 
Q 881 3816 784 3756 
L 650 3150 
L 378 3150 
L 378 4103 
Q 697 4184 928 4211 
Q 1159 4238 1384 4238 
Q 2794 4238 2794 3206 
Q 2794 2781 2569 2518 
Q 2344 2256 1925 2194 
Q 2981 2066 2981 1141 
z
" transform="scale(0.015625)"/>
       </defs>
       <use xlink:href="#LiberationSerif-Bold-41"/>
       <use xlink:href="#LiberationSerif-Bold-33" x="72.216797"/>
      </g>
     </g>
    </g>
    <g id="xtick_4">
     <g id="line2d_4">
      <g>
       <use xlink:href="#m7d3436da92" x="332.1" y="252" style="stroke: #000000; stroke-width: 0.8"/>
      </g>
     </g>
     <g id="text_4">
      <!-- A4 -->
      <g transform="translate(319.878125 272.878125)scale(0.2 -0.2)">
       <defs>
        <path id="LiberationSerif-Bold-34" d="M 2663 828 
L 2663 0 
L 1822 0 
L 1822 828 
L 88 828 
L 88 1338 
L 1975 4213 
L 2663 4213 
L 2663 1469 
L 3081 1469 
L 3081 828 
L 2663 828 
z
M 1822 2709 
Q 1822 3059 1853 3372 
L 606 1469 
L 1822 1469 
L 1822 2709 
z
" transform="scale(0.015625)"/>
       </defs>
       <use xlink:href="#LiberationSerif-Bold-41"/>
       <use xlink:href="#LiberationSerif-Bold-34" x="72.216797"/>
      </g>
     </g>
    </g>
    <g id="xtick_5">
     <g id="line2d_5">
      <g>
       <use xlink:href="#m7d3436da92" x="399.736364" y="252" style="stroke: #000000; stroke-width: 0.8"/>
      </g>
     </g>
     <g id="text_5">
      <!-- A5 -->
      <g transform="translate(387.514489 272.878125)scale(0.2 -0.2)">
       <defs>
        <path id="LiberationSerif-Bold-35" d="M 1500 2478 
Q 2244 2478 2605 2172 
Q 2966 1866 2966 1247 
Q 2966 616 2573 276 
Q 2181 -63 1450 -63 
Q 869 -63 294 63 
L 256 1078 
L 544 1078 
L 706 406 
Q 828 338 1006 295 
Q 1184 253 1328 253 
Q 2047 253 2047 1216 
Q 2047 1716 1864 1939 
Q 1681 2163 1281 2163 
Q 1059 2163 875 2081 
L 778 2041 
L 466 2041 
L 466 4191 
L 2653 4191 
L 2653 3494 
L 813 3494 
L 813 2394 
Q 1194 2478 1500 2478 
z
" transform="scale(0.015625)"/>
       </defs>
       <use xlink:href="#LiberationSerif-Bold-41"/>
       <use xlink:href="#LiberationSerif-Bold-35" x="72.216797"/>
      </g>
     </g>
    </g>
    <g id="xtick_6">
     <g id="line2d_6">
      <g>
       <use xlink:href="#m7d3436da92" x="467.372727" y="252" style="stroke: #000000; stroke-width: 0.8"/>
      </g>
     </g>
     <g id="text_6">
      <!-- A6 -->
      <g transform="translate(455.150852 272.878125)scale(0.2 -0.2)">
       <defs>
        <path id="LiberationSerif-Bold-36" d="M 3013 1300 
Q 3013 641 2672 289 
Q 2331 -63 1703 -63 
Q 984 -63 601 484 
Q 219 1031 219 2069 
Q 219 2744 420 3234 
Q 622 3725 984 3981 
Q 1347 4238 1819 4238 
Q 2306 4238 2759 4103 
L 2759 3150 
L 2488 3150 
L 2353 3756 
Q 2138 3919 1881 3919 
Q 1569 3919 1373 3519 
Q 1178 3119 1144 2400 
Q 1484 2547 1819 2547 
Q 2391 2547 2702 2225 
Q 3013 1903 3013 1300 
z
M 1691 253 
Q 1919 253 2006 500 
Q 2094 747 2094 1241 
Q 2094 1681 1972 1918 
Q 1850 2156 1609 2156 
Q 1378 2156 1138 2084 
L 1138 2069 
Q 1138 253 1691 253 
z
" transform="scale(0.015625)"/>
       </defs>
       <use xlink:href="#LiberationSerif-Bold-41"/>
       <use xlink:href="#LiberationSerif-Bold-36" x="72.216797"/>
      </g>
     </g>
    </g>
    <g id="xtick_7">
     <g id="line2d_7">
      <g>
       <use xlink:href="#m7d3436da92" x="535.009091" y="252" style="stroke: #000000; stroke-width: 0.8"/>
      </g>
     </g>
     <g id="text_7">
      <!-- A7 -->
      <g transform="translate(522.787216 272.878125)scale(0.2 -0.2)">
       <defs>
        <path id="LiberationSerif-Bold-37" d="M 638 2994 
L 366 2994 
L 366 4191 
L 3044 4191 
L 3044 3944 
L 1416 0 
L 669 0 
L 2434 3494 
L 781 3494 
L 638 2994 
z
" transform="scale(0.015625)"/>
       </defs>
       <use xlink:href="#LiberationSerif-Bold-41"/>
       <use xlink:href="#LiberationSerif-Bold-37" x="72.216797"/>
      </g>
     </g>
    </g>
    <g id="text_8">
     <!-- Architecture -->
     <g transform="translate(267.22125 297.79125)scale(0.24 -0.24)">
      <defs>
       <path id="LiberationSerif-Bold-72" d="M 1441 2328 
Q 1778 2703 2045 2867 
Q 2313 3031 2534 3031 
L 2703 3031 
L 2703 1959 
L 2528 1959 
L 2344 2353 
Q 2147 2353 1897 2267 
Q 1647 2181 1456 2066 
L 1456 281 
L 1928 206 
L 1928 0 
L 172 0 
L 172 206 
L 553 281 
L 553 2656 
L 172 2731 
L 172 2938 
L 1406 2938 
L 1441 2328 
z
" transform="scale(0.015625)"/>
       <path id="LiberationSerif-Bold-63" d="M 2681 178 
Q 2541 66 2292 3 
Q 2044 -59 1781 -59 
Q 997 -59 608 319 
Q 219 697 219 1475 
Q 219 1959 395 2304 
Q 572 2650 900 2833 
Q 1228 3016 1663 3016 
Q 2100 3016 2616 2906 
L 2616 2038 
L 2391 2038 
L 2259 2553 
Q 2153 2631 2050 2662 
Q 1947 2694 1778 2694 
Q 1594 2694 1444 2547 
Q 1294 2400 1211 2133 
Q 1128 1866 1128 1494 
Q 1128 866 1323 597 
Q 1519 328 1944 328 
Q 2375 328 2681 419 
L 2681 178 
z
" transform="scale(0.015625)"/>
       <path id="LiberationSerif-Bold-68" d="M 1363 3169 
Q 1363 2963 1344 2681 
L 1559 2791 
Q 2003 3016 2356 3016 
Q 3169 3016 3169 2150 
L 3169 281 
L 3463 206 
L 3463 0 
L 2003 0 
L 2003 206 
L 2266 281 
L 2266 2028 
Q 2266 2291 2155 2437 
Q 2044 2584 1838 2584 
Q 1600 2584 1363 2478 
L 1363 281 
L 1631 206 
L 1631 0 
L 172 0 
L 172 206 
L 459 281 
L 459 4159 
L 159 4234 
L 159 4441 
L 1363 4441 
L 1363 3169 
z
" transform="scale(0.015625)"/>
       <path id="LiberationSerif-Bold-69" d="M 1363 281 
L 1684 206 
L 1684 0 
L 141 0 
L 141 206 
L 459 281 
L 459 2656 
L 159 2731 
L 159 2938 
L 1363 2938 
L 1363 281 
z
M 428 3963 
Q 428 4166 570 4303 
Q 713 4441 909 4441 
Q 1109 4441 1248 4302 
Q 1388 4163 1388 3963 
Q 1388 3766 1250 3623 
Q 1113 3481 909 3481 
Q 709 3481 568 3620 
Q 428 3759 428 3963 
z
" transform="scale(0.015625)"/>
       <path id="LiberationSerif-Bold-74" d="M 1369 -63 
Q 947 -63 717 128 
Q 488 319 488 678 
L 488 2613 
L 103 2613 
L 103 2816 
L 556 2938 
L 922 3603 
L 1391 3603 
L 1391 2938 
L 2009 2938 
L 2009 2613 
L 1391 2613 
L 1391 734 
Q 1391 531 1475 428 
Q 1559 325 1697 325 
Q 1863 325 2103 375 
L 2103 109 
Q 2009 44 1782 -9 
Q 1556 -63 1369 -63 
z
" transform="scale(0.015625)"/>
       <path id="LiberationSerif-Bold-65" d="M 1544 3009 
Q 2141 3009 2408 2690 
Q 2675 2372 2675 1700 
L 2675 1444 
L 1134 1444 
L 1134 1394 
Q 1134 928 1209 731 
Q 1284 534 1453 431 
Q 1622 328 1916 328 
Q 2191 328 2609 419 
L 2609 178 
Q 2438 75 2164 8 
Q 1891 -59 1631 -59 
Q 909 -59 564 317 
Q 219 694 219 1484 
Q 219 2253 548 2631 
Q 878 3009 1544 3009 
z
M 1509 2694 
Q 1322 2694 1230 2491 
Q 1138 2288 1138 1772 
L 1819 1772 
Q 1819 2191 1791 2361 
Q 1763 2531 1695 2612 
Q 1628 2694 1509 2694 
z
" transform="scale(0.015625)"/>
       <path id="LiberationSerif-Bold-75" d="M 2203 256 
L 1991 147 
Q 1553 -78 1203 -78 
Q 391 -78 391 788 
L 391 2656 
L 97 2731 
L 97 2938 
L 1294 2938 
L 1294 909 
Q 1294 647 1405 500 
Q 1516 353 1722 353 
Q 1959 353 2197 459 
L 2197 2656 
L 1928 2731 
L 1928 2938 
L 3100 2938 
L 3100 281 
L 3388 206 
L 3388 0 
L 2247 0 
L 2203 256 
z
" transform="scale(0.015625)"/>
      </defs>
      <use xlink:href="#LiberationSerif-Bold-41"/>
      <use xlink:href="#LiberationSerif-Bold-72" x="72.216797"/>
      <use xlink:href="#LiberationSerif-Bold-63" x="114.851562"/>
      <use xlink:href="#LiberationSerif-Bold-68" x="159.236328"/>
      <use xlink:href="#LiberationSerif-Bold-69" x="214.851562"/>
      <use xlink:href="#LiberationSerif-Bold-74" x="242.634766"/>
      <use xlink:href="#LiberationSerif-Bold-65" x="275.935547"/>
      <use xlink:href="#LiberationSerif-Bold-63" x="320.320312"/>
      <use xlink:href="#LiberationSerif-Bold-74" x="364.705078"/>
      <use xlink:href="#LiberationSerif-Bold-75" x="398.005859"/>
      <use xlink:href="#LiberationSerif-Bold-72" x="453.621094"/>
      <use xlink:href="#LiberationSerif-Bold-65" x="496.255859"/>
     </g>
    </g>
   </g>
   <g id="matplotlib.axis_2">
    <g id="ytick_1">
     <g id="line2d_8">
      <defs>
       <path id="mafb7fef67f" d="M 0 0 
L -3.5 0 
" style="stroke: #000000; stroke-width: 0.8"/>
      </defs>
      <g>
       <use xlink:href="#mafb7fef67f" x="81" y="209.571689" style="stroke: #000000; stroke-width: 0.8"/>
      </g>
     </g>
     <g id="text_9">
      <!-- $\mathdefault{10^{-7}}$ -->
      <g transform="translate(38.4 216.510751)scale(0.2 -0.2)">
       <defs>
        <path id="LiberationSerif-Bold-30" d="M 2956 2113 
Q 2956 -63 1581 -63 
Q 919 -63 581 493 
Q 244 1050 244 2113 
Q 244 3153 581 3704 
Q 919 4256 1606 4256 
Q 2269 4256 2612 3711 
Q 2956 3166 2956 2113 
z
M 2041 2113 
Q 2041 3088 1931 3514 
Q 1822 3941 1588 3941 
Q 1356 3941 1257 3528 
Q 1159 3116 1159 2113 
Q 1159 1094 1259 672 
Q 1359 250 1588 250 
Q 1819 250 1930 683 
Q 2041 1116 2041 2113 
z
" transform="scale(0.015625)"/>
        <path id="LiberationSerif-Bold-2212" d="M 3313 2347 
L 3313 1900 
L 338 1900 
L 338 2347 
L 3313 2347 
z
" transform="scale(0.015625)"/>
       </defs>
       <use xlink:href="#LiberationSerif-Bold-31" transform="translate(0 0.026563)"/>
       <use xlink:href="#LiberationSerif-Bold-30" transform="translate(50 0.026563)"/>
       <use xlink:href="#LiberationSerif-Bold-2212" transform="translate(100.803359 32.160938)scale(0.7)"/>
       <use xlink:href="#LiberationSerif-Bold-37" transform="translate(140.691055 32.160938)scale(0.7)"/>
      </g>
     </g>
    </g>
    <g id="ytick_2">
     <g id="line2d_9">
      <g>
       <use xlink:href="#mafb7fef67f" x="81" y="161.34637" style="stroke: #000000; stroke-width: 0.8"/>
      </g>
     </g>
     <g id="text_10">
      <!-- $\mathdefault{10^{-5}}$ -->
      <g transform="translate(38.4 168.285432)scale(0.2 -0.2)">
       <use xlink:href="#LiberationSerif-Bold-31" transform="translate(0 0.026563)"/>
       <use xlink:href="#LiberationSerif-Bold-30" transform="translate(50 0.026563)"/>
       <use xlink:href="#LiberationSerif-Bold-2212" transform="translate(100.803359 32.160938)scale(0.7)"/>
       <use xlink:href="#LiberationSerif-Bold-35" transform="translate(140.691055 32.160938)scale(0.7)"/>
      </g>
     </g>
    </g>
    <g id="ytick_3">
     <g id="line2d_10">
      <g>
       <use xlink:href="#mafb7fef67f" x="81" y="113.121051" style="stroke: #000000; stroke-width: 0.8"/>
      </g>
     </g>
     <g id="text_11">
      <!-- $\mathdefault{10^{-3}}$ -->
      <g transform="translate(38.4 120.060113)scale(0.2 -0.2)">
       <use xlink:href="#LiberationSerif-Bold-31" transform="translate(0 0.5125)"/>
       <use xlink:href="#LiberationSerif-Bold-30" transform="translate(50 0.5125)"/>
       <use xlink:href="#LiberationSerif-Bold-2212" transform="translate(100.803359 32.646875)scale(0.7)"/>
       <use xlink:href="#LiberationSerif-Bold-33" transform="translate(140.691055 32.646875)scale(0.7)"/>
      </g>
     </g>
    </g>
    <g id="ytick_4">
     <g id="line2d_11">
      <g>
       <use xlink:href="#mafb7fef67f" x="81" y="64.895732" style="stroke: #000000; stroke-width: 0.8"/>
      </g>
     </g>
     <g id="text_12">
      <!-- $\mathdefault{10^{-1}}$ -->
      <g transform="translate(38.4 71.834794)scale(0.2 -0.2)">
       <use xlink:href="#LiberationSerif-Bold-31" transform="translate(0 0.654687)"/>
       <use xlink:href="#LiberationSerif-Bold-30" transform="translate(50 0.654687)"/>
       <use xlink:href="#LiberationSerif-Bold-2212" transform="translate(100.803359 32.789062)scale(0.7)"/>
       <use xlink:href="#LiberationSerif-Bold-31" transform="translate(140.691055 32.789062)scale(0.7)"/>
      </g>
     </g>
    </g>
    <g id="text_13">
     <!-- Loss -->
     <g transform="translate(29.28875 166.625625)rotate(-90)scale(0.24 -0.24)">
      <defs>
       <path id="LiberationSerif-Bold-4c" d="M 2278 3963 
L 1631 3881 
L 1631 331 
L 2484 331 
Q 3150 331 3463 394 
L 3719 1266 
L 4000 1266 
L 3881 0 
L 109 0 
L 109 228 
L 647 313 
L 647 3881 
L 113 3963 
L 113 4191 
L 2278 4191 
L 2278 3963 
z
" transform="scale(0.015625)"/>
       <path id="LiberationSerif-Bold-6f" d="M 2956 1484 
Q 2956 694 2617 315 
Q 2278 -63 1581 -63 
Q 906 -63 575 320 
Q 244 703 244 1484 
Q 244 2263 580 2639 
Q 916 3016 1606 3016 
Q 2303 3016 2629 2627 
Q 2956 2238 2956 1484 
z
M 2041 1484 
Q 2041 2172 1939 2436 
Q 1838 2700 1588 2700 
Q 1347 2700 1253 2447 
Q 1159 2194 1159 1484 
Q 1159 763 1254 506 
Q 1350 250 1588 250 
Q 1834 250 1937 520 
Q 2041 791 2041 1484 
z
" transform="scale(0.015625)"/>
       <path id="LiberationSerif-Bold-73" d="M 2334 931 
Q 2334 441 2032 189 
Q 1731 -63 1156 -63 
Q 919 -63 633 -11 
Q 347 41 200 97 
L 200 897 
L 406 897 
L 525 484 
Q 634 375 812 301 
Q 991 228 1175 228 
Q 1447 228 1580 345 
Q 1713 463 1713 644 
Q 1713 816 1584 919 
Q 1456 1022 1025 1156 
Q 572 1297 383 1540 
Q 194 1784 194 2141 
Q 194 2541 491 2778 
Q 788 3016 1256 3016 
Q 1578 3016 2122 2925 
L 2122 2172 
L 1916 2172 
L 1816 2516 
Q 1725 2606 1561 2664 
Q 1397 2722 1250 2722 
Q 1025 2722 917 2630 
Q 809 2538 809 2378 
Q 809 2213 943 2106 
Q 1078 2000 1497 1875 
Q 1953 1734 2143 1504 
Q 2334 1275 2334 931 
z
" transform="scale(0.015625)"/>
      </defs>
      <use xlink:href="#LiberationSerif-Bold-4c"/>
      <use xlink:href="#LiberationSerif-Bold-6f" x="66.699219"/>
      <use xlink:href="#LiberationSerif-Bold-73" x="116.699219"/>
      <use xlink:href="#LiberationSerif-Bold-73" x="155.615234"/>
     </g>
    </g>
   </g>
   <g id="patch_24">
    <path d="M 81 252 
L 81 34.56 
" style="fill: none; stroke: #000000; stroke-width: 0.8; stroke-linejoin: miter; stroke-linecap: square"/>
   </g>
   <g id="patch_25">
    <path d="M 583.2 252 
L 583.2 34.56 
" style="fill: none; stroke: #000000; stroke-width: 0.8; stroke-linejoin: miter; stroke-linecap: square"/>
   </g>
   <g id="patch_26">
    <path d="M 81 252 
L 583.2 252 
" style="fill: none; stroke: #000000; stroke-width: 0.8; stroke-linejoin: miter; stroke-linecap: square"/>
   </g>
   <g id="patch_27">
    <path d="M 81 34.56 
L 583.2 34.56 
" style="fill: none; stroke: #000000; stroke-width: 0.8; stroke-linejoin: miter; stroke-linecap: square"/>
   </g>
   <g id="legend_1">
    <g id="patch_28">
     <path d="M 597.2 188.669062 
L 731.2 188.669062 
Q 735.2 188.669062 735.2 184.669062 
L 735.2 101.890938 
Q 735.2 97.890938 731.2 97.890938 
L 597.2 97.890938 
Q 593.2 97.890938 593.2 101.890938 
L 593.2 184.669062 
Q 593.2 188.669062 597.2 188.669062 
z
" style="fill: #ffffff; opacity: 0.8; stroke: #cccccc; stroke-linejoin: miter"/>
    </g>
    <g id="patch_29">
     <path d="M 601.2 119.890938 
L 641.2 119.890938 
L 641.2 105.890938 
L 601.2 105.890938 
z
" style="fill: #ff0000"/>
    </g>
    <g id="text_14">
     <!-- 200x200 -->
     <g transform="translate(657.2 119.890938)scale(0.2 -0.2)">
      <defs>
       <path id="LiberationSerif-Bold-78" d="M 97 2734 
L 97 2938 
L 1666 2938 
L 1666 2734 
L 1338 2650 
L 1766 1991 
L 2331 2656 
L 2038 2734 
L 2038 2938 
L 3038 2938 
L 3038 2734 
L 2778 2669 
L 1953 1700 
L 2884 269 
L 3166 203 
L 3166 0 
L 1597 0 
L 1597 203 
L 1925 275 
L 1413 1066 
L 731 269 
L 1025 203 
L 1025 0 
L 25 0 
L 25 203 
L 288 253 
L 1225 1353 
L 381 2656 
L 97 2734 
z
" transform="scale(0.015625)"/>
      </defs>
      <use xlink:href="#LiberationSerif-Bold-32"/>
      <use xlink:href="#LiberationSerif-Bold-30" x="50"/>
      <use xlink:href="#LiberationSerif-Bold-30" x="100"/>
      <use xlink:href="#LiberationSerif-Bold-78" x="150"/>
      <use xlink:href="#LiberationSerif-Bold-32" x="200"/>
      <use xlink:href="#LiberationSerif-Bold-30" x="250"/>
      <use xlink:href="#LiberationSerif-Bold-30" x="300"/>
     </g>
    </g>
    <g id="patch_30">
     <path d="M 601.2 148.150313 
L 641.2 148.150313 
L 641.2 134.150313 
L 601.2 134.150313 
z
" style="fill: #0000ff"/>
    </g>
    <g id="text_15">
     <!-- 256x256 -->
     <g transform="translate(657.2 148.150313)scale(0.2 -0.2)">
      <use xlink:href="#LiberationSerif-Bold-32"/>
      <use xlink:href="#LiberationSerif-Bold-35" x="50"/>
      <use xlink:href="#LiberationSerif-Bold-36" x="100"/>
      <use xlink:href="#LiberationSerif-Bold-78" x="150"/>
      <use xlink:href="#LiberationSerif-Bold-32" x="200"/>
      <use xlink:href="#LiberationSerif-Bold-35" x="250"/>
      <use xlink:href="#LiberationSerif-Bold-36" x="300"/>
     </g>
    </g>
    <g id="patch_31">
     <path d="M 601.2 176.409688 
L 641.2 176.409688 
L 641.2 162.409688 
L 601.2 162.409688 
z
" style="fill: #008000"/>
    </g>
    <g id="text_16">
     <!-- 512x512 -->
     <g transform="translate(657.2 176.409688)scale(0.2 -0.2)">
      <use xlink:href="#LiberationSerif-Bold-35"/>
      <use xlink:href="#LiberationSerif-Bold-31" x="50"/>
      <use xlink:href="#LiberationSerif-Bold-32" x="100"/>
      <use xlink:href="#LiberationSerif-Bold-78" x="150"/>
      <use xlink:href="#LiberationSerif-Bold-35" x="200"/>
      <use xlink:href="#LiberationSerif-Bold-31" x="250"/>
      <use xlink:href="#LiberationSerif-Bold-32" x="300"/>
     </g>
    </g>
   </g>
  </g>
 </g>
 <defs>
  <clipPath id="p14e12afb68">
   <rect x="81" y="34.56" width="502.2" height="217.44"/>
  </clipPath>
 </defs>
</svg>
