<?xml version="1.0" encoding="utf-8" standalone="no"?>
<!DOCTYPE svg PUBLIC "-//W3C//DTD SVG 1.1//EN"
  "http://www.w3.org/Graphics/SVG/1.1/DTD/svg11.dtd">
<!-- Created with matplotlib (https://matplotlib.org/) -->
<svg height="227.920511pt" version="1.1" viewBox="0 0 319.87 227.920511" width="319.87pt" xmlns="http://www.w3.org/2000/svg" xmlns:xlink="http://www.w3.org/1999/xlink">
 <defs>
  <style type="text/css">
*{stroke-linecap:butt;stroke-linejoin:round;}
  </style>
 </defs>
 <g id="figure_1">
  <g id="patch_1">
   <path d="M 0 227.920511 
L 319.87 227.920511 
L 319.87 0 
L 0 0 
z
" style="fill:none;"/>
  </g>
  <g id="axes_1">
   <g id="patch_2">
    <path d="M 57.865 102.790739 
L 242.005 102.790739 
L 242.005 41.018011 
L 57.865 41.018011 
z
" style="fill:none;"/>
   </g>
   <g id="matplotlib.axis_1">
    <g id="xtick_1">
     <g id="line2d_1">
      <defs>
       <path d="M 0 0 
L 0 -3 
" id="m87531d18ef" style="stroke:#000000;stroke-width:0.5;"/>
      </defs>
      <g>
       <use style="stroke:#000000;stroke-width:0.5;" x="129.266224" xlink:href="#m87531d18ef" y="102.790739"/>
      </g>
     </g>
     <g id="line2d_2">
      <defs>
       <path d="M 0 0 
L 0 3 
" id="mf8ef955c03" style="stroke:#000000;stroke-width:0.5;"/>
      </defs>
      <g>
       <use style="stroke:#000000;stroke-width:0.5;" x="129.266224" xlink:href="#mf8ef955c03" y="41.018011"/>
      </g>
     </g>
    </g>
    <g id="xtick_2">
     <g id="line2d_3">
      <g>
       <use style="stroke:#000000;stroke-width:0.5;" x="204.425408" xlink:href="#m87531d18ef" y="102.790739"/>
      </g>
     </g>
     <g id="line2d_4">
      <g>
       <use style="stroke:#000000;stroke-width:0.5;" x="204.425408" xlink:href="#mf8ef955c03" y="41.018011"/>
      </g>
     </g>
    </g>
    <g id="xtick_3">
     <g id="line2d_5">
      <defs>
       <path d="M 0 0 
L 0 -1.5 
" id="m864c07cb12" style="stroke:#000000;stroke-width:0.5;"/>
      </defs>
      <g>
       <use style="stroke:#000000;stroke-width:0.5;" x="72.896837" xlink:href="#m864c07cb12" y="102.790739"/>
      </g>
     </g>
     <g id="line2d_6">
      <defs>
       <path d="M 0 0 
L 0 1.5 
" id="mcbd9ba17a2" style="stroke:#000000;stroke-width:0.5;"/>
      </defs>
      <g>
       <use style="stroke:#000000;stroke-width:0.5;" x="72.896837" xlink:href="#mcbd9ba17a2" y="41.018011"/>
      </g>
     </g>
    </g>
    <g id="xtick_4">
     <g id="line2d_7">
      <g>
       <use style="stroke:#000000;stroke-width:0.5;" x="91.686633" xlink:href="#m864c07cb12" y="102.790739"/>
      </g>
     </g>
     <g id="line2d_8">
      <g>
       <use style="stroke:#000000;stroke-width:0.5;" x="91.686633" xlink:href="#mcbd9ba17a2" y="41.018011"/>
      </g>
     </g>
    </g>
    <g id="xtick_5">
     <g id="line2d_9">
      <g>
       <use style="stroke:#000000;stroke-width:0.5;" x="110.476429" xlink:href="#m864c07cb12" y="102.790739"/>
      </g>
     </g>
     <g id="line2d_10">
      <g>
       <use style="stroke:#000000;stroke-width:0.5;" x="110.476429" xlink:href="#mcbd9ba17a2" y="41.018011"/>
      </g>
     </g>
    </g>
    <g id="xtick_6">
     <g id="line2d_11">
      <g>
       <use style="stroke:#000000;stroke-width:0.5;" x="148.05602" xlink:href="#m864c07cb12" y="102.790739"/>
      </g>
     </g>
     <g id="line2d_12">
      <g>
       <use style="stroke:#000000;stroke-width:0.5;" x="148.05602" xlink:href="#mcbd9ba17a2" y="41.018011"/>
      </g>
     </g>
    </g>
    <g id="xtick_7">
     <g id="line2d_13">
      <g>
       <use style="stroke:#000000;stroke-width:0.5;" x="166.845816" xlink:href="#m864c07cb12" y="102.790739"/>
      </g>
     </g>
     <g id="line2d_14">
      <g>
       <use style="stroke:#000000;stroke-width:0.5;" x="166.845816" xlink:href="#mcbd9ba17a2" y="41.018011"/>
      </g>
     </g>
    </g>
    <g id="xtick_8">
     <g id="line2d_15">
      <g>
       <use style="stroke:#000000;stroke-width:0.5;" x="185.635612" xlink:href="#m864c07cb12" y="102.790739"/>
      </g>
     </g>
     <g id="line2d_16">
      <g>
       <use style="stroke:#000000;stroke-width:0.5;" x="185.635612" xlink:href="#mcbd9ba17a2" y="41.018011"/>
      </g>
     </g>
    </g>
    <g id="xtick_9">
     <g id="line2d_17">
      <g>
       <use style="stroke:#000000;stroke-width:0.5;" x="223.215204" xlink:href="#m864c07cb12" y="102.790739"/>
      </g>
     </g>
     <g id="line2d_18">
      <g>
       <use style="stroke:#000000;stroke-width:0.5;" x="223.215204" xlink:href="#mcbd9ba17a2" y="41.018011"/>
      </g>
     </g>
    </g>
    <g id="xtick_10">
     <g id="line2d_19">
      <g>
       <use style="stroke:#000000;stroke-width:0.5;" x="242.005" xlink:href="#m864c07cb12" y="102.790739"/>
      </g>
     </g>
     <g id="line2d_20">
      <g>
       <use style="stroke:#000000;stroke-width:0.5;" x="242.005" xlink:href="#mcbd9ba17a2" y="41.018011"/>
      </g>
     </g>
    </g>
   </g>
   <g id="matplotlib.axis_2">
    <g id="ytick_1">
     <g id="line2d_21">
      <defs>
       <path d="M 0 0 
L 3 0 
" id="m17821b7c6f" style="stroke:#000000;stroke-width:0.5;"/>
      </defs>
      <g>
       <use style="stroke:#000000;stroke-width:0.5;" x="57.865" xlink:href="#m17821b7c6f" y="102.790739"/>
      </g>
     </g>
     <g id="text_1">
      <!-- 0 -->
      <defs>
       <path d="M 46.1875 33.015625 
Q 46.1875 24.8125 44.890625 18.453125 
Q 43.609375 12.109375 40.96875 7.78125 
Q 38.328125 3.46875 34.265625 1.234375 
Q 30.21875 -0.984375 24.703125 -0.984375 
Q 14.359375 -0.984375 9.078125 7.703125 
Q 3.8125 16.40625 3.8125 33.015625 
Q 3.8125 49.265625 9.078125 57.875 
Q 14.359375 66.5 25.09375 66.5 
Q 35.453125 66.5 40.8125 57.984375 
Q 46.1875 49.46875 46.1875 33.015625 
z
M 31.890625 33.015625 
Q 31.890625 39.796875 31.546875 45.109375 
Q 31.203125 50.4375 30.375 54.09375 
Q 29.546875 57.765625 28.203125 59.671875 
Q 26.859375 61.578125 24.8125 61.578125 
Q 22.75 61.578125 21.453125 59.671875 
Q 20.171875 57.765625 19.4375 54.09375 
Q 18.703125 50.4375 18.40625 45.109375 
Q 18.109375 39.796875 18.109375 33.015625 
Q 18.109375 26.171875 18.40625 20.765625 
Q 18.703125 15.375 19.4375 11.640625 
Q 20.171875 7.90625 21.453125 5.90625 
Q 22.75 3.90625 24.8125 3.90625 
Q 26.859375 3.90625 28.203125 5.90625 
Q 29.546875 7.90625 30.375 11.640625 
Q 31.203125 15.375 31.546875 20.765625 
Q 31.890625 26.171875 31.890625 33.015625 
z
" id="LiberationSerif-Bold-48"/>
      </defs>
      <g transform="translate(44.365 109.729801)scale(0.2 -0.2)">
       <use xlink:href="#LiberationSerif-Bold-48"/>
      </g>
     </g>
    </g>
    <g id="ytick_2">
     <g id="line2d_22">
      <g>
       <use style="stroke:#000000;stroke-width:0.5;" x="57.865" xlink:href="#m17821b7c6f" y="41.629623"/>
      </g>
     </g>
     <g id="text_2">
      <!-- 1 -->
      <defs>
       <path d="M 33.453125 5.375 
L 44.828125 4.203125 
L 44.828125 0 
L 8.015625 0 
L 8.015625 4.203125 
L 19.34375 5.375 
L 19.34375 54.734375 
L 8.0625 51.03125 
L 8.0625 55.171875 
L 26.515625 66.015625 
L 33.453125 66.015625 
z
" id="LiberationSerif-Bold-49"/>
      </defs>
      <g transform="translate(44.365 48.568685)scale(0.2 -0.2)">
       <use xlink:href="#LiberationSerif-Bold-49"/>
      </g>
     </g>
    </g>
    <g id="ytick_3">
     <g id="line2d_23">
      <defs>
       <path d="M 0 0 
L 1.5 0 
" id="m3d0d9ad966" style="stroke:#000000;stroke-width:0.5;"/>
      </defs>
      <g>
       <use style="stroke:#000000;stroke-width:0.5;" x="57.865" xlink:href="#m3d0d9ad966" y="90.558515"/>
      </g>
     </g>
    </g>
    <g id="ytick_4">
     <g id="line2d_24">
      <g>
       <use style="stroke:#000000;stroke-width:0.5;" x="57.865" xlink:href="#m3d0d9ad966" y="78.326292"/>
      </g>
     </g>
    </g>
    <g id="ytick_5">
     <g id="line2d_25">
      <g>
       <use style="stroke:#000000;stroke-width:0.5;" x="57.865" xlink:href="#m3d0d9ad966" y="66.094069"/>
      </g>
     </g>
    </g>
    <g id="ytick_6">
     <g id="line2d_26">
      <g>
       <use style="stroke:#000000;stroke-width:0.5;" x="57.865" xlink:href="#m3d0d9ad966" y="53.861846"/>
      </g>
     </g>
    </g>
    <g id="text_3">
     <!-- Loss -->
     <defs>
      <path d="M 30.8125 62.890625 
L 20.703125 61.625 
L 20.703125 4.203125 
L 33.59375 4.203125 
Q 39.703125 4.203125 43.546875 4.546875 
Q 47.40625 4.890625 48.875 5.171875 
L 51.90625 18.796875 
L 55.078125 18.796875 
L 54.203125 0 
L 2.875 0 
L 2.875 2.59375 
L 11.28125 3.90625 
L 11.28125 61.625 
L 2.875 62.890625 
L 2.875 65.484375 
L 30.8125 65.484375 
z
" id="LiberationSerif-76"/>
      <path d="M 46.1875 23.1875 
Q 46.1875 11.53125 40.96875 5.265625 
Q 35.75 -0.984375 24.703125 -0.984375 
Q 14.359375 -0.984375 9.078125 5.21875 
Q 3.8125 11.421875 3.8125 23.1875 
Q 3.8125 34.8125 9.078125 40.96875 
Q 14.359375 47.125 25.09375 47.125 
Q 35.546875 47.125 40.859375 41.09375 
Q 46.1875 35.0625 46.1875 23.1875 
z
M 37.40625 23.1875 
Q 37.40625 27.9375 36.765625 31.671875 
Q 36.140625 35.40625 34.640625 37.96875 
Q 33.15625 40.53125 30.703125 41.875 
Q 28.265625 43.21875 24.703125 43.21875 
Q 21.09375 43.21875 18.75 41.875 
Q 16.40625 40.53125 15.03125 37.96875 
Q 13.671875 35.40625 13.125 31.671875 
Q 12.59375 27.9375 12.59375 23.1875 
Q 12.59375 18.40625 13.125 14.640625 
Q 13.671875 10.890625 15.03125 8.28125 
Q 16.40625 5.671875 18.75 4.265625 
Q 21.09375 2.875 24.703125 2.875 
Q 28.265625 2.875 30.703125 4.265625 
Q 33.15625 5.671875 34.640625 8.28125 
Q 36.140625 10.890625 36.765625 14.640625 
Q 37.40625 18.40625 37.40625 23.1875 
z
" id="LiberationSerif-111"/>
      <path d="M 35.296875 12.890625 
Q 35.296875 9.8125 34.34375 7.25 
Q 33.40625 4.6875 31.34375 2.859375 
Q 29.296875 1.03125 26.046875 0.015625 
Q 22.796875 -0.984375 18.21875 -0.984375 
Q 15.921875 -0.984375 13.6875 -0.703125 
Q 11.46875 -0.4375 9.5625 -0.0625 
Q 7.671875 0.296875 6.25 0.6875 
Q 4.828125 1.078125 4.203125 1.3125 
L 4.203125 12.59375 
L 6.390625 12.59375 
L 8.796875 6.203125 
Q 10.296875 4.828125 12.6875 3.84375 
Q 15.09375 2.875 18.3125 2.875 
Q 22.859375 2.875 25.3125 4.859375 
Q 27.78125 6.84375 27.78125 10.984375 
Q 27.78125 13.421875 26.75 15.015625 
Q 25.734375 16.609375 24.0625 17.671875 
Q 22.40625 18.75 20.28125 19.453125 
Q 18.171875 20.171875 15.9375 20.890625 
Q 13.71875 21.625 11.59375 22.546875 
Q 9.46875 23.484375 7.8125 24.953125 
Q 6.15625 26.421875 5.125 28.609375 
Q 4.109375 30.8125 4.109375 34.078125 
Q 4.109375 37.203125 5.21875 39.640625 
Q 6.34375 42.09375 8.375 43.75 
Q 10.40625 45.40625 13.203125 46.265625 
Q 16.015625 47.125 19.390625 47.125 
Q 22.703125 47.125 25.875 46.65625 
Q 29.046875 46.1875 31.984375 45.609375 
L 31.984375 35.59375 
L 29.6875 35.59375 
L 27.640625 40.921875 
Q 26.375 42.046875 24.171875 42.625 
Q 21.96875 43.21875 19.484375 43.21875 
Q 15.53125 43.21875 13.453125 41.265625 
Q 11.375 39.3125 11.375 35.984375 
Q 11.375 33.734375 12.390625 32.296875 
Q 13.421875 30.859375 15.109375 29.859375 
Q 16.796875 28.859375 18.9375 28.125 
Q 21.09375 27.390625 23.34375 26.609375 
Q 25.59375 25.828125 27.734375 24.828125 
Q 29.890625 23.828125 31.5625 22.265625 
Q 33.25 20.703125 34.265625 18.453125 
Q 35.296875 16.21875 35.296875 12.890625 
z
" id="LiberationSerif-115"/>
     </defs>
     <g transform="translate(35.25375 94.575)rotate(-90)scale(0.24 -0.24)">
      <use xlink:href="#LiberationSerif-76"/>
      <use x="61.083984" xlink:href="#LiberationSerif-111"/>
      <use x="111.083984" xlink:href="#LiberationSerif-115"/>
      <use x="150" xlink:href="#LiberationSerif-115"/>
     </g>
    </g>
   </g>
   <g id="line2d_27">
    <path clip-path="url(#pbf15706d55)" d="M 54.107041 59.257625 
L 57.865 67.518808 
L 61.622959 73.087906 
L 65.380918 81.369557 
L 69.138878 83.924281 
L 72.896837 80.34074 
L 76.654796 89.060333 
L 80.412755 88.219431 
L 84.170714 81.244653 
L 87.928673 88.152685 
L 91.686633 87.696217 
L 95.444592 90.21732 
L 99.202551 85.522047 
L 102.96051 89.666485 
L 106.718469 93.937379 
L 110.476429 96.012049 
L 114.234388 96.697519 
L 117.992347 88.795849 
L 121.750306 98.129331 
L 125.508265 97.777703 
L 129.266224 95.998242 
L 133.024184 97.742478 
L 136.782143 92.843664 
L 140.540102 93.928603 
L 144.298061 99.04629 
L 148.05602 94.03418 
L 151.81398 97.442359 
L 155.571939 99.903143 
L 159.329898 92.273948 
L 163.087857 95.846779 
L 166.845816 97.359345 
L 170.603776 98.887357 
L 174.361735 97.655619 
L 178.119694 98.866005 
L 181.877653 100.814261 
L 185.635612 94.503105 
L 189.393571 100.143191 
L 193.151531 98.209591 
L 196.90949 98.643419 
L 200.667449 97.772439 
L 204.425408 97.832791 
L 208.183367 96.027385 
L 211.941327 96.886779 
L 215.699286 100.19954 
L 219.457245 98.06423 
L 223.215204 98.596049 
L 226.973163 96.943856 
L 230.731122 97.166477 
L 234.489082 99.121476 
L 238.247041 89.230758 
" style="fill:none;stroke:#0000ff;stroke-linecap:square;"/>
   </g>
   <g id="line2d_28">
    <path clip-path="url(#pbf15706d55)" d="M 54.107041 71.374781 
L 57.865 36.691483 
L 61.01139 -1 
M 62.272747 -1 
L 65.380918 34.043657 
L 69.138878 -0.563742 
L 69.35542 -1 
M 73.850617 -1 
L 76.654796 19.976591 
L 80.412755 25.561739 
L 82.769838 -1 
M 85.367133 -1 
L 87.928673 32.79865 
L 91.686633 28.342764 
L 95.444592 56.609649 
L 99.202551 37.484311 
L 102.96051 48.669804 
L 106.718469 63.878902 
L 110.476429 74.486413 
L 114.234388 60.937414 
L 117.992347 60.792221 
L 121.750306 61.242829 
L 125.508265 66.110622 
L 129.266224 75.549937 
L 133.024184 73.460694 
L 136.782143 85.094019 
L 140.540102 77.749512 
L 144.298061 72.884574 
L 148.05602 80.578231 
L 151.81398 90.776451 
L 155.571939 83.426694 
L 159.329898 79.201229 
L 163.087857 85.530789 
L 166.845816 84.421527 
L 170.603776 82.470893 
L 174.361735 84.248135 
L 178.119694 80.483995 
L 181.877653 86.63666 
L 185.635612 89.237502 
L 189.393571 96.590626 
L 193.151531 86.73504 
L 196.90949 91.482062 
L 200.667449 94.838562 
L 204.425408 90.598863 
L 208.183367 85.867608 
L 211.941327 92.990061 
L 215.699286 93.476799 
L 219.457245 93.339661 
L 223.215204 93.448565 
L 226.973163 92.487851 
L 230.731122 93.989144 
L 234.489082 90.831886 
L 238.247041 96.050372 
" style="fill:none;stroke:#ff0000;stroke-dasharray:3.7,1.6;stroke-dashoffset:0;"/>
   </g>
   <g id="patch_3">
    <path d="M 57.865 102.790739 
L 57.865 41.018011 
" style="fill:none;stroke:#000000;stroke-linecap:square;stroke-linejoin:miter;stroke-width:0.5;"/>
   </g>
   <g id="patch_4">
    <path d="M 242.005 102.790739 
L 242.005 41.018011 
" style="fill:none;stroke:#000000;stroke-linecap:square;stroke-linejoin:miter;stroke-width:0.5;"/>
   </g>
   <g id="patch_5">
    <path d="M 57.865 102.790739 
L 242.005 102.790739 
" style="fill:none;stroke:#000000;stroke-linecap:square;stroke-linejoin:miter;stroke-width:0.5;"/>
   </g>
   <g id="patch_6">
    <path d="M 57.865 41.018011 
L 242.005 41.018011 
" style="fill:none;stroke:#000000;stroke-linecap:square;stroke-linejoin:miter;stroke-width:0.5;"/>
   </g>
   <g id="legend_1">
    <g id="line2d_29">
     <path d="M 79.814375 45.115739 
L 119.814375 45.115739 
" style="fill:none;stroke:#0000ff;stroke-linecap:square;"/>
    </g>
    <g id="line2d_30"/>
    <g id="text_4">
     <!-- Training -->
     <defs>
      <path d="M 15.140625 0 
L 15.140625 3.5625 
L 25.53125 4.890625 
L 25.53125 60.296875 
L 23.046875 60.296875 
Q 16.65625 60.296875 12.890625 60 
Q 9.125 59.71875 7.328125 59.328125 
L 6 47.171875 
L 1.5625 47.171875 
L 1.5625 65.484375 
L 65.1875 65.484375 
L 65.1875 47.171875 
L 60.6875 47.171875 
L 59.375 59.328125 
Q 57.5625 59.71875 53.34375 59.953125 
Q 49.125 60.203125 43.359375 60.203125 
L 40.96875 60.203125 
L 40.96875 4.890625 
L 51.375 3.5625 
L 51.375 0 
z
" id="LiberationSerif-Bold-84"/>
      <path d="M 22.515625 36.375 
Q 23.78125 37.796875 25.65625 39.703125 
Q 27.546875 41.609375 29.765625 43.3125 
Q 31.984375 45.015625 34.5 46.1875 
Q 37.015625 47.359375 39.59375 47.359375 
L 42.234375 47.359375 
L 42.234375 30.609375 
L 39.5 30.609375 
L 36.625 36.765625 
Q 35.015625 36.765625 33.109375 36.375 
Q 31.203125 35.984375 29.34375 35.328125 
Q 27.484375 34.671875 25.75 33.859375 
Q 24.03125 33.0625 22.75 32.28125 
L 22.75 4.390625 
L 30.125 3.21875 
L 30.125 0 
L 2.6875 0 
L 2.6875 3.21875 
L 8.640625 4.390625 
L 8.640625 41.5 
L 2.6875 42.671875 
L 2.6875 45.90625 
L 21.96875 45.90625 
z
" id="LiberationSerif-Bold-114"/>
      <path d="M 26.65625 46.921875 
Q 30.421875 46.921875 33.59375 46.28125 
Q 36.765625 45.65625 39.0625 44.15625 
Q 41.359375 42.671875 42.625 40.234375 
Q 43.890625 37.796875 43.890625 34.234375 
L 43.890625 4.390625 
L 48.484375 3.21875 
L 48.484375 0 
L 31.59375 0 
L 30.515625 3.515625 
Q 29.59375 2.875 28.34375 2.09375 
Q 27.09375 1.3125 25.484375 0.625 
Q 23.875 -0.046875 21.875 -0.515625 
Q 19.875 -0.984375 17.4375 -0.984375 
Q 13.421875 -0.984375 10.71875 0.046875 
Q 8.015625 1.078125 6.34375 2.90625 
Q 4.6875 4.734375 3.953125 7.25 
Q 3.21875 9.765625 3.21875 12.703125 
Q 3.21875 17.4375 4.875 20.265625 
Q 6.546875 23.09375 9.34375 24.625 
Q 12.15625 26.171875 15.890625 26.65625 
Q 19.625 27.15625 23.828125 27.25 
L 29.78125 27.390625 
L 29.78125 34.078125 
Q 29.78125 38.140625 28.125 40.265625 
Q 26.46875 42.390625 23 42.390625 
Q 20.3125 42.390625 18.09375 41.625 
Q 15.875 40.875 13.8125 39.84375 
L 11.96875 34.125 
L 8.734375 34.125 
L 8.734375 45.21875 
Q 10.984375 45.5625 13.015625 45.84375 
Q 15.046875 46.140625 17.140625 46.375 
Q 19.234375 46.625 21.546875 46.765625 
Q 23.875 46.921875 26.65625 46.921875 
z
M 29.78125 23.046875 
L 25.6875 22.90625 
Q 23.53125 22.796875 21.96875 22.3125 
Q 20.40625 21.828125 19.359375 20.671875 
Q 18.3125 19.53125 17.796875 17.671875 
Q 17.28125 15.828125 17.28125 12.984375 
Q 17.28125 8.84375 18.75 6.890625 
Q 20.21875 4.9375 22.5625 4.9375 
Q 24.90625 4.9375 26.5625 5.4375 
Q 28.21875 5.953125 29.78125 6.640625 
z
" id="LiberationSerif-Bold-97"/>
      <path d="M 21.296875 4.390625 
L 26.3125 3.21875 
L 26.3125 0 
L 2.203125 0 
L 2.203125 3.21875 
L 7.171875 4.390625 
L 7.171875 41.5 
L 2.484375 42.671875 
L 2.484375 45.90625 
L 21.296875 45.90625 
z
M 6.6875 61.921875 
Q 6.6875 63.484375 7.265625 64.84375 
Q 7.859375 66.21875 8.875 67.21875 
Q 9.90625 68.21875 11.265625 68.796875 
Q 12.640625 69.390625 14.203125 69.390625 
Q 15.765625 69.390625 17.125 68.796875 
Q 18.5 68.21875 19.5 67.21875 
Q 20.515625 66.21875 21.09375 64.84375 
Q 21.6875 63.484375 21.6875 61.921875 
Q 21.6875 60.359375 21.09375 58.984375 
Q 20.515625 57.625 19.5 56.59375 
Q 18.5 55.5625 17.125 54.96875 
Q 15.765625 54.390625 14.203125 54.390625 
Q 12.640625 54.390625 11.265625 54.96875 
Q 9.90625 55.5625 8.875 56.59375 
Q 7.859375 57.625 7.265625 58.984375 
Q 6.6875 60.359375 6.6875 61.921875 
z
" id="LiberationSerif-Bold-105"/>
      <path d="M 21.1875 41.890625 
Q 22.703125 42.671875 24.5 43.59375 
Q 26.3125 44.53125 28.3125 45.3125 
Q 30.328125 46.09375 32.46875 46.609375 
Q 34.625 47.125 36.8125 47.125 
Q 39.59375 47.125 41.9375 46.390625 
Q 44.28125 45.65625 45.96875 44.046875 
Q 47.65625 42.4375 48.578125 39.84375 
Q 49.515625 37.25 49.515625 33.59375 
L 49.515625 4.390625 
L 54.109375 3.21875 
L 54.109375 0 
L 31.296875 0 
L 31.296875 3.21875 
L 35.40625 4.390625 
L 35.40625 31.6875 
Q 35.40625 35.796875 33.671875 38.078125 
Q 31.9375 40.375 28.71875 40.375 
Q 25 40.375 21.296875 38.71875 
L 21.296875 4.390625 
L 25.484375 3.21875 
L 25.484375 0 
L 2.6875 0 
L 2.6875 3.21875 
L 7.171875 4.390625 
L 7.171875 41.5 
L 2.6875 42.671875 
L 2.6875 45.90625 
L 20.515625 45.90625 
z
" id="LiberationSerif-Bold-110"/>
      <path d="M 12.546875 16.9375 
Q 3.859375 20.609375 3.859375 31.25 
Q 3.859375 35.15625 5.25 38.109375 
Q 6.640625 41.0625 9.28125 43.0625 
Q 11.921875 45.0625 15.75 46.09375 
Q 19.578125 47.125 24.421875 47.125 
Q 25.984375 47.125 27.59375 46.96875 
Q 29.203125 46.828125 30.59375 46.65625 
Q 31.984375 46.484375 33.046875 46.265625 
Q 34.125 46.046875 34.625 45.90625 
L 45.609375 51.3125 
L 47.3125 49.21875 
L 41.75 41.3125 
Q 43.265625 39.453125 44.015625 36.859375 
Q 44.78125 34.28125 44.78125 31.25 
Q 44.78125 27.296875 43.40625 24.296875 
Q 42.046875 21.296875 39.421875 19.234375 
Q 36.8125 17.1875 32.984375 16.15625 
Q 29.15625 15.140625 24.21875 15.140625 
Q 22.265625 15.140625 20.265625 15.3125 
Q 18.265625 15.484375 16.75 15.71875 
L 15.578125 12.015625 
Q 15.625 11.28125 16.109375 10.59375 
Q 16.609375 9.90625 17.390625 9.34375 
Q 18.171875 8.796875 19.234375 8.453125 
Q 20.3125 8.109375 21.578125 8.109375 
L 32.28125 8.109375 
Q 40.328125 8.109375 44.671875 4.984375 
Q 49.03125 1.859375 49.03125 -4.78125 
Q 49.03125 -7.8125 47.828125 -10.890625 
Q 46.625 -13.96875 43.6875 -16.453125 
Q 40.765625 -18.953125 35.859375 -20.515625 
Q 30.953125 -22.078125 23.53125 -22.078125 
Q 17.96875 -22.078125 14.015625 -21.21875 
Q 10.0625 -20.359375 7.546875 -18.890625 
Q 5.03125 -17.4375 3.828125 -15.484375 
Q 2.640625 -13.53125 2.640625 -11.375 
Q 2.640625 -9.96875 3.296875 -8.734375 
Q 3.953125 -7.515625 5.125 -6.390625 
Q 6.296875 -5.28125 7.875 -4.21875 
Q 9.46875 -3.171875 11.328125 -2.09375 
Q 10.453125 -1.765625 9.25 -0.953125 
Q 8.0625 -0.140625 6.984375 1.09375 
Q 5.90625 2.34375 5.140625 4 
Q 4.390625 5.671875 4.390625 7.671875 
z
M 38.328125 -8.109375 
Q 38.328125 -5.8125 36.71875 -4.640625 
Q 35.109375 -3.46875 32.125 -3.46875 
L 16.65625 -3.46875 
Q 14.65625 -4.9375 13.5 -6.734375 
Q 12.359375 -8.546875 12.359375 -10.546875 
Q 12.359375 -11.671875 12.84375 -12.796875 
Q 13.328125 -13.921875 14.59375 -14.796875 
Q 15.875 -15.671875 18.046875 -16.234375 
Q 20.21875 -16.796875 23.578125 -16.796875 
Q 27.4375 -16.796875 30.21875 -16.140625 
Q 33.015625 -15.484375 34.8125 -14.3125 
Q 36.625 -13.140625 37.46875 -11.546875 
Q 38.328125 -9.96875 38.328125 -8.109375 
z
M 24.125 20.015625 
Q 27.734375 20.015625 29.34375 22.828125 
Q 30.953125 25.640625 30.953125 31.25 
Q 30.953125 36.859375 29.359375 39.515625 
Q 27.78125 42.1875 24.125 42.1875 
Q 20.75 42.1875 19.203125 39.515625 
Q 17.671875 36.859375 17.671875 31.25 
Q 17.671875 25.640625 19.1875 22.828125 
Q 20.703125 20.015625 24.125 20.015625 
z
" id="LiberationSerif-Bold-103"/>
     </defs>
     <g transform="translate(135.814375 52.115739)scale(0.2 -0.2)">
      <use xlink:href="#LiberationSerif-Bold-84"/>
      <use x="59.324219" xlink:href="#LiberationSerif-Bold-114"/>
      <use x="103.708984" xlink:href="#LiberationSerif-Bold-97"/>
      <use x="153.708984" xlink:href="#LiberationSerif-Bold-105"/>
      <use x="181.492188" xlink:href="#LiberationSerif-Bold-110"/>
      <use x="237.107422" xlink:href="#LiberationSerif-Bold-105"/>
      <use x="264.890625" xlink:href="#LiberationSerif-Bold-110"/>
      <use x="320.505859" xlink:href="#LiberationSerif-Bold-103"/>
     </g>
    </g>
    <g id="line2d_31">
     <path d="M 79.814375 73.531364 
L 119.814375 73.531364 
" style="fill:none;stroke:#ff0000;stroke-dasharray:3.7,1.6;stroke-dashoffset:0;"/>
    </g>
    <g id="line2d_32"/>
    <g id="text_5">
     <!-- Validation -->
     <defs>
      <path d="M 71.09375 65.484375 
L 71.09375 61.921875 
L 64.890625 60.59375 
L 39.59375 -1.515625 
L 33.109375 -1.515625 
L 6.5 60.59375 
L 1.125 61.921875 
L 1.125 65.484375 
L 29.59375 65.484375 
L 29.59375 61.921875 
L 22.796875 60.59375 
L 41.21875 17.671875 
L 58.40625 60.59375 
L 51.8125 61.921875 
L 51.8125 65.484375 
z
" id="LiberationSerif-Bold-86"/>
      <path d="M 21.046875 4.390625 
L 26.078125 3.21875 
L 26.078125 0 
L 1.953125 0 
L 1.953125 3.21875 
L 6.9375 4.390625 
L 6.9375 64.984375 
L 2.25 66.15625 
L 2.25 69.390625 
L 21.046875 69.390625 
z
" id="LiberationSerif-Bold-108"/>
      <path d="M 35.796875 2.59375 
Q 34.671875 1.859375 33.5625 1.1875 
Q 32.46875 0.53125 31.125 0.0625 
Q 29.78125 -0.390625 28.09375 -0.6875 
Q 26.421875 -0.984375 24.171875 -0.984375 
Q 14.015625 -0.984375 9.03125 4.84375 
Q 4.046875 10.6875 4.046875 22.796875 
Q 4.046875 28.375 5.265625 32.859375 
Q 6.5 37.359375 9.0625 40.53125 
Q 11.625 43.703125 15.546875 45.40625 
Q 19.484375 47.125 24.90625 47.125 
Q 30.21875 47.125 35.640625 45.796875 
Q 35.546875 46.34375 35.5 47.3125 
Q 35.453125 48.296875 35.421875 49.390625 
Q 35.40625 50.484375 35.375 51.5625 
Q 35.359375 52.640625 35.359375 53.375 
L 35.359375 64.984375 
L 30.671875 66.15625 
L 30.671875 69.390625 
L 49.46875 69.390625 
L 49.46875 4.390625 
L 54.5 3.21875 
L 54.5 0 
L 36.8125 0 
z
M 18.359375 23.1875 
Q 18.359375 17.828125 19.09375 14.234375 
Q 19.828125 10.640625 21.0625 8.46875 
Q 22.3125 6.296875 23.921875 5.359375 
Q 25.53125 4.4375 27.25 4.4375 
Q 29.734375 4.4375 31.609375 5.015625 
Q 33.5 5.609375 35.359375 6.546875 
L 35.359375 41.109375 
Q 33.34375 41.65625 31.578125 41.890625 
Q 29.828125 42.140625 27.640625 42.140625 
Q 23.25 42.140625 20.796875 37.328125 
Q 18.359375 32.515625 18.359375 23.1875 
z
" id="LiberationSerif-Bold-100"/>
      <path d="M 21.390625 -0.984375 
Q 17.71875 -0.984375 15.109375 -0.09375 
Q 12.5 0.78125 10.84375 2.3125 
Q 9.1875 3.859375 8.40625 5.984375 
Q 7.625 8.109375 7.625 10.59375 
L 7.625 40.828125 
L 1.609375 40.828125 
L 1.609375 44 
L 8.6875 45.90625 
L 14.40625 56.296875 
L 21.734375 56.296875 
L 21.734375 45.90625 
L 31.390625 45.90625 
L 31.390625 40.828125 
L 21.734375 40.828125 
L 21.734375 11.46875 
Q 21.734375 8.296875 23.046875 6.6875 
Q 24.359375 5.078125 26.515625 5.078125 
Q 28.171875 5.078125 29.8125 5.3125 
Q 31.453125 5.5625 32.859375 5.859375 
L 32.859375 1.703125 
Q 32.171875 1.21875 30.859375 0.734375 
Q 29.546875 0.25 27.953125 -0.109375 
Q 26.375 -0.484375 24.640625 -0.734375 
Q 22.90625 -0.984375 21.390625 -0.984375 
z
" id="LiberationSerif-Bold-116"/>
      <path d="M 46.1875 23.1875 
Q 46.1875 17.328125 44.984375 12.828125 
Q 43.796875 8.34375 41.203125 5.265625 
Q 38.625 2.203125 34.546875 0.609375 
Q 30.46875 -0.984375 24.703125 -0.984375 
Q 19.28125 -0.984375 15.328125 0.578125 
Q 11.375 2.15625 8.8125 5.21875 
Q 6.25 8.296875 5.03125 12.8125 
Q 3.8125 17.328125 3.8125 23.1875 
Q 3.8125 29 5.03125 33.46875 
Q 6.25 37.9375 8.828125 40.96875 
Q 11.421875 44 15.453125 45.5625 
Q 19.484375 47.125 25.09375 47.125 
Q 35.984375 47.125 41.078125 41.046875 
Q 46.1875 34.96875 46.1875 23.1875 
z
M 31.890625 23.1875 
Q 31.890625 27.9375 31.59375 31.5 
Q 31.296875 35.0625 30.515625 37.453125 
Q 29.734375 39.84375 28.359375 41.015625 
Q 27 42.1875 24.8125 42.1875 
Q 22.65625 42.1875 21.328125 41.015625 
Q 20.015625 39.84375 19.3125 37.453125 
Q 18.609375 35.0625 18.359375 31.5 
Q 18.109375 27.9375 18.109375 23.1875 
Q 18.109375 18.40625 18.359375 14.8125 
Q 18.609375 11.234375 19.3125 8.78125 
Q 20.015625 6.34375 21.328125 5.125 
Q 22.65625 3.90625 24.8125 3.90625 
Q 27 3.90625 28.359375 5.125 
Q 29.734375 6.34375 30.515625 8.78125 
Q 31.296875 11.234375 31.59375 14.8125 
Q 31.890625 18.40625 31.890625 23.1875 
z
" id="LiberationSerif-Bold-111"/>
     </defs>
     <g transform="translate(135.814375 80.531364)scale(0.2 -0.2)">
      <use xlink:href="#LiberationSerif-Bold-86"/>
      <use x="63.091797" xlink:href="#LiberationSerif-Bold-97"/>
      <use x="113.091797" xlink:href="#LiberationSerif-Bold-108"/>
      <use x="140.875" xlink:href="#LiberationSerif-Bold-105"/>
      <use x="168.658203" xlink:href="#LiberationSerif-Bold-100"/>
      <use x="224.273438" xlink:href="#LiberationSerif-Bold-97"/>
      <use x="274.273438" xlink:href="#LiberationSerif-Bold-116"/>
      <use x="307.574219" xlink:href="#LiberationSerif-Bold-105"/>
      <use x="335.357422" xlink:href="#LiberationSerif-Bold-111"/>
      <use x="385.357422" xlink:href="#LiberationSerif-Bold-110"/>
     </g>
    </g>
   </g>
  </g>
  <g id="axes_2">
   <g id="patch_7">
    <path d="M 57.865 176.918011 
L 242.005 176.918011 
L 242.005 115.145284 
L 57.865 115.145284 
z
" style="fill:none;"/>
   </g>
   <g id="matplotlib.axis_3">
    <g id="xtick_11">
     <g id="line2d_33">
      <g>
       <use style="stroke:#000000;stroke-width:0.5;" x="129.266224" xlink:href="#m87531d18ef" y="176.918011"/>
      </g>
     </g>
     <g id="line2d_34">
      <g>
       <use style="stroke:#000000;stroke-width:0.5;" x="129.266224" xlink:href="#mf8ef955c03" y="115.145284"/>
      </g>
     </g>
     <g id="text_6">
      <!-- 20 -->
      <defs>
       <path d="M 45.703125 0 
L 4.203125 0 
L 4.203125 9.234375 
Q 8.40625 13.71875 11.96875 17.25 
Q 15.53125 20.796875 18.4375 23.84375 
Q 21.34375 26.90625 23.578125 29.65625 
Q 25.828125 32.421875 27.3125 35.375 
Q 28.8125 38.328125 29.59375 41.6875 
Q 30.375 45.0625 30.375 49.359375 
Q 30.375 52.34375 29.59375 54.5625 
Q 28.8125 56.78125 27.515625 58.265625 
Q 26.21875 59.765625 24.5 60.5 
Q 22.796875 61.234375 20.90625 61.234375 
Q 17.875 61.234375 16.0625 60.59375 
Q 14.265625 59.96875 12.75 58.6875 
L 10.640625 49.21875 
L 6.390625 49.21875 
L 6.390625 64.109375 
Q 10.296875 64.984375 14.03125 65.59375 
Q 17.78125 66.21875 22.171875 66.21875 
Q 32.953125 66.21875 38.6875 61.765625 
Q 44.4375 57.328125 44.4375 49.125 
Q 44.4375 45.21875 43.5 42.0625 
Q 42.578125 38.921875 40.796875 36.125 
Q 39.015625 33.34375 36.375 30.703125 
Q 33.734375 28.078125 30.296875 25.140625 
Q 26.859375 22.21875 22.65625 18.796875 
Q 18.453125 15.375 13.578125 11.03125 
L 45.703125 11.03125 
z
" id="LiberationSerif-Bold-50"/>
      </defs>
      <g transform="translate(119.266224 194.296136)scale(0.2 -0.2)">
       <use xlink:href="#LiberationSerif-Bold-50"/>
       <use x="50" xlink:href="#LiberationSerif-Bold-48"/>
      </g>
     </g>
    </g>
    <g id="xtick_12">
     <g id="line2d_35">
      <g>
       <use style="stroke:#000000;stroke-width:0.5;" x="204.425408" xlink:href="#m87531d18ef" y="176.918011"/>
      </g>
     </g>
     <g id="line2d_36">
      <g>
       <use style="stroke:#000000;stroke-width:0.5;" x="204.425408" xlink:href="#mf8ef955c03" y="115.145284"/>
      </g>
     </g>
     <g id="text_7">
      <!-- 40 -->
      <defs>
       <path d="M 41.609375 12.9375 
L 41.609375 0 
L 28.46875 0 
L 28.46875 12.9375 
L 1.375 12.9375 
L 1.375 20.90625 
L 30.859375 65.828125 
L 41.609375 65.828125 
L 41.609375 22.953125 
L 48.140625 22.953125 
L 48.140625 12.9375 
z
M 28.46875 42.328125 
Q 28.46875 43.609375 28.515625 45.015625 
Q 28.5625 46.4375 28.640625 47.828125 
Q 28.71875 49.21875 28.78125 50.453125 
Q 28.859375 51.703125 28.953125 52.6875 
L 9.46875 22.953125 
L 28.46875 22.953125 
z
" id="LiberationSerif-Bold-52"/>
      </defs>
      <g transform="translate(194.425408 194.296136)scale(0.2 -0.2)">
       <use xlink:href="#LiberationSerif-Bold-52"/>
       <use x="50" xlink:href="#LiberationSerif-Bold-48"/>
      </g>
     </g>
    </g>
    <g id="xtick_13">
     <g id="line2d_37">
      <g>
       <use style="stroke:#000000;stroke-width:0.5;" x="72.896837" xlink:href="#m864c07cb12" y="176.918011"/>
      </g>
     </g>
     <g id="line2d_38">
      <g>
       <use style="stroke:#000000;stroke-width:0.5;" x="72.896837" xlink:href="#mcbd9ba17a2" y="115.145284"/>
      </g>
     </g>
    </g>
    <g id="xtick_14">
     <g id="line2d_39">
      <g>
       <use style="stroke:#000000;stroke-width:0.5;" x="91.686633" xlink:href="#m864c07cb12" y="176.918011"/>
      </g>
     </g>
     <g id="line2d_40">
      <g>
       <use style="stroke:#000000;stroke-width:0.5;" x="91.686633" xlink:href="#mcbd9ba17a2" y="115.145284"/>
      </g>
     </g>
    </g>
    <g id="xtick_15">
     <g id="line2d_41">
      <g>
       <use style="stroke:#000000;stroke-width:0.5;" x="110.476429" xlink:href="#m864c07cb12" y="176.918011"/>
      </g>
     </g>
     <g id="line2d_42">
      <g>
       <use style="stroke:#000000;stroke-width:0.5;" x="110.476429" xlink:href="#mcbd9ba17a2" y="115.145284"/>
      </g>
     </g>
    </g>
    <g id="xtick_16">
     <g id="line2d_43">
      <g>
       <use style="stroke:#000000;stroke-width:0.5;" x="148.05602" xlink:href="#m864c07cb12" y="176.918011"/>
      </g>
     </g>
     <g id="line2d_44">
      <g>
       <use style="stroke:#000000;stroke-width:0.5;" x="148.05602" xlink:href="#mcbd9ba17a2" y="115.145284"/>
      </g>
     </g>
    </g>
    <g id="xtick_17">
     <g id="line2d_45">
      <g>
       <use style="stroke:#000000;stroke-width:0.5;" x="166.845816" xlink:href="#m864c07cb12" y="176.918011"/>
      </g>
     </g>
     <g id="line2d_46">
      <g>
       <use style="stroke:#000000;stroke-width:0.5;" x="166.845816" xlink:href="#mcbd9ba17a2" y="115.145284"/>
      </g>
     </g>
    </g>
    <g id="xtick_18">
     <g id="line2d_47">
      <g>
       <use style="stroke:#000000;stroke-width:0.5;" x="185.635612" xlink:href="#m864c07cb12" y="176.918011"/>
      </g>
     </g>
     <g id="line2d_48">
      <g>
       <use style="stroke:#000000;stroke-width:0.5;" x="185.635612" xlink:href="#mcbd9ba17a2" y="115.145284"/>
      </g>
     </g>
    </g>
    <g id="xtick_19">
     <g id="line2d_49">
      <g>
       <use style="stroke:#000000;stroke-width:0.5;" x="223.215204" xlink:href="#m864c07cb12" y="176.918011"/>
      </g>
     </g>
     <g id="line2d_50">
      <g>
       <use style="stroke:#000000;stroke-width:0.5;" x="223.215204" xlink:href="#mcbd9ba17a2" y="115.145284"/>
      </g>
     </g>
    </g>
    <g id="xtick_20">
     <g id="line2d_51">
      <g>
       <use style="stroke:#000000;stroke-width:0.5;" x="242.005" xlink:href="#m864c07cb12" y="176.918011"/>
      </g>
     </g>
     <g id="line2d_52">
      <g>
       <use style="stroke:#000000;stroke-width:0.5;" x="242.005" xlink:href="#mcbd9ba17a2" y="115.145284"/>
      </g>
     </g>
    </g>
    <g id="text_8">
     <!-- Epochs -->
     <defs>
      <path d="M 2.875 2.59375 
L 11.28125 3.90625 
L 11.28125 61.625 
L 2.875 62.890625 
L 2.875 65.484375 
L 52 65.484375 
L 52 49.8125 
L 48.78125 49.8125 
L 47.21875 60.40625 
Q 45.65625 60.59375 43.4375 60.734375 
Q 41.21875 60.890625 38.921875 60.953125 
Q 36.625 61.03125 34.5625 61.046875 
Q 32.515625 61.078125 31.390625 61.078125 
L 20.703125 61.078125 
L 20.703125 35.5 
L 38.375 35.5 
L 39.890625 43.3125 
L 43.015625 43.3125 
L 43.015625 23.1875 
L 39.890625 23.1875 
L 38.375 31.109375 
L 20.703125 31.109375 
L 20.703125 4.390625 
L 33.59375 4.390625 
Q 36.625 4.390625 39.3125 4.46875 
Q 42 4.546875 44.140625 4.640625 
Q 46.296875 4.734375 47.828125 4.875 
Q 49.359375 5.03125 50.09375 5.171875 
L 52.875 17.28125 
L 56.109375 17.28125 
L 55.171875 0 
L 2.875 0 
z
" id="LiberationSerif-69"/>
      <path d="M 7.421875 42.484375 
L 2.203125 43.703125 
L 2.203125 45.90625 
L 15.09375 45.90625 
L 15.1875 43.21875 
Q 16.21875 44.09375 17.609375 44.796875 
Q 19 45.515625 20.609375 46.015625 
Q 22.21875 46.53125 24.015625 46.828125 
Q 25.828125 47.125 27.6875 47.125 
Q 31.984375 47.125 35.390625 45.609375 
Q 38.8125 44.09375 41.203125 41.09375 
Q 43.609375 38.09375 44.84375 33.671875 
Q 46.09375 29.25 46.09375 23.484375 
Q 46.09375 17.875 44.828125 13.359375 
Q 43.5625 8.84375 41.015625 5.640625 
Q 38.484375 2.4375 34.640625 0.71875 
Q 30.8125 -0.984375 25.6875 -0.984375 
Q 23.1875 -0.984375 20.421875 -0.703125 
Q 17.671875 -0.4375 15.1875 0.09375 
Q 15.234375 -0.484375 15.296875 -1.234375 
Q 15.375 -2 15.40625 -2.796875 
Q 15.4375 -3.609375 15.453125 -4.296875 
Q 15.484375 -4.984375 15.484375 -5.421875 
L 15.484375 -17.828125 
L 23.484375 -19 
L 23.484375 -21.296875 
L 1.609375 -21.296875 
L 1.609375 -19 
L 7.421875 -17.828125 
z
M 37.3125 23.484375 
Q 37.3125 28.46875 36.46875 31.984375 
Q 35.640625 35.5 34.046875 37.71875 
Q 32.46875 39.9375 30.171875 40.96875 
Q 27.875 42 25 42 
Q 22.65625 42 19.984375 41.578125 
Q 17.328125 41.15625 15.484375 40.375 
L 15.484375 3.71875 
Q 17.53125 3.328125 20.015625 3.09375 
Q 22.515625 2.875 25 2.875 
Q 31.453125 2.875 34.375 8.21875 
Q 37.3125 13.578125 37.3125 23.484375 
z
" id="LiberationSerif-112"/>
      <path d="M 41.3125 2.78125 
Q 40.046875 1.859375 38.28125 1.140625 
Q 36.53125 0.4375 34.515625 -0.015625 
Q 32.515625 -0.484375 30.34375 -0.734375 
Q 28.171875 -0.984375 26.125 -0.984375 
Q 20.171875 -0.984375 15.9375 0.65625 
Q 11.71875 2.296875 9.03125 5.421875 
Q 6.34375 8.546875 5.078125 13.0625 
Q 3.8125 17.578125 3.8125 23.296875 
Q 3.8125 29.546875 5.4375 34.0625 
Q 7.078125 38.578125 10 41.484375 
Q 12.9375 44.390625 16.96875 45.75 
Q 21 47.125 25.78125 47.125 
Q 29.734375 47.125 33.4375 46.65625 
Q 37.15625 46.1875 40.1875 45.609375 
L 40.1875 32.8125 
L 37.5 32.8125 
L 35.40625 40.921875 
Q 33.59375 41.9375 31.03125 42.578125 
Q 28.46875 43.21875 25.6875 43.21875 
Q 22.515625 43.21875 20.09375 42.0625 
Q 17.671875 40.921875 15.984375 38.46875 
Q 14.3125 36.03125 13.453125 32.265625 
Q 12.59375 28.515625 12.59375 23.296875 
Q 12.59375 18.890625 13.328125 15.34375 
Q 14.0625 11.8125 15.921875 9.328125 
Q 17.78125 6.84375 20.921875 5.46875 
Q 24.078125 4.109375 28.90625 4.109375 
Q 30.5625 4.109375 32.296875 4.21875 
Q 34.03125 4.34375 35.671875 4.5625 
Q 37.3125 4.78125 38.75 5.078125 
Q 40.1875 5.375 41.3125 5.71875 
z
" id="LiberationSerif-99"/>
      <path d="M 15.921875 49.515625 
Q 15.921875 48.828125 15.890625 47.84375 
Q 15.875 46.875 15.84375 45.828125 
Q 15.828125 44.78125 15.75 43.796875 
Q 15.671875 42.828125 15.578125 42.1875 
Q 16.9375 42.96875 18.890625 43.84375 
Q 20.84375 44.734375 22.96875 45.453125 
Q 25.09375 46.1875 27.21875 46.65625 
Q 29.34375 47.125 31.109375 47.125 
Q 33.734375 47.125 35.9375 46.390625 
Q 38.140625 45.65625 39.71875 44.046875 
Q 41.3125 42.4375 42.203125 39.84375 
Q 43.109375 37.25 43.109375 33.59375 
L 43.109375 3.421875 
L 48.6875 2.203125 
L 48.6875 0 
L 28.90625 0 
L 28.90625 2.203125 
L 35.015625 3.421875 
L 35.015625 33.015625 
Q 35.015625 37.0625 33.03125 39.234375 
Q 31.0625 41.40625 26.90625 41.40625 
Q 25.53125 41.40625 24 41.25 
Q 22.46875 41.109375 20.953125 40.90625 
Q 19.4375 40.71875 18.109375 40.453125 
Q 16.796875 40.1875 15.921875 39.984375 
L 15.921875 3.421875 
L 22.125 2.203125 
L 22.125 0 
L 2 0 
L 2 2.203125 
L 7.8125 3.421875 
L 7.8125 66.015625 
L 0.984375 67.1875 
L 0.984375 69.390625 
L 15.921875 69.390625 
z
" id="LiberationSerif-104"/>
     </defs>
     <g transform="translate(114.608125 219.209261)scale(0.24 -0.24)">
      <use xlink:href="#LiberationSerif-69"/>
      <use x="61.083984" xlink:href="#LiberationSerif-112"/>
      <use x="111.083984" xlink:href="#LiberationSerif-111"/>
      <use x="161.083984" xlink:href="#LiberationSerif-99"/>
      <use x="205.46875" xlink:href="#LiberationSerif-104"/>
      <use x="255.46875" xlink:href="#LiberationSerif-115"/>
     </g>
    </g>
   </g>
   <g id="matplotlib.axis_4">
    <g id="ytick_7">
     <g id="line2d_53">
      <g>
       <use style="stroke:#000000;stroke-width:0.5;" x="57.865" xlink:href="#m17821b7c6f" y="176.918011"/>
      </g>
     </g>
     <g id="line2d_54">
      <defs>
       <path d="M 0 0 
L -3 0 
" id="m53979ac634" style="stroke:#000000;stroke-width:0.5;"/>
      </defs>
      <g>
       <use style="stroke:#000000;stroke-width:0.5;" x="242.005" xlink:href="#m53979ac634" y="176.918011"/>
      </g>
     </g>
     <g id="text_9">
      <!-- 0.5 -->
      <defs>
       <path d="M 12.5 -1.421875 
Q 10.796875 -1.421875 9.328125 -0.78125 
Q 7.859375 -0.140625 6.765625 0.953125 
Q 5.671875 2.046875 5.03125 3.515625 
Q 4.390625 4.984375 4.390625 6.6875 
Q 4.390625 8.34375 5.03125 9.828125 
Q 5.671875 11.328125 6.765625 12.421875 
Q 7.859375 13.53125 9.328125 14.15625 
Q 10.796875 14.796875 12.5 14.796875 
Q 14.15625 14.796875 15.640625 14.15625 
Q 17.140625 13.53125 18.234375 12.421875 
Q 19.34375 11.328125 19.96875 9.828125 
Q 20.609375 8.34375 20.609375 6.6875 
Q 20.609375 4.984375 19.96875 3.515625 
Q 19.34375 2.046875 18.234375 0.953125 
Q 17.140625 -0.140625 15.640625 -0.78125 
Q 14.15625 -1.421875 12.5 -1.421875 
z
" id="LiberationSerif-Bold-46"/>
       <path d="M 23.4375 38.71875 
Q 29.046875 38.71875 33.3125 37.59375 
Q 37.59375 36.46875 40.46875 34.125 
Q 43.359375 31.78125 44.84375 28.140625 
Q 46.34375 24.515625 46.34375 19.484375 
Q 46.34375 14.84375 44.921875 11.078125 
Q 43.5 7.328125 40.5625 4.640625 
Q 37.640625 1.953125 33.171875 0.484375 
Q 28.71875 -0.984375 22.65625 -0.984375 
Q 17.671875 -0.984375 13.03125 -0.421875 
Q 8.40625 0.140625 4.59375 0.984375 
L 4 16.84375 
L 8.5 16.84375 
L 11.03125 6.34375 
Q 11.8125 5.90625 12.9375 5.46875 
Q 14.0625 5.03125 15.359375 4.703125 
Q 16.65625 4.390625 18.046875 4.171875 
Q 19.4375 3.953125 20.75 3.953125 
Q 23.828125 3.953125 25.953125 5.046875 
Q 28.078125 6.15625 29.421875 8.125 
Q 30.765625 10.109375 31.375 12.859375 
Q 31.984375 15.625 31.984375 19 
Q 31.984375 22.65625 31.34375 25.4375 
Q 30.71875 28.21875 29.296875 30.078125 
Q 27.875 31.9375 25.609375 32.859375 
Q 23.34375 33.796875 20.015625 33.796875 
Q 18.5625 33.796875 17.40625 33.625 
Q 16.265625 33.453125 15.359375 33.15625 
Q 14.453125 32.859375 13.671875 32.515625 
Q 12.890625 32.171875 12.15625 31.890625 
L 7.28125 31.890625 
L 7.28125 65.484375 
L 41.453125 65.484375 
L 41.453125 54.59375 
L 12.703125 54.59375 
L 12.703125 37.40625 
Q 13.578125 37.59375 14.59375 37.8125 
Q 15.625 38.03125 16.921875 38.21875 
Q 18.21875 38.421875 19.828125 38.5625 
Q 21.4375 38.71875 23.4375 38.71875 
z
" id="LiberationSerif-Bold-53"/>
      </defs>
      <g transform="translate(29.365 183.857074)scale(0.2 -0.2)">
       <use xlink:href="#LiberationSerif-Bold-48"/>
       <use x="50" xlink:href="#LiberationSerif-Bold-46"/>
       <use x="75" xlink:href="#LiberationSerif-Bold-53"/>
      </g>
     </g>
    </g>
    <g id="ytick_8">
     <g id="line2d_55">
      <g>
       <use style="stroke:#000000;stroke-width:0.5;" x="57.865" xlink:href="#m17821b7c6f" y="125.440739"/>
      </g>
     </g>
     <g id="line2d_56">
      <g>
       <use style="stroke:#000000;stroke-width:0.5;" x="242.005" xlink:href="#m53979ac634" y="125.440739"/>
      </g>
     </g>
     <g id="text_10">
      <!-- 1.0 -->
      <g transform="translate(29.365 132.379801)scale(0.2 -0.2)">
       <use xlink:href="#LiberationSerif-Bold-49"/>
       <use x="50" xlink:href="#LiberationSerif-Bold-46"/>
       <use x="75" xlink:href="#LiberationSerif-Bold-48"/>
      </g>
     </g>
    </g>
    <g id="ytick_9">
     <g id="line2d_57">
      <g>
       <use style="stroke:#000000;stroke-width:0.5;" x="57.865" xlink:href="#m3d0d9ad966" y="166.622557"/>
      </g>
     </g>
     <g id="line2d_58">
      <defs>
       <path d="M 0 0 
L -1.5 0 
" id="mf9d676baf4" style="stroke:#000000;stroke-width:0.5;"/>
      </defs>
      <g>
       <use style="stroke:#000000;stroke-width:0.5;" x="242.005" xlink:href="#mf9d676baf4" y="166.622557"/>
      </g>
     </g>
    </g>
    <g id="ytick_10">
     <g id="line2d_59">
      <g>
       <use style="stroke:#000000;stroke-width:0.5;" x="57.865" xlink:href="#m3d0d9ad966" y="156.327102"/>
      </g>
     </g>
     <g id="line2d_60">
      <g>
       <use style="stroke:#000000;stroke-width:0.5;" x="242.005" xlink:href="#mf9d676baf4" y="156.327102"/>
      </g>
     </g>
    </g>
    <g id="ytick_11">
     <g id="line2d_61">
      <g>
       <use style="stroke:#000000;stroke-width:0.5;" x="57.865" xlink:href="#m3d0d9ad966" y="146.031648"/>
      </g>
     </g>
     <g id="line2d_62">
      <g>
       <use style="stroke:#000000;stroke-width:0.5;" x="242.005" xlink:href="#mf9d676baf4" y="146.031648"/>
      </g>
     </g>
    </g>
    <g id="ytick_12">
     <g id="line2d_63">
      <g>
       <use style="stroke:#000000;stroke-width:0.5;" x="57.865" xlink:href="#m3d0d9ad966" y="135.736193"/>
      </g>
     </g>
     <g id="line2d_64">
      <g>
       <use style="stroke:#000000;stroke-width:0.5;" x="242.005" xlink:href="#mf9d676baf4" y="135.736193"/>
      </g>
     </g>
    </g>
    <g id="ytick_13">
     <g id="line2d_65">
      <g>
       <use style="stroke:#000000;stroke-width:0.5;" x="57.865" xlink:href="#m3d0d9ad966" y="115.145284"/>
      </g>
     </g>
     <g id="line2d_66">
      <g>
       <use style="stroke:#000000;stroke-width:0.5;" x="242.005" xlink:href="#mf9d676baf4" y="115.145284"/>
      </g>
     </g>
    </g>
    <g id="text_11">
     <!-- Accuracy -->
     <defs>
      <path d="M 22.515625 2.59375 
L 22.515625 0 
L 0.984375 0 
L 0.984375 2.59375 
L 8.40625 3.90625 
L 30.71875 66.015625 
L 39.984375 66.015625 
L 63.1875 3.90625 
L 71.484375 2.59375 
L 71.484375 0 
L 43.796875 0 
L 43.796875 2.59375 
L 52.59375 3.90625 
L 46.09375 22.796875 
L 20.3125 22.796875 
L 13.71875 3.90625 
z
M 33.015625 58.984375 
L 21.78125 27.203125 
L 44.578125 27.203125 
z
" id="LiberationSerif-65"/>
      <path d="M 15.28125 13.09375 
Q 15.28125 9.03125 17.109375 6.859375 
Q 18.953125 4.6875 23.09375 4.6875 
Q 25.828125 4.6875 28.75 5.046875 
Q 31.6875 5.421875 34.421875 6.203125 
L 34.421875 42.484375 
L 27.484375 43.703125 
L 27.484375 45.90625 
L 42.484375 45.90625 
L 42.484375 3.421875 
L 48.296875 2.203125 
L 48.296875 0 
L 34.90625 0 
L 34.515625 3.71875 
Q 33.109375 2.9375 31.15625 2.09375 
Q 29.203125 1.265625 27.078125 0.578125 
Q 24.953125 -0.09375 22.796875 -0.53125 
Q 20.65625 -0.984375 18.890625 -0.984375 
Q 16.265625 -0.984375 14.109375 -0.25 
Q 11.96875 0.484375 10.421875 2.09375 
Q 8.890625 3.71875 8.03125 6.28125 
Q 7.171875 8.84375 7.171875 12.5 
L 7.171875 42.484375 
L 1.3125 43.703125 
L 1.3125 45.90625 
L 15.28125 45.90625 
z
" id="LiberationSerif-117"/>
      <path d="M 32.421875 47.125 
L 32.421875 34.71875 
L 30.328125 34.71875 
L 27.484375 40.09375 
Q 26.125 40.09375 24.5625 39.890625 
Q 23 39.703125 21.4375 39.375 
Q 19.875 39.0625 18.4375 38.625 
Q 17 38.1875 15.921875 37.703125 
L 15.921875 3.421875 
L 23.78125 2.203125 
L 23.78125 0 
L 2 0 
L 2 2.203125 
L 7.8125 3.421875 
L 7.8125 42.484375 
L 2 43.703125 
L 2 45.90625 
L 15.375 45.90625 
L 15.828125 40.1875 
Q 16.9375 41.109375 18.890625 42.296875 
Q 20.84375 43.5 23.109375 44.578125 
Q 25.390625 45.65625 27.65625 46.390625 
Q 29.9375 47.125 31.6875 47.125 
z
" id="LiberationSerif-114"/>
      <path d="M 22.703125 46.921875 
Q 25.828125 46.921875 28.515625 46.328125 
Q 31.203125 45.75 33.15625 44.328125 
Q 35.109375 42.921875 36.203125 40.5 
Q 37.3125 38.09375 37.3125 34.421875 
L 37.3125 3.421875 
L 43.015625 2.203125 
L 43.015625 0 
L 30.421875 0 
L 29.5 4.59375 
Q 28.765625 3.859375 27.515625 2.875 
Q 26.265625 1.90625 24.5 1.046875 
Q 22.75 0.203125 20.421875 -0.390625 
Q 18.109375 -0.984375 15.28125 -0.984375 
Q 11.96875 -0.984375 9.6875 0.046875 
Q 7.421875 1.078125 6.046875 2.90625 
Q 4.6875 4.734375 4.09375 7.25 
Q 3.515625 9.765625 3.515625 12.703125 
Q 3.515625 15.71875 4.25 17.9375 
Q 4.984375 20.171875 6.296875 21.671875 
Q 7.625 23.1875 9.40625 24.140625 
Q 11.1875 25.09375 13.25 25.625 
Q 15.328125 26.171875 17.640625 26.359375 
Q 19.96875 26.5625 22.3125 26.609375 
L 29.203125 26.8125 
L 29.203125 33.984375 
Q 29.203125 36.03125 28.859375 37.71875 
Q 28.515625 39.40625 27.703125 40.625 
Q 26.90625 41.84375 25.53125 42.53125 
Q 24.171875 43.21875 22.125 43.21875 
Q 19.78125 43.21875 17.375 42.578125 
Q 14.984375 41.9375 13.1875 40.921875 
L 11.53125 35.203125 
L 8.796875 35.203125 
L 8.796875 45.21875 
Q 11.96875 45.90625 15.359375 46.40625 
Q 18.75 46.921875 22.703125 46.921875 
z
M 29.203125 23.390625 
L 22.796875 23.1875 
Q 19.921875 23.09375 17.8125 22.625 
Q 15.71875 22.171875 14.34375 21.046875 
Q 12.984375 19.921875 12.296875 17.96875 
Q 11.625 16.015625 11.625 12.984375 
Q 11.625 4.390625 18.609375 4.390625 
Q 21.921875 4.390625 24.34375 5.140625 
Q 26.765625 5.90625 29.203125 7.078125 
z
" id="LiberationSerif-97"/>
      <path d="M 44.828125 42.671875 
L 26.90625 -2.875 
Q 25.34375 -6.84375 23.734375 -10.25 
Q 22.125 -13.671875 20.140625 -16.1875 
Q 18.171875 -18.703125 15.625 -20.140625 
Q 13.09375 -21.578125 9.71875 -21.578125 
Q 8.453125 -21.578125 7.5 -21.53125 
Q 6.546875 -21.484375 5.71875 -21.359375 
Q 4.890625 -21.234375 4.046875 -21.09375 
Q 3.21875 -20.953125 2.203125 -20.703125 
L 2.203125 -10.796875 
L 4.5 -10.796875 
L 6.109375 -15.484375 
Q 7.625 -16.609375 10.296875 -16.609375 
Q 12.40625 -16.609375 14.109375 -15.671875 
Q 15.828125 -14.75 17.265625 -13.0625 
Q 18.703125 -11.375 19.875 -9.078125 
Q 21.046875 -6.78125 22.125 -4 
L 23.390625 -0.484375 
L 5.90625 42.484375 
L 1.21875 43.703125 
L 1.21875 45.90625 
L 22.515625 45.90625 
L 22.515625 43.703125 
L 15.28125 42.390625 
L 27.6875 10.296875 
L 39.703125 42.484375 
L 32.515625 43.703125 
L 32.515625 45.90625 
L 49.609375 45.90625 
L 49.609375 43.703125 
z
" id="LiberationSerif-121"/>
     </defs>
     <g transform="translate(20.18625 192.001023)rotate(-90)scale(0.24 -0.24)">
      <use xlink:href="#LiberationSerif-65"/>
      <use x="72.216797" xlink:href="#LiberationSerif-99"/>
      <use x="116.601562" xlink:href="#LiberationSerif-99"/>
      <use x="160.986328" xlink:href="#LiberationSerif-117"/>
      <use x="210.986328" xlink:href="#LiberationSerif-114"/>
      <use x="244.287109" xlink:href="#LiberationSerif-97"/>
      <use x="288.671875" xlink:href="#LiberationSerif-99"/>
      <use x="333.056641" xlink:href="#LiberationSerif-121"/>
     </g>
    </g>
   </g>
   <g id="line2d_67">
    <path clip-path="url(#p67a13ca981)" d="M 54.107041 159.222699 
L 57.865 156.005369 
L 61.622959 146.353381 
L 65.380918 141.527386 
L 69.138878 138.310057 
L 72.896837 141.527386 
L 76.654796 135.092727 
L 80.412755 143.136051 
L 84.170714 141.527386 
L 87.928673 135.092727 
L 91.686633 139.918722 
L 95.444592 133.484062 
L 99.202551 135.092727 
L 102.96051 135.092727 
L 106.718469 127.049403 
L 110.476429 130.266733 
L 114.234388 128.658068 
L 117.992347 138.310057 
L 121.750306 127.049403 
L 125.508265 127.049403 
L 129.266224 127.049403 
L 133.024184 125.440739 
L 136.782143 130.266733 
L 140.540102 130.266733 
L 144.298061 125.440739 
L 148.05602 130.266733 
L 151.81398 125.440739 
L 155.571939 125.440739 
L 159.329898 133.484062 
L 163.087857 128.658068 
L 166.845816 128.658068 
L 170.603776 125.440739 
L 174.361735 127.049403 
L 178.119694 125.440739 
L 181.877653 125.440739 
L 185.635612 130.266733 
L 189.393571 125.440739 
L 193.151531 125.440739 
L 196.90949 125.440739 
L 200.667449 128.658068 
L 204.425408 125.440739 
L 208.183367 128.658068 
L 211.941327 130.266733 
L 215.699286 125.440739 
L 219.457245 127.049403 
L 223.215204 127.049403 
L 226.973163 127.049403 
L 230.731122 130.266733 
L 234.489082 125.440739 
L 238.247041 135.092727 
" style="fill:none;stroke:#0000ff;stroke-linecap:square;"/>
   </g>
   <g id="line2d_68">
    <path clip-path="url(#p67a13ca981)" d="M 54.107041 157.614034 
L 57.865 172.092017 
L 61.622959 170.483352 
L 65.380918 164.048693 
L 69.138878 165.657358 
L 72.896837 165.657358 
L 76.654796 167.266023 
L 80.412755 172.092017 
L 84.170714 170.483352 
L 87.928673 164.048693 
L 91.686633 173.700682 
L 95.444592 159.222699 
L 99.202551 160.831364 
L 102.96051 164.048693 
L 106.718469 159.222699 
L 110.476429 151.179375 
L 114.234388 160.831364 
L 117.992347 160.831364 
L 121.750306 165.657358 
L 125.508265 162.440028 
L 129.266224 154.396705 
L 133.024184 151.179375 
L 136.782143 144.744716 
L 140.540102 147.962045 
L 144.298061 151.179375 
L 148.05602 144.744716 
L 151.81398 131.875398 
L 155.571939 144.744716 
L 159.329898 147.962045 
L 163.087857 141.527386 
L 166.845816 144.744716 
L 170.603776 147.962045 
L 174.361735 141.527386 
L 178.119694 141.527386 
L 181.877653 139.918722 
L 185.635612 133.484062 
L 189.393571 128.658068 
L 193.151531 138.310057 
L 196.90949 133.484062 
L 200.667449 130.266733 
L 204.425408 139.918722 
L 208.183367 144.744716 
L 211.941327 128.658068 
L 215.699286 131.875398 
L 219.457245 131.875398 
L 223.215204 131.875398 
L 226.973163 130.266733 
L 230.731122 128.658068 
L 234.489082 133.484062 
L 238.247041 131.875398 
" style="fill:none;stroke:#ff0000;stroke-dasharray:3.7,1.6;stroke-dashoffset:0;"/>
   </g>
   <g id="patch_8">
    <path d="M 57.865 176.918011 
L 57.865 115.145284 
" style="fill:none;stroke:#000000;stroke-linecap:square;stroke-linejoin:miter;stroke-width:0.5;"/>
   </g>
   <g id="patch_9">
    <path d="M 242.005 176.918011 
L 242.005 115.145284 
" style="fill:none;stroke:#000000;stroke-linecap:square;stroke-linejoin:miter;stroke-width:0.5;"/>
   </g>
   <g id="patch_10">
    <path d="M 57.865 176.918011 
L 242.005 176.918011 
" style="fill:none;stroke:#000000;stroke-linecap:square;stroke-linejoin:miter;stroke-width:0.5;"/>
   </g>
   <g id="patch_11">
    <path d="M 57.865 115.145284 
L 242.005 115.145284 
" style="fill:none;stroke:#000000;stroke-linecap:square;stroke-linejoin:miter;stroke-width:0.5;"/>
   </g>
   <g id="legend_2">
    <g id="line2d_69">
     <path d="M 77.839687 119.243011 
L 117.839687 119.243011 
" style="fill:none;stroke:#0000ff;stroke-linecap:square;"/>
    </g>
    <g id="line2d_70"/>
    <g id="text_12">
     <!-- Training -->
     <g transform="translate(133.839687 126.243011)scale(0.2 -0.2)">
      <use xlink:href="#LiberationSerif-Bold-84"/>
      <use x="59.324219" xlink:href="#LiberationSerif-Bold-114"/>
      <use x="103.708984" xlink:href="#LiberationSerif-Bold-97"/>
      <use x="153.708984" xlink:href="#LiberationSerif-Bold-105"/>
      <use x="181.492188" xlink:href="#LiberationSerif-Bold-110"/>
      <use x="237.107422" xlink:href="#LiberationSerif-Bold-105"/>
      <use x="264.890625" xlink:href="#LiberationSerif-Bold-110"/>
      <use x="320.505859" xlink:href="#LiberationSerif-Bold-103"/>
     </g>
    </g>
    <g id="line2d_71">
     <path d="M 77.839687 147.658636 
L 117.839687 147.658636 
" style="fill:none;stroke:#ff0000;stroke-dasharray:3.7,1.6;stroke-dashoffset:0;"/>
    </g>
    <g id="line2d_72"/>
    <g id="text_13">
     <!-- Validation -->
     <g transform="translate(133.839687 154.658636)scale(0.2 -0.2)">
      <use xlink:href="#LiberationSerif-Bold-86"/>
      <use x="63.091797" xlink:href="#LiberationSerif-Bold-97"/>
      <use x="113.091797" xlink:href="#LiberationSerif-Bold-108"/>
      <use x="140.875" xlink:href="#LiberationSerif-Bold-105"/>
      <use x="168.658203" xlink:href="#LiberationSerif-Bold-100"/>
      <use x="224.273438" xlink:href="#LiberationSerif-Bold-97"/>
      <use x="274.273438" xlink:href="#LiberationSerif-Bold-116"/>
      <use x="307.574219" xlink:href="#LiberationSerif-Bold-105"/>
      <use x="335.357422" xlink:href="#LiberationSerif-Bold-111"/>
      <use x="385.357422" xlink:href="#LiberationSerif-Bold-110"/>
     </g>
    </g>
   </g>
  </g>
  <g id="axes_3">
   <g id="matplotlib.axis_5">
    <g id="ytick_14">
     <g id="line2d_73">
      <g>
       <use style="stroke:#000000;stroke-width:0.5;" x="242.005" xlink:href="#m53979ac634" y="101.03063"/>
      </g>
     </g>
     <g id="text_14">
      <!-- 0.000 -->
      <g transform="translate(245.505 107.969692)scale(0.2 -0.2)">
       <use xlink:href="#LiberationSerif-Bold-48"/>
       <use x="50" xlink:href="#LiberationSerif-Bold-46"/>
       <use x="75" xlink:href="#LiberationSerif-Bold-48"/>
       <use x="125" xlink:href="#LiberationSerif-Bold-48"/>
       <use x="175" xlink:href="#LiberationSerif-Bold-48"/>
      </g>
     </g>
    </g>
    <g id="ytick_15">
     <g id="line2d_74">
      <g>
       <use style="stroke:#000000;stroke-width:0.5;" x="242.005" xlink:href="#m53979ac634" y="43.825865"/>
      </g>
     </g>
     <g id="text_15">
      <!-- 0.001 -->
      <g transform="translate(245.505 50.764928)scale(0.2 -0.2)">
       <use xlink:href="#LiberationSerif-Bold-48"/>
       <use x="50" xlink:href="#LiberationSerif-Bold-46"/>
       <use x="75" xlink:href="#LiberationSerif-Bold-48"/>
       <use x="125" xlink:href="#LiberationSerif-Bold-48"/>
       <use x="175" xlink:href="#LiberationSerif-Bold-49"/>
      </g>
     </g>
    </g>
    <g id="ytick_16">
     <g id="line2d_75">
      <g>
       <use style="stroke:#000000;stroke-width:0.5;" x="242.005" xlink:href="#mf9d676baf4" y="89.589677"/>
      </g>
     </g>
    </g>
    <g id="ytick_17">
     <g id="line2d_76">
      <g>
       <use style="stroke:#000000;stroke-width:0.5;" x="242.005" xlink:href="#mf9d676baf4" y="78.148724"/>
      </g>
     </g>
    </g>
    <g id="ytick_18">
     <g id="line2d_77">
      <g>
       <use style="stroke:#000000;stroke-width:0.5;" x="242.005" xlink:href="#mf9d676baf4" y="66.707771"/>
      </g>
     </g>
    </g>
    <g id="ytick_19">
     <g id="line2d_78">
      <g>
       <use style="stroke:#000000;stroke-width:0.5;" x="242.005" xlink:href="#mf9d676baf4" y="55.266818"/>
      </g>
     </g>
    </g>
    <g id="text_16">
     <!-- Learning Rate -->
     <defs>
      <path d="M 12.703125 23.09375 
L 12.703125 22.21875 
Q 12.703125 18.65625 13.203125 15.375 
Q 13.71875 12.109375 15.25 9.59375 
Q 16.796875 7.078125 19.578125 5.59375 
Q 22.359375 4.109375 26.90625 4.109375 
Q 28.375 4.109375 29.984375 4.21875 
Q 31.59375 4.34375 33.203125 4.53125 
Q 34.8125 4.734375 36.328125 4.96875 
Q 37.84375 5.21875 39.109375 5.515625 
L 39.109375 2.78125 
Q 37.984375 2.046875 36.390625 1.390625 
Q 34.8125 0.734375 32.90625 0.1875 
Q 31 -0.34375 28.84375 -0.65625 
Q 26.703125 -0.984375 24.515625 -0.984375 
Q 18.796875 -0.984375 14.859375 0.578125 
Q 10.9375 2.15625 8.5 5.21875 
Q 6.0625 8.296875 4.984375 12.84375 
Q 3.90625 17.390625 3.90625 23.296875 
Q 3.90625 35.296875 8.9375 41.203125 
Q 13.96875 47.125 23.296875 47.125 
Q 26.953125 47.125 30.140625 46.140625 
Q 33.34375 45.171875 35.734375 42.875 
Q 38.140625 40.578125 39.53125 36.71875 
Q 40.921875 32.859375 40.921875 27.09375 
L 40.921875 23.09375 
z
M 23.296875 43.21875 
Q 20.5625 43.21875 18.578125 42.0625 
Q 16.609375 40.921875 15.3125 38.8125 
Q 14.015625 36.71875 13.40625 33.71875 
Q 12.796875 30.71875 12.796875 27 
L 32.421875 27 
Q 32.421875 30.71875 32 33.71875 
Q 31.59375 36.71875 30.546875 38.8125 
Q 29.5 40.921875 27.734375 42.0625 
Q 25.984375 43.21875 23.296875 43.21875 
z
" id="LiberationSerif-101"/>
      <path d="M 15.828125 42.1875 
Q 17.1875 42.96875 19.0625 43.84375 
Q 20.953125 44.734375 23 45.453125 
Q 25.046875 46.1875 27.09375 46.65625 
Q 29.15625 47.125 30.90625 47.125 
Q 33.546875 47.125 35.734375 46.390625 
Q 37.9375 45.65625 39.515625 44.046875 
Q 41.109375 42.4375 42.015625 39.84375 
Q 42.921875 37.25 42.921875 33.59375 
L 42.921875 3.421875 
L 48.484375 2.203125 
L 48.484375 0 
L 28.71875 0 
L 28.71875 2.203125 
L 34.8125 3.421875 
L 34.8125 32.71875 
Q 34.8125 36.765625 32.828125 39.078125 
Q 30.859375 41.40625 26.703125 41.40625 
Q 25.34375 41.40625 23.828125 41.25 
Q 22.3125 41.109375 20.84375 40.90625 
Q 19.390625 40.71875 18.09375 40.453125 
Q 16.796875 40.1875 15.921875 39.984375 
L 15.921875 3.421875 
L 22.125 2.203125 
L 22.125 0 
L 2.296875 0 
L 2.296875 2.203125 
L 7.8125 3.421875 
L 7.8125 42.484375 
L 2.296875 43.703125 
L 2.296875 45.90625 
L 15.375 45.90625 
z
" id="LiberationSerif-110"/>
      <path d="M 18.5 60.890625 
Q 18.5 59.8125 18.078125 58.859375 
Q 17.671875 57.90625 16.9375 57.171875 
Q 16.21875 56.453125 15.234375 56.03125 
Q 14.265625 55.609375 13.1875 55.609375 
Q 12.109375 55.609375 11.15625 56.03125 
Q 10.203125 56.453125 9.46875 57.171875 
Q 8.734375 57.90625 8.3125 58.859375 
Q 7.90625 59.8125 7.90625 60.890625 
Q 7.90625 61.96875 8.3125 62.9375 
Q 8.734375 63.921875 9.46875 64.640625 
Q 10.203125 65.375 11.15625 65.796875 
Q 12.109375 66.21875 13.1875 66.21875 
Q 14.265625 66.21875 15.234375 65.796875 
Q 16.21875 65.375 16.9375 64.640625 
Q 17.671875 63.921875 18.078125 62.9375 
Q 18.5 61.96875 18.5 60.890625 
z
M 18.015625 3.421875 
L 25.875 2.203125 
L 25.875 0 
L 2.09375 0 
L 2.09375 2.203125 
L 9.90625 3.421875 
L 9.90625 42.484375 
L 3.421875 43.703125 
L 3.421875 45.90625 
L 18.015625 45.90625 
z
" id="LiberationSerif-105"/>
      <path d="M 42.484375 31.390625 
Q 42.484375 23.484375 37.75 19.421875 
Q 33.015625 15.375 24.125 15.375 
Q 22.125 15.375 20.09375 15.59375 
Q 18.0625 15.828125 16.703125 16.109375 
L 13.625 9.71875 
Q 13.765625 8.890625 15.515625 8.15625 
Q 17.28125 7.421875 19.921875 7.421875 
L 33.5 7.421875 
Q 40.921875 7.421875 44.5 4.203125 
Q 48.09375 0.984375 48.09375 -4.6875 
Q 48.09375 -7.859375 46.796875 -10.90625 
Q 45.515625 -13.96875 42.609375 -16.328125 
Q 39.703125 -18.703125 35.015625 -20.140625 
Q 30.328125 -21.578125 23.484375 -21.578125 
Q 18.265625 -21.578125 14.59375 -20.71875 
Q 10.9375 -19.875 8.640625 -18.359375 
Q 6.34375 -16.84375 5.3125 -14.84375 
Q 4.296875 -12.84375 4.296875 -10.5 
Q 4.296875 -8.890625 4.90625 -7.4375 
Q 5.515625 -6 6.609375 -4.65625 
Q 7.71875 -3.328125 9.234375 -2.046875 
Q 10.75 -0.78125 12.5 0.484375 
Q 11.625 0.78125 10.46875 1.4375 
Q 9.328125 2.09375 8.296875 3.125 
Q 7.28125 4.15625 6.59375 5.5 
Q 5.90625 6.84375 5.90625 8.5 
L 13.625 17.1875 
Q 5.90625 20.796875 5.90625 31.390625 
Q 5.90625 35.25 7.171875 38.203125 
Q 8.453125 41.15625 10.8125 43.140625 
Q 13.1875 45.125 16.65625 46.125 
Q 20.125 47.125 24.515625 47.125 
Q 25.875 47.125 27.296875 46.96875 
Q 28.71875 46.828125 29.953125 46.65625 
Q 31.203125 46.484375 32.125 46.265625 
Q 33.0625 46.046875 33.5 45.90625 
L 44.28125 51.3125 
L 46 49.21875 
L 39.203125 42.1875 
Q 40.875 40.328125 41.671875 37.515625 
Q 42.484375 34.71875 42.484375 31.390625 
z
M 40.484375 -6.203125 
Q 40.484375 -3.421875 38.765625 -1.859375 
Q 37.0625 -0.296875 33.59375 -0.296875 
L 15.828125 -0.296875 
Q 14.796875 -1.171875 13.9375 -2.3125 
Q 13.09375 -3.46875 12.46875 -4.734375 
Q 11.859375 -6 11.515625 -7.296875 
Q 11.1875 -8.59375 11.1875 -9.8125 
Q 11.1875 -11.578125 11.75 -13.015625 
Q 12.3125 -14.453125 13.703125 -15.46875 
Q 15.09375 -16.5 17.484375 -17.078125 
Q 19.875 -17.671875 23.484375 -17.671875 
Q 27.875 -17.671875 31.078125 -16.8125 
Q 34.28125 -15.96875 36.375 -14.421875 
Q 38.484375 -12.890625 39.484375 -10.78125 
Q 40.484375 -8.6875 40.484375 -6.203125 
z
M 24.21875 19.09375 
Q 29.546875 19.09375 31.765625 22.140625 
Q 33.984375 25.203125 33.984375 31.390625 
Q 33.984375 34.46875 33.46875 36.734375 
Q 32.953125 39.015625 31.8125 40.46875 
Q 30.671875 41.9375 28.8125 42.671875 
Q 26.953125 43.40625 24.3125 43.40625 
Q 21.625 43.40625 19.75 42.671875 
Q 17.875 41.9375 16.671875 40.46875 
Q 15.484375 39.015625 14.9375 36.734375 
Q 14.40625 34.46875 14.40625 31.390625 
Q 14.40625 28.328125 14.9375 26 
Q 15.484375 23.6875 16.65625 22.140625 
Q 17.828125 20.609375 19.671875 19.84375 
Q 21.53125 19.09375 24.21875 19.09375 
z
" id="LiberationSerif-103"/>
      <path id="LiberationSerif-32"/>
      <path d="M 20.703125 28.71875 
L 20.703125 3.90625 
L 30.609375 2.59375 
L 30.609375 0 
L 3.515625 0 
L 3.515625 2.59375 
L 11.28125 3.90625 
L 11.28125 61.625 
L 2.875 62.890625 
L 2.875 65.484375 
L 31.15625 65.484375 
Q 38.03125 65.484375 42.640625 64.25 
Q 47.265625 63.03125 50.046875 60.765625 
Q 52.828125 58.5 54 55.265625 
Q 55.171875 52.046875 55.171875 48 
Q 55.171875 44.234375 54.078125 41.28125 
Q 52.984375 38.328125 51.125 36.078125 
Q 49.265625 33.84375 46.828125 32.34375 
Q 44.390625 30.859375 41.75 30.078125 
L 59.46875 3.90625 
L 66.546875 2.59375 
L 66.546875 0 
L 50.875 0 
L 32.46875 28.71875 
z
M 45.453125 47.3125 
Q 45.453125 51.21875 44.53125 53.859375 
Q 43.609375 56.5 41.625 58.109375 
Q 39.65625 59.71875 36.546875 60.390625 
Q 33.453125 61.078125 29.046875 61.078125 
L 20.703125 61.078125 
L 20.703125 33.109375 
L 29.34375 33.109375 
Q 33.84375 33.109375 36.90625 33.90625 
Q 39.984375 34.71875 41.890625 36.453125 
Q 43.796875 38.1875 44.625 40.875 
Q 45.453125 43.5625 45.453125 47.3125 
z
" id="LiberationSerif-82"/>
      <path d="M 16.3125 -0.984375 
Q 11.625 -0.984375 9.296875 1.796875 
Q 6.984375 4.59375 6.984375 9.625 
L 6.984375 41.796875 
L 0.984375 41.796875 
L 0.984375 44 
L 7.078125 45.90625 
L 12.015625 56.296875 
L 15.09375 56.296875 
L 15.09375 45.90625 
L 25.59375 45.90625 
L 25.59375 41.796875 
L 15.09375 41.796875 
L 15.09375 10.5 
Q 15.09375 7.328125 16.53125 5.71875 
Q 17.96875 4.109375 20.3125 4.109375 
Q 22.125 4.109375 23.90625 4.34375 
Q 25.6875 4.59375 27.203125 4.890625 
L 27.203125 1.703125 
Q 26.46875 1.21875 25.265625 0.734375 
Q 24.078125 0.25 22.625 -0.109375 
Q 21.1875 -0.484375 19.578125 -0.734375 
Q 17.96875 -0.984375 16.3125 -0.984375 
z
" id="LiberationSerif-116"/>
     </defs>
     <g style="fill:#008000;" transform="translate(311.09125 140.20875)rotate(-90)scale(0.24 -0.24)">
      <use xlink:href="#LiberationSerif-76"/>
      <use x="61.083984" xlink:href="#LiberationSerif-101"/>
      <use x="105.46875" xlink:href="#LiberationSerif-97"/>
      <use x="149.853516" xlink:href="#LiberationSerif-114"/>
      <use x="183.154297" xlink:href="#LiberationSerif-110"/>
      <use x="233.154297" xlink:href="#LiberationSerif-105"/>
      <use x="260.9375" xlink:href="#LiberationSerif-110"/>
      <use x="310.9375" xlink:href="#LiberationSerif-103"/>
      <use x="360.9375" xlink:href="#LiberationSerif-32"/>
      <use x="385.9375" xlink:href="#LiberationSerif-82"/>
      <use x="452.636719" xlink:href="#LiberationSerif-97"/>
      <use x="497.021484" xlink:href="#LiberationSerif-116"/>
      <use x="524.804688" xlink:href="#LiberationSerif-101"/>
     </g>
    </g>
   </g>
   <g id="line2d_79">
    <path clip-path="url(#pbf15706d55)" d="M 54.107041 43.825863 
L 57.865 43.825863 
L 61.622959 43.825863 
L 65.380918 43.825863 
L 69.138878 43.825863 
L 72.896837 43.825863 
L 76.654796 43.825863 
L 80.412755 43.825863 
L 84.170714 43.825863 
L 87.928673 43.825863 
L 91.686633 49.269617 
L 95.444592 54.195327 
L 99.202551 58.652295 
L 102.96051 62.685125 
L 106.718469 66.334181 
L 110.476429 69.635983 
L 114.234388 72.62358 
L 117.992347 75.326868 
L 121.750306 77.772905 
L 125.508265 79.98617 
L 129.266224 81.988815 
L 133.024184 83.800883 
L 136.782143 85.440509 
L 140.540102 86.924105 
L 144.298061 88.266519 
L 148.05602 89.481184 
L 151.81398 90.580259 
L 155.571939 91.574743 
L 159.329898 92.47459 
L 163.087857 93.288805 
L 166.845816 94.025537 
L 170.603776 94.692159 
L 174.361735 95.295344 
L 178.119694 95.841129 
L 181.877653 96.334975 
L 185.635612 96.781826 
L 189.393571 97.186153 
L 193.151531 97.552003 
L 196.90949 97.883038 
L 200.667449 98.182571 
L 204.425408 98.4536 
L 208.183367 98.698836 
L 211.941327 98.920736 
L 215.699286 99.121519 
L 219.457245 99.303195 
L 223.215204 99.467582 
L 226.973163 99.616326 
L 230.731122 99.750914 
L 234.489082 99.872695 
L 238.247041 99.982887 
" style="fill:none;stroke:#008000;stroke-linecap:square;"/>
   </g>
   <g id="patch_12">
    <path d="M 57.865 102.790739 
L 57.865 41.018011 
" style="fill:none;stroke:#000000;stroke-linecap:square;stroke-linejoin:miter;stroke-width:0.5;"/>
   </g>
   <g id="patch_13">
    <path d="M 242.005 102.790739 
L 242.005 41.018011 
" style="fill:none;stroke:#000000;stroke-linecap:square;stroke-linejoin:miter;stroke-width:0.5;"/>
   </g>
   <g id="patch_14">
    <path d="M 57.865 102.790739 
L 242.005 102.790739 
" style="fill:none;stroke:#000000;stroke-linecap:square;stroke-linejoin:miter;stroke-width:0.5;"/>
   </g>
   <g id="patch_15">
    <path d="M 57.865 41.018011 
L 242.005 41.018011 
" style="fill:none;stroke:#000000;stroke-linecap:square;stroke-linejoin:miter;stroke-width:0.5;"/>
   </g>
  </g>
 </g>
 <defs>
  <clipPath id="pbf15706d55">
   <rect height="61.772727" width="184.14" x="57.865" y="41.018011"/>
  </clipPath>
  <clipPath id="p67a13ca981">
   <rect height="61.772727" width="184.14" x="57.865" y="115.145284"/>
  </clipPath>
 </defs>
</svg>
