<?xml version="1.0" encoding="UTF-8" standalone="no"?>
<!-- Created with Inkscape (http://www.inkscape.org/) -->

<svg
   xmlns:dc="http://purl.org/dc/elements/1.1/"
   xmlns:cc="http://creativecommons.org/ns#"
   xmlns:rdf="http://www.w3.org/1999/02/22-rdf-syntax-ns#"
   xmlns:svg="http://www.w3.org/2000/svg"
   xmlns="http://www.w3.org/2000/svg"
   xmlns:sodipodi="http://sodipodi.sourceforge.net/DTD/sodipodi-0.dtd"
   xmlns:inkscape="http://www.inkscape.org/namespaces/inkscape"
   version="1.1"
   id="svg29"
   xml:space="preserve"
   width="724.49902"
   height="226.37456"
   viewBox="0 0 724.49902 226.37456"
   sodipodi:docname="pipelinedlproject.svg"
   inkscape:version="0.92.5 (2060ec1f9f, 2020-04-08)"><metadata
     id="metadata35"><rdf:RDF><cc:Work
         rdf:about=""><dc:format>image/svg+xml</dc:format><dc:type
           rdf:resource="http://purl.org/dc/dcmitype/StillImage" /><dc:title></dc:title></cc:Work></rdf:RDF></metadata><defs
     id="defs33" /><sodipodi:namedview
     pagecolor="#ffffff"
     bordercolor="#666666"
     borderopacity="1"
     objecttolerance="10"
     gridtolerance="10"
     guidetolerance="10"
     inkscape:pageopacity="0"
     inkscape:pageshadow="2"
     inkscape:window-width="1848"
     inkscape:window-height="1016"
     id="namedview31"
     showgrid="false"
     inkscape:zoom="1.1491269"
     inkscape:cx="407.23371"
     inkscape:cy="91.905622"
     inkscape:window-x="1672"
     inkscape:window-y="27"
     inkscape:window-maximized="1"
     inkscape:current-layer="g141"
     fit-margin-top="0"
     fit-margin-left="0"
     fit-margin-right="0"
     fit-margin-bottom="0" /><g
     id="g37"
     inkscape:groupmode="layer"
     inkscape:label="ink_ext_XXXXXX"
     transform="matrix(1.3333333,0,0,-1.3333333,-0.00171068,235.9994)"><path
       inkscape:connector-curvature="0"
       id="path41"
       style="fill:none;stroke:#000000;stroke-width:1.27031004;stroke-linecap:butt;stroke-linejoin:round;stroke-miterlimit:10;stroke-dasharray:none;stroke-opacity:1"
       d="m 196.926,86.5629 h 87.1129 v 60.957 H 196.926 Z" /><path
       inkscape:connector-curvature="0"
       id="path43"
       style="fill:none;stroke:#000000;stroke-width:1.28059995;stroke-linecap:butt;stroke-linejoin:round;stroke-miterlimit:10;stroke-dasharray:none;stroke-opacity:1"
       d="m 92.4488,98.9031 h 73.7191 v 31.5617 H 92.4488 Z" /><path
       inkscape:connector-curvature="0"
       id="path45"
       style="fill:none;stroke:#000000;stroke-width:0.75;stroke-linecap:butt;stroke-linejoin:round;stroke-miterlimit:10;stroke-dasharray:none;stroke-opacity:1"
       d="m 202.129,108.691 h 76.934 v 11.977 h -76.934 z" /><path
       inkscape:connector-curvature="0"
       id="path47"
       style="fill:none;stroke:#000000;stroke-width:0.66920298;stroke-linecap:butt;stroke-linejoin:round;stroke-miterlimit:10;stroke-dasharray:none;stroke-opacity:1"
       d="m 202.164,91.027 h 77.0391 v 12.059 H 202.164 Z" /><path
       inkscape:connector-curvature="0"
       id="path49"
       style="fill:none;stroke:#000000;stroke-width:1.14740002;stroke-linecap:butt;stroke-linejoin:round;stroke-miterlimit:10;stroke-dasharray:none;stroke-opacity:1"
       d="m 400.699,144.808 h 77.7891 v 28.4223 H 400.699 Z" /><path
       inkscape:connector-curvature="0"
       id="path51"
       style="fill:none;stroke:#000000;stroke-width:1.24337995;stroke-linecap:butt;stroke-linejoin:round;stroke-miterlimit:10;stroke-dasharray:none;stroke-opacity:1"
       d="m 320.203,150.863 h 56.8707 V 168.34 H 320.203 Z" /><path
       inkscape:connector-curvature="0"
       id="path53"
       style="fill:none;stroke:#000000;stroke-width:0.50038999;stroke-linecap:butt;stroke-linejoin:round;stroke-miterlimit:10;stroke-dasharray:none;stroke-opacity:1"
       d="m 400.535,159.207 -18.648,0.055" /><path
       inkscape:connector-curvature="0"
       id="path55"
       style="fill:#000000;fill-opacity:1;fill-rule:evenodd;stroke:none;stroke-width:0.1"
       d="m 381.824,160.559 -3.418,-1.196 3.387,-1.281 z" /><path
       inkscape:connector-curvature="0"
       id="path57"
       style="fill:none;stroke:#000000;stroke-width:0.75;stroke-linecap:butt;stroke-linejoin:miter;stroke-miterlimit:10;stroke-dasharray:none;stroke-opacity:1"
       d="m 381.824,160.559 -3.418,-1.196 3.387,-1.281 z" /><path
       inkscape:connector-curvature="0"
       id="path59"
       style="fill:none;stroke:#000000;stroke-width:0.75;stroke-linecap:butt;stroke-linejoin:round;stroke-miterlimit:10;stroke-dasharray:none;stroke-opacity:1"
       d="m 279.062,114.68 h 17.075 l -0.059,45.066 19.102,-0.031" /><path
       inkscape:connector-curvature="0"
       id="path61"
       style="fill:#000000;fill-opacity:1;fill-rule:evenodd;stroke:none;stroke-width:0.1"
       d="m 315.41,158.371 3.402,1.238 -3.402,1.239 z" /><path
       inkscape:connector-curvature="0"
       id="path63"
       style="fill:none;stroke:#000000;stroke-width:0.75;stroke-linecap:butt;stroke-linejoin:miter;stroke-miterlimit:10;stroke-dasharray:none;stroke-opacity:1"
       d="m 315.41,158.371 3.402,1.238 -3.402,1.239 z" /><path
       inkscape:connector-curvature="0"
       id="path65"
       style="fill:none;stroke:#000000;stroke-width:1.18693995;stroke-linecap:butt;stroke-linejoin:round;stroke-miterlimit:10;stroke-dasharray:none;stroke-opacity:1"
       d="m 317.273,88.2891 h 64.3398 v 17.5348 H 317.273 Z" /><path
       inkscape:connector-curvature="0"
       id="path67"
       style="fill:none;stroke:#000000;stroke-width:0.85120404;stroke-linecap:butt;stroke-linejoin:round;stroke-miterlimit:10;stroke-dasharray:none;stroke-opacity:1"
       d="m 279.406,96.977 h 32.852" /><path
       inkscape:connector-curvature="0"
       id="path69"
       style="fill:#000000;fill-opacity:1;fill-rule:evenodd;stroke:none;stroke-width:0.1"
       d="m 312.125,95.7699 3.402,1.2379 -3.402,1.2383 z" /><path
       inkscape:connector-curvature="0"
       id="path71"
       style="fill:none;stroke:#000000;stroke-width:0.75;stroke-linecap:butt;stroke-linejoin:miter;stroke-miterlimit:10;stroke-dasharray:none;stroke-opacity:1"
       d="m 312.125,95.7699 3.402,1.2379 -3.402,1.2383 z" /><path
       inkscape:connector-curvature="0"
       id="path73"
       style="fill:none;stroke:#000000;stroke-width:0.75;stroke-linecap:butt;stroke-linejoin:round;stroke-miterlimit:10;stroke-dasharray:none;stroke-opacity:1"
       d="m 349.445,150.992 v -22.664 h 0.047 V 110.16" /><path
       inkscape:connector-curvature="0"
       id="path75"
       style="fill:#000000;fill-opacity:1;fill-rule:evenodd;stroke:none;stroke-width:0.1"
       d="m 348.254,110.16 1.238,-3.402 1.238,3.402 z" /><path
       inkscape:connector-curvature="0"
       id="path77"
       style="fill:none;stroke:#000000;stroke-width:0.75;stroke-linecap:butt;stroke-linejoin:miter;stroke-miterlimit:10;stroke-dasharray:none;stroke-opacity:1"
       d="m 348.254,110.16 1.238,-3.402 1.238,3.402 z" /><path
       inkscape:connector-curvature="0"
       id="path79"
       style="fill:none;stroke:#000000;stroke-width:1.12358999;stroke-linecap:butt;stroke-linejoin:round;stroke-miterlimit:10;stroke-dasharray:none;stroke-opacity:1"
       d="m 407.363,88.4031 h 76.102 v 17.5738 h -76.102 z" /><path
       inkscape:connector-curvature="0"
       id="path81"
       style="fill:none;stroke:#000000;stroke-width:1.16639006;stroke-linecap:butt;stroke-linejoin:round;stroke-miterlimit:10;stroke-dasharray:none;stroke-opacity:1"
       d="M 388.527,31.2379 H 499.683 V 59.816 H 388.527 Z" /><path
       inkscape:connector-curvature="0"
       id="path83"
       style="fill:none;stroke:#000000;stroke-width:0.75;stroke-linecap:butt;stroke-linejoin:round;stroke-miterlimit:10;stroke-dasharray:none;stroke-opacity:1"
       d="m 382.254,97.0551 h 20.855 v -0.0473 0.0473" /><path
       inkscape:connector-curvature="0"
       id="path85"
       style="fill:#000000;fill-opacity:1;fill-rule:evenodd;stroke:none;stroke-width:0.1"
       d="m 402.973,95.7699 3.402,1.2379 -3.402,1.2383 z" /><path
       inkscape:connector-curvature="0"
       id="path87"
       style="fill:none;stroke:#000000;stroke-width:0.75;stroke-linecap:butt;stroke-linejoin:miter;stroke-miterlimit:10;stroke-dasharray:none;stroke-opacity:1"
       d="m 402.973,95.7699 3.402,1.2379 -3.402,1.2383 z" /><path
       inkscape:connector-curvature="0"
       id="path89"
       style="fill:none;stroke:#000000;stroke-width:0.87192404;stroke-linecap:butt;stroke-linejoin:round;stroke-miterlimit:10;stroke-dasharray:none;stroke-opacity:1"
       d="m 441.762,144.746 v -19.738 l 0.008,-15.731 0.039,2.059" /><path
       inkscape:connector-curvature="0"
       id="path91"
       style="fill:#000000;fill-opacity:1;fill-rule:evenodd;stroke:none;stroke-width:0.1"
       d="m 440.535,110.469 1.238,-3.403 1.243,3.403 z" /><path
       inkscape:connector-curvature="0"
       id="path93"
       style="fill:none;stroke:#000000;stroke-width:0.75;stroke-linecap:butt;stroke-linejoin:miter;stroke-miterlimit:10;stroke-dasharray:none;stroke-opacity:1"
       d="m 440.535,110.469 1.238,-3.403 1.243,3.403 z" /><path
       inkscape:connector-curvature="0"
       id="path95"
       style="fill:none;stroke:#000000;stroke-width:1.23535991;stroke-linecap:butt;stroke-linejoin:round;stroke-miterlimit:10;stroke-dasharray:none;stroke-opacity:1"
       d="m 288.184,32.2621 h 59.9219 v 26.984 H 288.184 Z" /><path
       inkscape:connector-curvature="0"
       id="path97"
       style="fill:none;stroke:#000000;stroke-width:0.75;stroke-linecap:butt;stroke-linejoin:round;stroke-miterlimit:10;stroke-dasharray:none;stroke-opacity:1"
       d="m 67.6051,114.539 5.8679,-0.004 14.504,-0.047" /><path
       inkscape:connector-curvature="0"
       id="path99"
       style="fill:#000000;fill-opacity:1;fill-rule:evenodd;stroke:none;stroke-width:0.1"
       d="m 87.977,113.25 3.4058,1.238 -3.4058,1.239 z" /><path
       inkscape:connector-curvature="0"
       id="path101"
       style="fill:none;stroke:#000000;stroke-width:0.75;stroke-linecap:butt;stroke-linejoin:miter;stroke-miterlimit:10;stroke-dasharray:none;stroke-opacity:1"
       d="m 87.977,113.25 3.4058,1.238 -3.4058,1.239 z" /><path
       inkscape:connector-curvature="0"
       id="path103"
       style="fill:none;stroke:#000000;stroke-width:0.75;stroke-linecap:butt;stroke-linejoin:round;stroke-miterlimit:10;stroke-dasharray:none;stroke-opacity:1"
       d="m 165.645,114.469 11.632,-0.004 h 14.504" /><path
       inkscape:connector-curvature="0"
       id="path105"
       style="fill:#000000;fill-opacity:1;fill-rule:evenodd;stroke:none;stroke-width:0.1"
       d="m 191.781,113.227 3.407,1.238 -3.407,1.238 z" /><path
       inkscape:connector-curvature="0"
       id="path107"
       style="fill:none;stroke:#000000;stroke-width:0.75;stroke-linecap:butt;stroke-linejoin:miter;stroke-miterlimit:10;stroke-dasharray:none;stroke-opacity:1"
       d="m 191.781,113.227 3.407,1.238 -3.407,1.238 z" /><path
       inkscape:connector-curvature="0"
       id="path109"
       style="fill:none;stroke:#000000;stroke-width:0.453206;stroke-linecap:butt;stroke-linejoin:round;stroke-miterlimit:10;stroke-dasharray:none;stroke-opacity:1"
       d="M 442.27,88.6289 V 64.0738" /><path
       inkscape:connector-curvature="0"
       id="path111"
       style="fill:#000000;fill-opacity:1;fill-rule:evenodd;stroke:none;stroke-width:0.1"
       d="m 441.113,64.7191 1.192,-3.4222 1.285,3.3871 z" /><path
       inkscape:connector-curvature="0"
       id="path113"
       style="fill:none;stroke:#000000;stroke-width:0.75;stroke-linecap:butt;stroke-linejoin:miter;stroke-miterlimit:10;stroke-dasharray:none;stroke-opacity:1"
       d="m 441.113,64.7191 1.192,-3.4222 1.285,3.3871 z" /><path
       inkscape:connector-curvature="0"
       id="path115"
       style="fill:none;stroke:#000000;stroke-width:0.75;stroke-linecap:butt;stroke-linejoin:round;stroke-miterlimit:10;stroke-dasharray:none;stroke-opacity:1"
       d="M 388.25,45.7539 H 368.102 V 45.707 h -15.653" /><path
       inkscape:connector-curvature="0"
       id="path117"
       style="fill:#000000;fill-opacity:1;fill-rule:evenodd;stroke:none;stroke-width:0.1"
       d="m 352.449,46.9449 -3.402,-1.2379 3.402,-1.2379 z" /><path
       inkscape:connector-curvature="0"
       id="path119"
       style="fill:none;stroke:#000000;stroke-width:0.75;stroke-linecap:butt;stroke-linejoin:miter;stroke-miterlimit:10;stroke-dasharray:none;stroke-opacity:1"
       d="m 352.449,46.9449 -3.402,-1.2379 3.402,-1.2379 z" /><path
       inkscape:connector-curvature="0"
       id="path121"
       style="fill:none;stroke:#000000;stroke-width:1.41012001;stroke-linecap:butt;stroke-linejoin:round;stroke-miterlimit:10;stroke-dasharray:none;stroke-opacity:1"
       d="m 126.207,31.3828 h 81.4531 V 58.141 H 126.207 Z" /><path
       inkscape:connector-curvature="0"
       id="path123"
       style="fill:none;stroke:#000000;stroke-width:0.75;stroke-linecap:butt;stroke-linejoin:round;stroke-miterlimit:10;stroke-dasharray:none;stroke-opacity:1"
       d="M 288.719,44.7852 H 248.473 V 44.7379 H 212.738" /><path
       inkscape:connector-curvature="0"
       id="path125"
       style="fill:#000000;fill-opacity:1;fill-rule:evenodd;stroke:none;stroke-width:0.1"
       d="M 212.738,45.977 209.332,44.7379 212.738,43.5 Z" /><path
       inkscape:connector-curvature="0"
       id="path127"
       style="fill:none;stroke:#000000;stroke-width:0.75;stroke-linecap:butt;stroke-linejoin:miter;stroke-miterlimit:10;stroke-dasharray:none;stroke-opacity:1"
       d="M 212.738,45.977 209.332,44.7379 212.738,43.5 Z" /><path
       inkscape:connector-curvature="0"
       id="path129"
       style="fill:#000000;fill-opacity:1;fill-rule:evenodd;stroke:none;stroke-width:0.1"
       d="m 79.484,44.7621 c 0,4.0777 3.3789,7.3828 7.5469,7.3828 2.0043,0 3.9222,-0.7777 5.3402,-2.1609 1.4141,-1.386 2.207,-3.2649 2.207,-5.2219 0,-4.0742 -3.3793,-7.3793 -7.5472,-7.3793 -4.168,0 -7.5469,3.3051 -7.5469,7.3793 z" /><path
       inkscape:connector-curvature="0"
       id="path131"
       style="fill:none;stroke:#000000;stroke-width:0.75;stroke-linecap:butt;stroke-linejoin:round;stroke-miterlimit:10;stroke-dasharray:none;stroke-opacity:1"
       d="m 79.484,44.7621 c 0,4.0777 3.3789,7.3828 7.5469,7.3828 2.0043,0 3.9222,-0.7777 5.3402,-2.1609 1.4141,-1.386 2.207,-3.2649 2.207,-5.2219 0,-4.0742 -3.3793,-7.3793 -7.5472,-7.3793 -4.168,0 -7.5469,3.3051 -7.5469,7.3793 z" /><path
       inkscape:connector-curvature="0"
       id="path133"
       style="fill:none;stroke:#000000;stroke-width:0.75;stroke-linecap:butt;stroke-linejoin:round;stroke-miterlimit:10;stroke-dasharray:none;stroke-opacity:1"
       d="M 126.25,44.7621 H 99.0738" /><path
       inkscape:connector-curvature="0"
       id="path135"
       style="fill:#000000;fill-opacity:1;fill-rule:evenodd;stroke:none;stroke-width:0.1"
       d="M 99.0738,46 95.6719,44.7621 99.0738,43.523 Z" /><path
       inkscape:connector-curvature="0"
       id="path137"
       style="fill:none;stroke:#000000;stroke-width:0.75;stroke-linecap:butt;stroke-linejoin:miter;stroke-miterlimit:10;stroke-dasharray:none;stroke-opacity:1"
       d="M 99.0738,46 95.6719,44.7621 99.0738,43.523 Z" /><path
       inkscape:connector-curvature="0"
       id="path139"
       style="fill:none;stroke:#000000;stroke-width:1.32555997;stroke-linecap:butt;stroke-linejoin:round;stroke-miterlimit:10;stroke-dasharray:none;stroke-opacity:1"
       d="m 0.664063,98.7891 h 67.3629 v 32.191 h -67.3629 z" /><g
       id="g141"><text
         id="text151"
         style="font-variant:normal;font-weight:normal;font-size:10px;font-family:'Times New Roman';-inkscape-font-specification:TimesNewRomanPSMT;writing-mode:lr-tb;fill:#000000;fill-opacity:1;fill-rule:nonzero;stroke:none"
         transform="matrix(1,0,0,-1,24.5863,118.454)"><tspan
           id="tspan143"
           sodipodi:role="line"
           y="0"
           x="0 7.2199998 11.66 14.44">Data</tspan><tspan
           id="tspan145"
           sodipodi:role="line"
           y="12.5"
           x="-16.669901 -11.6699 -6.6698999 0.55010003 5.5500998 8.3301001 13.3301 17.7701 22.7701 25.5501 30.5501">downloading</tspan><tspan
           id="tspan147"
           sodipodi:role="line"
           y="-0.47420001"
           x="95.180099 102.4001 106.8401 109.6201">Data</tspan><tspan
           id="tspan149"
           sodipodi:role="line"
           y="12.0258"
           x="75.185204 80.185204 83.515198 87.9552 91.285202 96.285202 99.615196 104.6152 109.0552 113.4952 117.3852 121.2752 124.0552 129.05521">pre-processing</tspan></text>
<text
         id="text157"
         style="font-style:italic;font-variant:normal;font-size:8px;font-family:'Times New Roman';-inkscape-font-specification:TimesNewRomanPS-ItalicMT;writing-mode:lr-tb;fill:#000000;fill-opacity:1;fill-rule:nonzero;stroke:none"
         transform="matrix(1,0,0,-1,97.85041,90.4571)"><tspan
           id="tspan153"
           sodipodi:role="line"
           y="0"
           x="0 2.664 7.552 11.104 14.216 16.440001 19.552 21.775999 25.775999 29.775999 31.775999 34 39.776001 43.776001 47.776001 51.327999 54.439999">-Resizing images.</tspan><tspan
           id="tspan155"
           sodipodi:role="line"
           y="8.9914103"
           x="-0.229297 2.4347031 7.3227029 10.874703 13.986703 17.538704 21.538704 23.762703 25.986704 29.986704 33.986702">-Rescaling.</tspan></text>
<text
         id="text161"
         style="font-variant:normal;font-weight:normal;font-size:10px;font-family:'Times New Roman';-inkscape-font-specification:TimesNewRomanPSMT;writing-mode:lr-tb;fill:#000000;fill-opacity:1;fill-rule:nonzero;stroke:none"
         transform="matrix(1,0,0,-1,203.48411,134.87659)"><tspan
           id="tspan159"
           sodipodi:role="line"
           y="0"
           x="0 7.2199998 11.66 14.44 18.879999 22.77 27.209999 29.99 33.880001 36.380001 41.380001 45.82 50.82 55.259998 58.59 63.029999 65.809998 70.809998">Datasets generator</tspan></text>
<text
         id="text167"
         style="font-variant:normal;font-weight:normal;font-size:8px;font-family:'Times New Roman';-inkscape-font-specification:TimesNewRomanPSMT;writing-mode:lr-tb;fill:#000000;fill-opacity:1;fill-rule:nonzero;stroke:none"
         transform="matrix(1,0,0,-1,215.23101,112.51679)"><tspan
           id="tspan163"
           sodipodi:role="line"
           y="0"
           x="0 4.6079216 7.2719216 10.823921 13.047921 17.047922 19.271921 23.271921 27.271921 29.271921 33.271923 36.823921 39.04792 42.599922 45.711922 49.26392">Training dataset</tspan><tspan
           id="tspan165"
           sodipodi:role="line"
           y="17.9625"
           x="-2.48633 2.401782 5.9537821 8.1777821 10.401782 14.401782 17.953781 20.177782 22.401781 26.401781 30.401781 32.401783 36.401783 39.953781 42.17778 45.729782 48.841782 52.393784">Validation dataset</tspan></text>
<text
         id="text171"
         style="font-style:italic;font-variant:normal;font-size:8px;font-family:'Times New Roman';-inkscape-font-specification:TimesNewRomanPS-ItalicMT;writing-mode:lr-tb;fill:#000000;fill-opacity:1;fill-rule:nonzero;stroke:none"
         transform="matrix(1,0,0,-1,199.94078,78.54959)"><tspan
           id="tspan169"
           sodipodi:role="line"
           y="0"
           x="0 2.664 7.112 12 14 16.224001 22 26 30 33.551998 35.551998 39.551998 43.104 47.104 50.655998 53.768002 57.768002 59.992001 63.992001 67.103996 70.216003">-TF image generators.</tspan></text>
<text
         id="text177"
         style="font-variant:normal;font-weight:normal;font-size:10px;font-family:'Times New Roman';-inkscape-font-specification:TimesNewRomanPSMT;writing-mode:lr-tb;fill:#000000;fill-opacity:1;fill-rule:nonzero;stroke:none"
         transform="matrix(1,0,0,-1,330.32878,156.92729)"><tspan
           id="tspan173"
           sodipodi:role="line"
           y="0"
           x="0 5.7601948 9.0901947 13.530195 16.310196 21.310196 24.090195 29.090195">Training</tspan><tspan
           id="tspan175"
           sodipodi:role="line"
           y="63.248798"
           x="82.388298 87.948303 92.388298 95.168297 99.608299 104.0483 106.8283 109.6083 114.6083 119.6083 122.1083 129.88831 134.88831 139.88831 144.32829">Selection model</tspan></text>
<text
         id="text183"
         style="font-style:italic;font-variant:normal;font-size:8px;font-family:'Times New Roman';-inkscape-font-specification:TimesNewRomanPS-ItalicMT;writing-mode:lr-tb;fill:#000000;fill-opacity:1;fill-rule:nonzero;stroke:none"
         transform="matrix(1,0,0,-1,324.22918,81.22849)"><tspan
           id="tspan179"
           sodipodi:role="line"
           y="0"
           x="0 2.664 7.552 11.104 14.656 18.656 21.768 25.768 29.32 32.439968">-Accuracy.</tspan><tspan
           id="tspan181"
           sodipodi:role="line"
           y="7.3445301"
           x="0.0246094 2.6886094 7.1366096 11.136609 14.24861 17.360609">-Loss.</tspan></text>
<text
         id="text195"
         style="font-variant:normal;font-weight:normal;font-size:10px;font-family:'Times New Roman';-inkscape-font-specification:TimesNewRomanPSMT;writing-mode:lr-tb;fill:#000000;fill-opacity:1;fill-rule:nonzero;stroke:none"
         transform="matrix(1,0,0,-1,326.90496,93.99996)"><tspan
           id="tspan185"
           sodipodi:role="line"
           y="0"
           x="0 6.1100001 11.11 15.55 18.33 23.33 27.77 30.549999 33.330002 38.330002">Evaluation</tspan><tspan
           id="tspan187"
           sodipodi:role="line"
           y="-67.5504"
           x="79.697304 86.917297 91.3573 96.3573 99.687302 104.1273 106.9073 109.4073 116.6273 121.0673 123.8473 131.06731 136.06731 139.39729">Neural Network</tspan><tspan
           id="tspan189"
           sodipodi:role="line"
           y="-55.0504"
           x="86.506279 90.946281 94.276283 98.716278 103.71628 106.49628 109.27628 113.71628 118.15628 120.93628 125.93628 129.26628 133.70628">architectures</tspan><tspan
           id="tspan191"
           sodipodi:role="line"
           y="45.712601"
           x="69.085182 76.305183 81.305183 86.305183 90.745178 94.07518 99.07518 103.51518 106.84518 111.28518 119.06518 123.50518 126.28518 130.72517 134.05518 137.94518 140.44518 143.22517 148.22517 153.22517 156.00517 161.00517">Hyperparameters tuning</tspan><tspan
           id="tspan193"
           sodipodi:role="line"
           y="58.212601"
           x="104.77108 108.66108 113.10108 117.54108 120.87108 125.31108">search</tspan></text>
<text
         id="text211"
         style="font-style:italic;font-variant:normal;font-size:8px;font-family:'Times New Roman';-inkscape-font-specification:TimesNewRomanPS-ItalicMT;writing-mode:lr-tb;fill:#000000;fill-opacity:1;fill-rule:nonzero;stroke:none"
         transform="matrix(1,0,0,-1,396.78424,22.99326)"><tspan
           id="tspan197"
           sodipodi:role="line"
           y="0"
           x="0 2.664 7.552 11.552 15.552 19.552 23.552 29.327999 31.327999 34.439999 37.992001 41.992001 44.807907 48.359905 52.359905">-Random search.</tspan><tspan
           id="tspan199"
           sodipodi:role="line"
           y="-1.45117"
           x="-104.545 -101.881 -96.544998 -92.544998 -88.544998 -86.320999 -82.320999 -79.209 -76.985001 -72.985001 -68.985001 -66.985001 -61.209 -57.209 -54.985001 -51.873001 -49.648998 -46.097">-Confusion matrix.</tspan><tspan
           id="tspan201"
           sodipodi:role="line"
           y="6.62813"
           x="-104.60906 -101.94506 -97.05706 -93.05706 -91.05706 -87.945061 -84.393059 -80.393059 -77.577156 -74.025154">-F1 score.</tspan><tspan
           id="tspan203"
           sodipodi:role="line"
           y="16.62813"
           x="0" /><tspan
           id="tspan205"
           sodipodi:role="line"
           y="26.62813"
           x="0" /><tspan
           id="tspan207"
           sodipodi:role="line"
           y="-24.586349"
           x="-168.28682 -163.39882 -159.84683 -156.73483 -154.51082 -152.51082 -147.62282 -143.62282 -141.62282 -138.51082 -134.95883 -130.95883 -128.14291">Best F1 score</tspan><tspan
           id="tspan209"
           sodipodi:role="line"
           y="-33.22541"
           x="-329.27481 -324.38681 -322.16281 -318.16281 -314.16281 -311.93881 -309.93881 -303.27481 -299.27481 -295.27481 -291.72284">Final Model</tspan></text>
<text
         id="text217"
         style="font-variant:normal;font-weight:normal;font-size:10px;font-family:'Times New Roman';-inkscape-font-specification:TimesNewRomanPSMT;writing-mode:lr-tb;fill:#000000;fill-opacity:1;fill-rule:nonzero;stroke:none"
         transform="matrix(1,0,0,-1,297.76442,42.96517)"><tspan
           id="tspan213"
           sodipodi:role="line"
           y="0"
           x="0 6.6700001 11.11 16.110001 21.110001 24.440001 27.219999 30 35">Reporting</tspan><tspan
           id="tspan215"
           sodipodi:role="line"
           y="1.33789"
           x="-162.401 -156.841 -152.401 -149.621 -145.181 -140.741 -137.961 -135.181 -130.181 -125.181 -122.681 -114.901 -109.901 -104.901 -100.461">Selection model</tspan></text>
<text
         id="text231"
         style="font-style:italic;font-variant:normal;font-size:8px;font-family:'Times New Roman';-inkscape-font-specification:TimesNewRomanPS-ItalicMT;writing-mode:lr-tb;fill:#000000;fill-opacity:1;fill-rule:nonzero;stroke:none"
         transform="matrix(1,0,0,-1,443.74342,73.01598)"><tspan
           id="tspan219"
           sodipodi:role="line"
           y="7.078125"
           x="0" /><tspan
           id="tspan221"
           sodipodi:role="line"
           y="-98.686699"
           x="40.119499 44.503437 47.983562 53.255501 56.735626 58.895561">LeNet.</tspan><tspan
           id="tspan223"
           sodipodi:role="line"
           y="-83.728104"
           x="38.56052 43.384457 49.088581 54.800522 58.728645 62.664581">VGG19.</tspan><tspan
           id="tspan225"
           sodipodi:role="line"
           y="-91.163261"
           x="39.185127 45.785065 49.713192 53.649128 57.129253 59.289192 61.129036 63.728973 65.657097 67.505142 74.097267 78.033211 81.961334 85.449272 87.601395 89.44944 92.041565 94.641502 98.569633">Model I, Model II*.</tspan><tspan
           id="tspan227"
           sodipodi:role="line"
           y="-76.849159"
           x="39.265205 41.865143 45.79327 49.281208 52.761333 56.697269 58.849396 61.009331 64.945267 68.873398 70.713242 74.20118 78.137115">Inception v3.</tspan><tspan
           id="tspan229"
           sodipodi:role="line"
           y="-69.283142"
           x="39.169113 43.99305 47.473175 50.961113 54.889236 57.049175 59.201302 63.137238 67.073174">Xception.</tspan></text>
<text
         transform="scale(1,-1)"
         id="text235"
         y="-76.840912"
         x="451.46921"
         style="font-style:italic;font-variant:normal;font-weight:normal;font-stretch:normal;font-size:10px;line-height:0;font-family:'Times New Roman';-inkscape-font-specification:'Times New Roman, Italic';letter-spacing:0px;word-spacing:0px;fill:#000000;fill-opacity:1;stroke:none;stroke-width:0.75"
         xml:space="preserve"><tspan
           id="tspan245"
           style="font-size:8px;stroke-width:0.75"
           y="-76.840912"
           x="451.46921"
           sodipodi:role="line">Model with the</tspan><tspan
           id="tspan249"
           style="stroke-width:0.75"
           y="-76.315163"
           x="451.46921"
           sodipodi:role="line" /></text>
<text
         transform="scale(1,-1)"
         id="text235-3"
         y="-69.15889"
         x="447.55038"
         style="font-style:italic;font-variant:normal;font-weight:normal;font-stretch:normal;font-size:10px;line-height:0;font-family:'Times New Roman';-inkscape-font-specification:'Times New Roman, Italic';letter-spacing:0px;word-spacing:0px;fill:#000000;fill-opacity:1;stroke:none;stroke-width:0.75"
         xml:space="preserve"><tspan
           id="tspan245-6"
           style="font-size:8px;stroke-width:0.75"
           y="-69.15889"
           x="447.55038"
           sodipodi:role="line">highest accuracy</tspan><tspan
           id="tspan249-7"
           style="stroke-width:0.75"
           y="-68.633141"
           x="447.55038"
           sodipodi:role="line" /></text>
<text
         id="text235-5"
         y="-8.9451914"
         x="291.78058"
         style="font-style:italic;font-variant:normal;font-weight:normal;font-stretch:normal;font-size:10px;line-height:0;font-family:'Times New Roman';-inkscape-font-specification:'Times New Roman, Italic';letter-spacing:0px;word-spacing:0px;fill:#000000;fill-opacity:1;stroke:none;stroke-width:0.75"
         xml:space="preserve"
         transform="scale(1,-1)"><tspan
           id="tspan245-3"
           style="font-size:7.99999952px;stroke-width:0.75"
           y="-8.9451914"
           x="291.78058"
           sodipodi:role="line">-Accuracy</tspan><tspan
           id="tspan249-5"
           style="stroke-width:0.75"
           y="-8.4194403"
           x="291.78058"
           sodipodi:role="line" /></text>
</g></g></svg>