<?xml version="1.0" encoding="utf-8" standalone="no"?>
<!DOCTYPE svg PUBLIC "-//W3C//DTD SVG 1.1//EN"
  "http://www.w3.org/Graphics/SVG/1.1/DTD/svg11.dtd">
<!-- Created with matplotlib (https://matplotlib.org/) -->
<svg height="165.11pt" version="1.1" viewBox="0 0 256.85 165.11" width="256.85pt" xmlns="http://www.w3.org/2000/svg" xmlns:xlink="http://www.w3.org/1999/xlink">
 <defs>
  <style type="text/css">
*{stroke-linecap:butt;stroke-linejoin:round;}
  </style>
 </defs>
 <g id="figure_1">
  <g id="patch_1">
   <path d="M 0 165.11 
L 256.85 165.11 
L 256.85 0 
L 0 0 
z
" style="fill:none;"/>
  </g>
  <g id="axes_1">
   <g id="patch_2">
    <path d="M 32.355 65.372727 
L 216.495 65.372727 
L 216.495 3.6 
L 32.355 3.6 
z
" style="fill:none;"/>
   </g>
   <g id="matplotlib.axis_1">
    <g id="xtick_1">
     <g id="line2d_1">
      <defs>
       <path d="M 0 0 
L 0 -3 
" id="m17efaa2d8a" style="stroke:#000000;stroke-width:0.5;"/>
      </defs>
      <g>
       <use style="stroke:#000000;stroke-width:0.5;" x="66.176633" xlink:href="#m17efaa2d8a" y="65.372727"/>
      </g>
     </g>
     <g id="line2d_2">
      <defs>
       <path d="M 0 0 
L 0 3 
" id="m73479533ed" style="stroke:#000000;stroke-width:0.5;"/>
      </defs>
      <g>
       <use style="stroke:#000000;stroke-width:0.5;" x="66.176633" xlink:href="#m73479533ed" y="3.6"/>
      </g>
     </g>
    </g>
    <g id="xtick_2">
     <g id="line2d_3">
      <g>
       <use style="stroke:#000000;stroke-width:0.5;" x="103.756224" xlink:href="#m17efaa2d8a" y="65.372727"/>
      </g>
     </g>
     <g id="line2d_4">
      <g>
       <use style="stroke:#000000;stroke-width:0.5;" x="103.756224" xlink:href="#m73479533ed" y="3.6"/>
      </g>
     </g>
    </g>
    <g id="xtick_3">
     <g id="line2d_5">
      <g>
       <use style="stroke:#000000;stroke-width:0.5;" x="141.335816" xlink:href="#m17efaa2d8a" y="65.372727"/>
      </g>
     </g>
     <g id="line2d_6">
      <g>
       <use style="stroke:#000000;stroke-width:0.5;" x="141.335816" xlink:href="#m73479533ed" y="3.6"/>
      </g>
     </g>
    </g>
    <g id="xtick_4">
     <g id="line2d_7">
      <g>
       <use style="stroke:#000000;stroke-width:0.5;" x="178.915408" xlink:href="#m17efaa2d8a" y="65.372727"/>
      </g>
     </g>
     <g id="line2d_8">
      <g>
       <use style="stroke:#000000;stroke-width:0.5;" x="178.915408" xlink:href="#m73479533ed" y="3.6"/>
      </g>
     </g>
    </g>
    <g id="xtick_5">
     <g id="line2d_9">
      <g>
       <use style="stroke:#000000;stroke-width:0.5;" x="216.495" xlink:href="#m17efaa2d8a" y="65.372727"/>
      </g>
     </g>
     <g id="line2d_10">
      <g>
       <use style="stroke:#000000;stroke-width:0.5;" x="216.495" xlink:href="#m73479533ed" y="3.6"/>
      </g>
     </g>
    </g>
    <g id="xtick_6">
     <g id="line2d_11">
      <defs>
       <path d="M 0 0 
L 0 -1.5 
" id="mb28fab1cf8" style="stroke:#000000;stroke-width:0.5;"/>
      </defs>
      <g>
       <use style="stroke:#000000;stroke-width:0.5;" x="36.112959" xlink:href="#mb28fab1cf8" y="65.372727"/>
      </g>
     </g>
     <g id="line2d_12">
      <defs>
       <path d="M 0 0 
L 0 1.5 
" id="m4b60b93972" style="stroke:#000000;stroke-width:0.5;"/>
      </defs>
      <g>
       <use style="stroke:#000000;stroke-width:0.5;" x="36.112959" xlink:href="#m4b60b93972" y="3.6"/>
      </g>
     </g>
    </g>
    <g id="xtick_7">
     <g id="line2d_13">
      <g>
       <use style="stroke:#000000;stroke-width:0.5;" x="43.628878" xlink:href="#mb28fab1cf8" y="65.372727"/>
      </g>
     </g>
     <g id="line2d_14">
      <g>
       <use style="stroke:#000000;stroke-width:0.5;" x="43.628878" xlink:href="#m4b60b93972" y="3.6"/>
      </g>
     </g>
    </g>
    <g id="xtick_8">
     <g id="line2d_15">
      <g>
       <use style="stroke:#000000;stroke-width:0.5;" x="51.144796" xlink:href="#mb28fab1cf8" y="65.372727"/>
      </g>
     </g>
     <g id="line2d_16">
      <g>
       <use style="stroke:#000000;stroke-width:0.5;" x="51.144796" xlink:href="#m4b60b93972" y="3.6"/>
      </g>
     </g>
    </g>
    <g id="xtick_9">
     <g id="line2d_17">
      <g>
       <use style="stroke:#000000;stroke-width:0.5;" x="58.660714" xlink:href="#mb28fab1cf8" y="65.372727"/>
      </g>
     </g>
     <g id="line2d_18">
      <g>
       <use style="stroke:#000000;stroke-width:0.5;" x="58.660714" xlink:href="#m4b60b93972" y="3.6"/>
      </g>
     </g>
    </g>
    <g id="xtick_10">
     <g id="line2d_19">
      <g>
       <use style="stroke:#000000;stroke-width:0.5;" x="73.692551" xlink:href="#mb28fab1cf8" y="65.372727"/>
      </g>
     </g>
     <g id="line2d_20">
      <g>
       <use style="stroke:#000000;stroke-width:0.5;" x="73.692551" xlink:href="#m4b60b93972" y="3.6"/>
      </g>
     </g>
    </g>
    <g id="xtick_11">
     <g id="line2d_21">
      <g>
       <use style="stroke:#000000;stroke-width:0.5;" x="81.208469" xlink:href="#mb28fab1cf8" y="65.372727"/>
      </g>
     </g>
     <g id="line2d_22">
      <g>
       <use style="stroke:#000000;stroke-width:0.5;" x="81.208469" xlink:href="#m4b60b93972" y="3.6"/>
      </g>
     </g>
    </g>
    <g id="xtick_12">
     <g id="line2d_23">
      <g>
       <use style="stroke:#000000;stroke-width:0.5;" x="88.724388" xlink:href="#mb28fab1cf8" y="65.372727"/>
      </g>
     </g>
     <g id="line2d_24">
      <g>
       <use style="stroke:#000000;stroke-width:0.5;" x="88.724388" xlink:href="#m4b60b93972" y="3.6"/>
      </g>
     </g>
    </g>
    <g id="xtick_13">
     <g id="line2d_25">
      <g>
       <use style="stroke:#000000;stroke-width:0.5;" x="96.240306" xlink:href="#mb28fab1cf8" y="65.372727"/>
      </g>
     </g>
     <g id="line2d_26">
      <g>
       <use style="stroke:#000000;stroke-width:0.5;" x="96.240306" xlink:href="#m4b60b93972" y="3.6"/>
      </g>
     </g>
    </g>
    <g id="xtick_14">
     <g id="line2d_27">
      <g>
       <use style="stroke:#000000;stroke-width:0.5;" x="111.272143" xlink:href="#mb28fab1cf8" y="65.372727"/>
      </g>
     </g>
     <g id="line2d_28">
      <g>
       <use style="stroke:#000000;stroke-width:0.5;" x="111.272143" xlink:href="#m4b60b93972" y="3.6"/>
      </g>
     </g>
    </g>
    <g id="xtick_15">
     <g id="line2d_29">
      <g>
       <use style="stroke:#000000;stroke-width:0.5;" x="118.788061" xlink:href="#mb28fab1cf8" y="65.372727"/>
      </g>
     </g>
     <g id="line2d_30">
      <g>
       <use style="stroke:#000000;stroke-width:0.5;" x="118.788061" xlink:href="#m4b60b93972" y="3.6"/>
      </g>
     </g>
    </g>
    <g id="xtick_16">
     <g id="line2d_31">
      <g>
       <use style="stroke:#000000;stroke-width:0.5;" x="126.30398" xlink:href="#mb28fab1cf8" y="65.372727"/>
      </g>
     </g>
     <g id="line2d_32">
      <g>
       <use style="stroke:#000000;stroke-width:0.5;" x="126.30398" xlink:href="#m4b60b93972" y="3.6"/>
      </g>
     </g>
    </g>
    <g id="xtick_17">
     <g id="line2d_33">
      <g>
       <use style="stroke:#000000;stroke-width:0.5;" x="133.819898" xlink:href="#mb28fab1cf8" y="65.372727"/>
      </g>
     </g>
     <g id="line2d_34">
      <g>
       <use style="stroke:#000000;stroke-width:0.5;" x="133.819898" xlink:href="#m4b60b93972" y="3.6"/>
      </g>
     </g>
    </g>
    <g id="xtick_18">
     <g id="line2d_35">
      <g>
       <use style="stroke:#000000;stroke-width:0.5;" x="148.851735" xlink:href="#mb28fab1cf8" y="65.372727"/>
      </g>
     </g>
     <g id="line2d_36">
      <g>
       <use style="stroke:#000000;stroke-width:0.5;" x="148.851735" xlink:href="#m4b60b93972" y="3.6"/>
      </g>
     </g>
    </g>
    <g id="xtick_19">
     <g id="line2d_37">
      <g>
       <use style="stroke:#000000;stroke-width:0.5;" x="156.367653" xlink:href="#mb28fab1cf8" y="65.372727"/>
      </g>
     </g>
     <g id="line2d_38">
      <g>
       <use style="stroke:#000000;stroke-width:0.5;" x="156.367653" xlink:href="#m4b60b93972" y="3.6"/>
      </g>
     </g>
    </g>
    <g id="xtick_20">
     <g id="line2d_39">
      <g>
       <use style="stroke:#000000;stroke-width:0.5;" x="163.883571" xlink:href="#mb28fab1cf8" y="65.372727"/>
      </g>
     </g>
     <g id="line2d_40">
      <g>
       <use style="stroke:#000000;stroke-width:0.5;" x="163.883571" xlink:href="#m4b60b93972" y="3.6"/>
      </g>
     </g>
    </g>
    <g id="xtick_21">
     <g id="line2d_41">
      <g>
       <use style="stroke:#000000;stroke-width:0.5;" x="171.39949" xlink:href="#mb28fab1cf8" y="65.372727"/>
      </g>
     </g>
     <g id="line2d_42">
      <g>
       <use style="stroke:#000000;stroke-width:0.5;" x="171.39949" xlink:href="#m4b60b93972" y="3.6"/>
      </g>
     </g>
    </g>
    <g id="xtick_22">
     <g id="line2d_43">
      <g>
       <use style="stroke:#000000;stroke-width:0.5;" x="186.431327" xlink:href="#mb28fab1cf8" y="65.372727"/>
      </g>
     </g>
     <g id="line2d_44">
      <g>
       <use style="stroke:#000000;stroke-width:0.5;" x="186.431327" xlink:href="#m4b60b93972" y="3.6"/>
      </g>
     </g>
    </g>
    <g id="xtick_23">
     <g id="line2d_45">
      <g>
       <use style="stroke:#000000;stroke-width:0.5;" x="193.947245" xlink:href="#mb28fab1cf8" y="65.372727"/>
      </g>
     </g>
     <g id="line2d_46">
      <g>
       <use style="stroke:#000000;stroke-width:0.5;" x="193.947245" xlink:href="#m4b60b93972" y="3.6"/>
      </g>
     </g>
    </g>
    <g id="xtick_24">
     <g id="line2d_47">
      <g>
       <use style="stroke:#000000;stroke-width:0.5;" x="201.463163" xlink:href="#mb28fab1cf8" y="65.372727"/>
      </g>
     </g>
     <g id="line2d_48">
      <g>
       <use style="stroke:#000000;stroke-width:0.5;" x="201.463163" xlink:href="#m4b60b93972" y="3.6"/>
      </g>
     </g>
    </g>
    <g id="xtick_25">
     <g id="line2d_49">
      <g>
       <use style="stroke:#000000;stroke-width:0.5;" x="208.979082" xlink:href="#mb28fab1cf8" y="65.372727"/>
      </g>
     </g>
     <g id="line2d_50">
      <g>
       <use style="stroke:#000000;stroke-width:0.5;" x="208.979082" xlink:href="#m4b60b93972" y="3.6"/>
      </g>
     </g>
    </g>
   </g>
   <g id="matplotlib.axis_2">
    <g id="ytick_1">
     <g id="line2d_51">
      <defs>
       <path d="M 0 0 
L 3 0 
" id="m25c6eb8824" style="stroke:#000000;stroke-width:0.5;"/>
      </defs>
      <g>
       <use style="stroke:#000000;stroke-width:0.5;" x="32.355" xlink:href="#m25c6eb8824" y="65.372727"/>
      </g>
     </g>
     <g id="text_1">
      <!-- 0 -->
      <defs>
       <path d="M 46.1875 33.015625 
Q 46.1875 24.8125 44.890625 18.453125 
Q 43.609375 12.109375 40.96875 7.78125 
Q 38.328125 3.46875 34.265625 1.234375 
Q 30.21875 -0.984375 24.703125 -0.984375 
Q 14.359375 -0.984375 9.078125 7.703125 
Q 3.8125 16.40625 3.8125 33.015625 
Q 3.8125 49.265625 9.078125 57.875 
Q 14.359375 66.5 25.09375 66.5 
Q 35.453125 66.5 40.8125 57.984375 
Q 46.1875 49.46875 46.1875 33.015625 
z
M 37.203125 33.015625 
Q 37.203125 40.046875 36.59375 45.5625 
Q 35.984375 51.078125 34.546875 54.859375 
Q 33.109375 58.640625 30.6875 60.609375 
Q 28.265625 62.59375 24.703125 62.59375 
Q 21.09375 62.59375 18.765625 60.609375 
Q 16.453125 58.640625 15.125 54.859375 
Q 13.8125 51.078125 13.296875 45.5625 
Q 12.796875 40.046875 12.796875 33.015625 
Q 12.796875 25.984375 13.296875 20.390625 
Q 13.8125 14.796875 15.125 10.90625 
Q 16.453125 7.03125 18.765625 4.953125 
Q 21.09375 2.875 24.703125 2.875 
Q 28.265625 2.875 30.6875 4.953125 
Q 33.109375 7.03125 34.546875 10.90625 
Q 35.984375 14.796875 36.59375 20.390625 
Q 37.203125 25.984375 37.203125 33.015625 
z
" id="LiberationSerif-48"/>
      </defs>
      <g transform="translate(24.855 68.148352)scale(0.08 -0.08)">
       <use xlink:href="#LiberationSerif-48"/>
      </g>
     </g>
    </g>
    <g id="ytick_2">
     <g id="line2d_52">
      <g>
       <use style="stroke:#000000;stroke-width:0.5;" x="32.355" xlink:href="#m25c6eb8824" y="26.764773"/>
      </g>
     </g>
     <g id="text_2">
      <!-- 1 -->
      <defs>
       <path d="M 30.609375 3.90625 
L 44 2.59375 
L 44 0 
L 8.796875 0 
L 8.796875 2.59375 
L 22.21875 3.90625 
L 22.21875 57.328125 
L 8.984375 52.59375 
L 8.984375 55.171875 
L 28.078125 66.015625 
L 30.609375 66.015625 
z
" id="LiberationSerif-49"/>
      </defs>
      <g transform="translate(24.855 29.540398)scale(0.08 -0.08)">
       <use xlink:href="#LiberationSerif-49"/>
      </g>
     </g>
    </g>
    <g id="ytick_3">
     <g id="line2d_53">
      <defs>
       <path d="M 0 0 
L 1.5 0 
" id="m1208336186" style="stroke:#000000;stroke-width:0.5;"/>
      </defs>
      <g>
       <use style="stroke:#000000;stroke-width:0.5;" x="32.355" xlink:href="#m1208336186" y="57.651136"/>
      </g>
     </g>
    </g>
    <g id="ytick_4">
     <g id="line2d_54">
      <g>
       <use style="stroke:#000000;stroke-width:0.5;" x="32.355" xlink:href="#m1208336186" y="49.929545"/>
      </g>
     </g>
    </g>
    <g id="ytick_5">
     <g id="line2d_55">
      <g>
       <use style="stroke:#000000;stroke-width:0.5;" x="32.355" xlink:href="#m1208336186" y="42.207955"/>
      </g>
     </g>
    </g>
    <g id="ytick_6">
     <g id="line2d_56">
      <g>
       <use style="stroke:#000000;stroke-width:0.5;" x="32.355" xlink:href="#m1208336186" y="34.486364"/>
      </g>
     </g>
    </g>
    <g id="ytick_7">
     <g id="line2d_57">
      <g>
       <use style="stroke:#000000;stroke-width:0.5;" x="32.355" xlink:href="#m1208336186" y="19.043182"/>
      </g>
     </g>
    </g>
    <g id="ytick_8">
     <g id="line2d_58">
      <g>
       <use style="stroke:#000000;stroke-width:0.5;" x="32.355" xlink:href="#m1208336186" y="11.321591"/>
      </g>
     </g>
    </g>
    <g id="ytick_9">
     <g id="line2d_59">
      <g>
       <use style="stroke:#000000;stroke-width:0.5;" x="32.355" xlink:href="#m1208336186" y="3.6"/>
      </g>
     </g>
    </g>
    <g id="text_3">
     <!-- Loss -->
     <defs>
      <path d="M 30.8125 62.890625 
L 20.703125 61.625 
L 20.703125 4.203125 
L 33.59375 4.203125 
Q 39.703125 4.203125 43.546875 4.546875 
Q 47.40625 4.890625 48.875 5.171875 
L 51.90625 18.796875 
L 55.078125 18.796875 
L 54.203125 0 
L 2.875 0 
L 2.875 2.59375 
L 11.28125 3.90625 
L 11.28125 61.625 
L 2.875 62.890625 
L 2.875 65.484375 
L 30.8125 65.484375 
z
" id="LiberationSerif-76"/>
      <path d="M 46.1875 23.1875 
Q 46.1875 11.53125 40.96875 5.265625 
Q 35.75 -0.984375 24.703125 -0.984375 
Q 14.359375 -0.984375 9.078125 5.21875 
Q 3.8125 11.421875 3.8125 23.1875 
Q 3.8125 34.8125 9.078125 40.96875 
Q 14.359375 47.125 25.09375 47.125 
Q 35.546875 47.125 40.859375 41.09375 
Q 46.1875 35.0625 46.1875 23.1875 
z
M 37.40625 23.1875 
Q 37.40625 27.9375 36.765625 31.671875 
Q 36.140625 35.40625 34.640625 37.96875 
Q 33.15625 40.53125 30.703125 41.875 
Q 28.265625 43.21875 24.703125 43.21875 
Q 21.09375 43.21875 18.75 41.875 
Q 16.40625 40.53125 15.03125 37.96875 
Q 13.671875 35.40625 13.125 31.671875 
Q 12.59375 27.9375 12.59375 23.1875 
Q 12.59375 18.40625 13.125 14.640625 
Q 13.671875 10.890625 15.03125 8.28125 
Q 16.40625 5.671875 18.75 4.265625 
Q 21.09375 2.875 24.703125 2.875 
Q 28.265625 2.875 30.703125 4.265625 
Q 33.15625 5.671875 34.640625 8.28125 
Q 36.140625 10.890625 36.765625 14.640625 
Q 37.40625 18.40625 37.40625 23.1875 
z
" id="LiberationSerif-111"/>
      <path d="M 35.296875 12.890625 
Q 35.296875 9.8125 34.34375 7.25 
Q 33.40625 4.6875 31.34375 2.859375 
Q 29.296875 1.03125 26.046875 0.015625 
Q 22.796875 -0.984375 18.21875 -0.984375 
Q 15.921875 -0.984375 13.6875 -0.703125 
Q 11.46875 -0.4375 9.5625 -0.0625 
Q 7.671875 0.296875 6.25 0.6875 
Q 4.828125 1.078125 4.203125 1.3125 
L 4.203125 12.59375 
L 6.390625 12.59375 
L 8.796875 6.203125 
Q 10.296875 4.828125 12.6875 3.84375 
Q 15.09375 2.875 18.3125 2.875 
Q 22.859375 2.875 25.3125 4.859375 
Q 27.78125 6.84375 27.78125 10.984375 
Q 27.78125 13.421875 26.75 15.015625 
Q 25.734375 16.609375 24.0625 17.671875 
Q 22.40625 18.75 20.28125 19.453125 
Q 18.171875 20.171875 15.9375 20.890625 
Q 13.71875 21.625 11.59375 22.546875 
Q 9.46875 23.484375 7.8125 24.953125 
Q 6.15625 26.421875 5.125 28.609375 
Q 4.109375 30.8125 4.109375 34.078125 
Q 4.109375 37.203125 5.21875 39.640625 
Q 6.34375 42.09375 8.375 43.75 
Q 10.40625 45.40625 13.203125 46.265625 
Q 16.015625 47.125 19.390625 47.125 
Q 22.703125 47.125 25.875 46.65625 
Q 29.046875 46.1875 31.984375 45.609375 
L 31.984375 35.59375 
L 29.6875 35.59375 
L 27.640625 40.921875 
Q 26.375 42.046875 24.171875 42.625 
Q 21.96875 43.21875 19.484375 43.21875 
Q 15.53125 43.21875 13.453125 41.265625 
Q 11.375 39.3125 11.375 35.984375 
Q 11.375 33.734375 12.390625 32.296875 
Q 13.421875 30.859375 15.109375 29.859375 
Q 16.796875 28.859375 18.9375 28.125 
Q 21.09375 27.390625 23.34375 26.609375 
Q 25.59375 25.828125 27.734375 24.828125 
Q 29.890625 23.828125 31.5625 22.265625 
Q 33.25 20.703125 34.265625 18.453125 
Q 35.296875 16.21875 35.296875 12.890625 
z
" id="LiberationSerif-115"/>
     </defs>
     <g transform="translate(19.15125 42.043239)rotate(-90)scale(0.08 -0.08)">
      <use xlink:href="#LiberationSerif-76"/>
      <use x="61.083984" xlink:href="#LiberationSerif-111"/>
      <use x="111.083984" xlink:href="#LiberationSerif-115"/>
      <use x="150" xlink:href="#LiberationSerif-115"/>
     </g>
    </g>
   </g>
   <g id="line2d_60">
    <path clip-path="url(#p9bc9f4a9b1)" d="M 28.597041 40.341927 
L 32.355 43.052441 
L 36.112959 43.57785 
L 39.870918 46.621618 
L 43.628878 50.712807 
L 47.386837 48.860817 
L 51.144796 49.474862 
L 54.902755 54.26388 
L 58.660714 54.524872 
L 62.418673 56.351913 
L 66.176633 55.256351 
L 69.934592 58.151827 
L 73.692551 50.609426 
L 77.45051 59.013338 
L 81.208469 54.064108 
L 84.966429 52.267668 
L 88.724388 56.774343 
L 92.482347 58.416927 
L 96.240306 59.670775 
L 99.998265 56.826951 
L 103.756224 54.975844 
L 107.514184 61.015986 
L 111.272143 58.719851 
L 115.030102 57.573429 
L 118.788061 60.300215 
L 122.54602 55.730531 
L 126.30398 58.674933 
L 130.061939 58.559792 
L 133.819898 61.63809 
L 137.577857 56.008907 
L 141.335816 53.585192 
L 145.093776 58.727855 
L 148.851735 61.370524 
L 152.609694 60.552364 
L 156.367653 60.544495 
L 160.125612 59.407582 
L 163.883571 62.705691 
L 167.641531 60.832062 
L 171.39949 61.703402 
L 175.157449 59.964331 
L 178.915408 60.350061 
L 182.673367 60.545576 
L 186.431327 60.953132 
L 190.189286 62.261293 
L 193.947245 59.902475 
L 197.705204 61.101665 
L 201.463163 57.190282 
L 205.221122 61.229725 
L 208.979082 60.896134 
L 212.737041 62.26425 
" style="fill:none;stroke:#0000ff;stroke-linecap:square;"/>
   </g>
   <g id="line2d_61">
    <path clip-path="url(#p9bc9f4a9b1)" d="M 28.597041 35.489317 
L 32.355 1.880841 
L 34.156538 -1 
M 37.341615 -1 
L 39.870918 5.440344 
L 42.725323 -1 
M 53.581095 -1 
L 54.902755 4.297198 
L 58.660714 35.435144 
L 62.418673 23.217664 
L 66.176633 13.870038 
L 69.934592 25.172085 
L 73.692551 11.347352 
L 77.45051 18.701059 
L 81.208469 32.808325 
L 84.966429 39.294986 
L 88.724388 31.97836 
L 92.482347 41.312805 
L 96.240306 29.463049 
L 99.998265 46.803568 
L 103.756224 43.043722 
L 107.514184 43.190259 
L 111.272143 41.163718 
L 115.030102 42.78047 
L 118.788061 56.394181 
L 122.54602 53.495728 
L 126.30398 57.690545 
L 130.061939 56.750667 
L 133.819898 52.126791 
L 137.577857 53.681944 
L 141.335816 59.904426 
L 145.093776 55.608449 
L 148.851735 59.861962 
L 152.609694 58.496244 
L 156.367653 58.410401 
L 160.125612 59.430411 
L 163.883571 60.616933 
L 167.641531 58.949262 
L 171.39949 58.093622 
L 175.157449 58.932293 
L 178.915408 59.599692 
L 182.673367 58.108077 
L 186.431327 59.21102 
L 190.189286 59.657274 
L 193.947245 58.684329 
L 197.705204 59.872538 
L 201.463163 62.972866 
L 205.221122 60.696759 
L 208.979082 58.407134 
L 212.737041 61.169548 
" style="fill:none;stroke:#ff0000;stroke-dasharray:3.7,1.6;stroke-dashoffset:0;"/>
   </g>
   <g id="patch_3">
    <path d="M 32.355 65.372727 
L 32.355 3.6 
" style="fill:none;stroke:#000000;stroke-linecap:square;stroke-linejoin:miter;stroke-width:0.5;"/>
   </g>
   <g id="patch_4">
    <path d="M 216.495 65.372727 
L 216.495 3.6 
" style="fill:none;stroke:#000000;stroke-linecap:square;stroke-linejoin:miter;stroke-width:0.5;"/>
   </g>
   <g id="patch_5">
    <path d="M 32.355 65.372727 
L 216.495 65.372727 
" style="fill:none;stroke:#000000;stroke-linecap:square;stroke-linejoin:miter;stroke-width:0.5;"/>
   </g>
   <g id="patch_6">
    <path d="M 32.355 3.6 
L 216.495 3.6 
" style="fill:none;stroke:#000000;stroke-linecap:square;stroke-linejoin:miter;stroke-width:0.5;"/>
   </g>
   <g id="legend_1">
    <g id="line2d_62">
     <path d="M 154.015 13.6 
L 170.015 13.6 
" style="fill:none;stroke:#0000ff;stroke-linecap:square;"/>
    </g>
    <g id="line2d_63"/>
    <g id="text_4">
     <!-- Training -->
     <defs>
      <path d="M 15.375 0 
L 15.375 2.59375 
L 25.78125 3.90625 
L 25.78125 61.28125 
L 23.296875 61.28125 
Q 16.890625 61.28125 12.546875 60.984375 
Q 8.203125 60.6875 6.390625 60.296875 
L 5.078125 50.09375 
L 1.8125 50.09375 
L 1.8125 65.484375 
L 59.421875 65.484375 
L 59.421875 50.09375 
L 56.109375 50.09375 
L 54.78125 60.296875 
Q 53.90625 60.5 52.171875 60.640625 
Q 50.4375 60.796875 48.140625 60.90625 
Q 45.84375 61.03125 43.140625 61.109375 
Q 40.4375 61.1875 37.59375 61.1875 
L 35.203125 61.1875 
L 35.203125 3.90625 
L 45.609375 2.59375 
L 45.609375 0 
z
" id="LiberationSerif-84"/>
      <path d="M 32.421875 47.125 
L 32.421875 34.71875 
L 30.328125 34.71875 
L 27.484375 40.09375 
Q 26.125 40.09375 24.5625 39.890625 
Q 23 39.703125 21.4375 39.375 
Q 19.875 39.0625 18.4375 38.625 
Q 17 38.1875 15.921875 37.703125 
L 15.921875 3.421875 
L 23.78125 2.203125 
L 23.78125 0 
L 2 0 
L 2 2.203125 
L 7.8125 3.421875 
L 7.8125 42.484375 
L 2 43.703125 
L 2 45.90625 
L 15.375 45.90625 
L 15.828125 40.1875 
Q 16.9375 41.109375 18.890625 42.296875 
Q 20.84375 43.5 23.109375 44.578125 
Q 25.390625 45.65625 27.65625 46.390625 
Q 29.9375 47.125 31.6875 47.125 
z
" id="LiberationSerif-114"/>
      <path d="M 22.703125 46.921875 
Q 25.828125 46.921875 28.515625 46.328125 
Q 31.203125 45.75 33.15625 44.328125 
Q 35.109375 42.921875 36.203125 40.5 
Q 37.3125 38.09375 37.3125 34.421875 
L 37.3125 3.421875 
L 43.015625 2.203125 
L 43.015625 0 
L 30.421875 0 
L 29.5 4.59375 
Q 28.765625 3.859375 27.515625 2.875 
Q 26.265625 1.90625 24.5 1.046875 
Q 22.75 0.203125 20.421875 -0.390625 
Q 18.109375 -0.984375 15.28125 -0.984375 
Q 11.96875 -0.984375 9.6875 0.046875 
Q 7.421875 1.078125 6.046875 2.90625 
Q 4.6875 4.734375 4.09375 7.25 
Q 3.515625 9.765625 3.515625 12.703125 
Q 3.515625 15.71875 4.25 17.9375 
Q 4.984375 20.171875 6.296875 21.671875 
Q 7.625 23.1875 9.40625 24.140625 
Q 11.1875 25.09375 13.25 25.625 
Q 15.328125 26.171875 17.640625 26.359375 
Q 19.96875 26.5625 22.3125 26.609375 
L 29.203125 26.8125 
L 29.203125 33.984375 
Q 29.203125 36.03125 28.859375 37.71875 
Q 28.515625 39.40625 27.703125 40.625 
Q 26.90625 41.84375 25.53125 42.53125 
Q 24.171875 43.21875 22.125 43.21875 
Q 19.78125 43.21875 17.375 42.578125 
Q 14.984375 41.9375 13.1875 40.921875 
L 11.53125 35.203125 
L 8.796875 35.203125 
L 8.796875 45.21875 
Q 11.96875 45.90625 15.359375 46.40625 
Q 18.75 46.921875 22.703125 46.921875 
z
M 29.203125 23.390625 
L 22.796875 23.1875 
Q 19.921875 23.09375 17.8125 22.625 
Q 15.71875 22.171875 14.34375 21.046875 
Q 12.984375 19.921875 12.296875 17.96875 
Q 11.625 16.015625 11.625 12.984375 
Q 11.625 4.390625 18.609375 4.390625 
Q 21.921875 4.390625 24.34375 5.140625 
Q 26.765625 5.90625 29.203125 7.078125 
z
" id="LiberationSerif-97"/>
      <path d="M 18.5 60.890625 
Q 18.5 59.8125 18.078125 58.859375 
Q 17.671875 57.90625 16.9375 57.171875 
Q 16.21875 56.453125 15.234375 56.03125 
Q 14.265625 55.609375 13.1875 55.609375 
Q 12.109375 55.609375 11.15625 56.03125 
Q 10.203125 56.453125 9.46875 57.171875 
Q 8.734375 57.90625 8.3125 58.859375 
Q 7.90625 59.8125 7.90625 60.890625 
Q 7.90625 61.96875 8.3125 62.9375 
Q 8.734375 63.921875 9.46875 64.640625 
Q 10.203125 65.375 11.15625 65.796875 
Q 12.109375 66.21875 13.1875 66.21875 
Q 14.265625 66.21875 15.234375 65.796875 
Q 16.21875 65.375 16.9375 64.640625 
Q 17.671875 63.921875 18.078125 62.9375 
Q 18.5 61.96875 18.5 60.890625 
z
M 18.015625 3.421875 
L 25.875 2.203125 
L 25.875 0 
L 2.09375 0 
L 2.09375 2.203125 
L 9.90625 3.421875 
L 9.90625 42.484375 
L 3.421875 43.703125 
L 3.421875 45.90625 
L 18.015625 45.90625 
z
" id="LiberationSerif-105"/>
      <path d="M 15.828125 42.1875 
Q 17.1875 42.96875 19.0625 43.84375 
Q 20.953125 44.734375 23 45.453125 
Q 25.046875 46.1875 27.09375 46.65625 
Q 29.15625 47.125 30.90625 47.125 
Q 33.546875 47.125 35.734375 46.390625 
Q 37.9375 45.65625 39.515625 44.046875 
Q 41.109375 42.4375 42.015625 39.84375 
Q 42.921875 37.25 42.921875 33.59375 
L 42.921875 3.421875 
L 48.484375 2.203125 
L 48.484375 0 
L 28.71875 0 
L 28.71875 2.203125 
L 34.8125 3.421875 
L 34.8125 32.71875 
Q 34.8125 36.765625 32.828125 39.078125 
Q 30.859375 41.40625 26.703125 41.40625 
Q 25.34375 41.40625 23.828125 41.25 
Q 22.3125 41.109375 20.84375 40.90625 
Q 19.390625 40.71875 18.09375 40.453125 
Q 16.796875 40.1875 15.921875 39.984375 
L 15.921875 3.421875 
L 22.125 2.203125 
L 22.125 0 
L 2.296875 0 
L 2.296875 2.203125 
L 7.8125 3.421875 
L 7.8125 42.484375 
L 2.296875 43.703125 
L 2.296875 45.90625 
L 15.375 45.90625 
z
" id="LiberationSerif-110"/>
      <path d="M 42.484375 31.390625 
Q 42.484375 23.484375 37.75 19.421875 
Q 33.015625 15.375 24.125 15.375 
Q 22.125 15.375 20.09375 15.59375 
Q 18.0625 15.828125 16.703125 16.109375 
L 13.625 9.71875 
Q 13.765625 8.890625 15.515625 8.15625 
Q 17.28125 7.421875 19.921875 7.421875 
L 33.5 7.421875 
Q 40.921875 7.421875 44.5 4.203125 
Q 48.09375 0.984375 48.09375 -4.6875 
Q 48.09375 -7.859375 46.796875 -10.90625 
Q 45.515625 -13.96875 42.609375 -16.328125 
Q 39.703125 -18.703125 35.015625 -20.140625 
Q 30.328125 -21.578125 23.484375 -21.578125 
Q 18.265625 -21.578125 14.59375 -20.71875 
Q 10.9375 -19.875 8.640625 -18.359375 
Q 6.34375 -16.84375 5.3125 -14.84375 
Q 4.296875 -12.84375 4.296875 -10.5 
Q 4.296875 -8.890625 4.90625 -7.4375 
Q 5.515625 -6 6.609375 -4.65625 
Q 7.71875 -3.328125 9.234375 -2.046875 
Q 10.75 -0.78125 12.5 0.484375 
Q 11.625 0.78125 10.46875 1.4375 
Q 9.328125 2.09375 8.296875 3.125 
Q 7.28125 4.15625 6.59375 5.5 
Q 5.90625 6.84375 5.90625 8.5 
L 13.625 17.1875 
Q 5.90625 20.796875 5.90625 31.390625 
Q 5.90625 35.25 7.171875 38.203125 
Q 8.453125 41.15625 10.8125 43.140625 
Q 13.1875 45.125 16.65625 46.125 
Q 20.125 47.125 24.515625 47.125 
Q 25.875 47.125 27.296875 46.96875 
Q 28.71875 46.828125 29.953125 46.65625 
Q 31.203125 46.484375 32.125 46.265625 
Q 33.0625 46.046875 33.5 45.90625 
L 44.28125 51.3125 
L 46 49.21875 
L 39.203125 42.1875 
Q 40.875 40.328125 41.671875 37.515625 
Q 42.484375 34.71875 42.484375 31.390625 
z
M 40.484375 -6.203125 
Q 40.484375 -3.421875 38.765625 -1.859375 
Q 37.0625 -0.296875 33.59375 -0.296875 
L 15.828125 -0.296875 
Q 14.796875 -1.171875 13.9375 -2.3125 
Q 13.09375 -3.46875 12.46875 -4.734375 
Q 11.859375 -6 11.515625 -7.296875 
Q 11.1875 -8.59375 11.1875 -9.8125 
Q 11.1875 -11.578125 11.75 -13.015625 
Q 12.3125 -14.453125 13.703125 -15.46875 
Q 15.09375 -16.5 17.484375 -17.078125 
Q 19.875 -17.671875 23.484375 -17.671875 
Q 27.875 -17.671875 31.078125 -16.8125 
Q 34.28125 -15.96875 36.375 -14.421875 
Q 38.484375 -12.890625 39.484375 -10.78125 
Q 40.484375 -8.6875 40.484375 -6.203125 
z
M 24.21875 19.09375 
Q 29.546875 19.09375 31.765625 22.140625 
Q 33.984375 25.203125 33.984375 31.390625 
Q 33.984375 34.46875 33.46875 36.734375 
Q 32.953125 39.015625 31.8125 40.46875 
Q 30.671875 41.9375 28.8125 42.671875 
Q 26.953125 43.40625 24.3125 43.40625 
Q 21.625 43.40625 19.75 42.671875 
Q 17.875 41.9375 16.671875 40.46875 
Q 15.484375 39.015625 14.9375 36.734375 
Q 14.40625 34.46875 14.40625 31.390625 
Q 14.40625 28.328125 14.9375 26 
Q 15.484375 23.6875 16.65625 22.140625 
Q 17.828125 20.609375 19.671875 19.84375 
Q 21.53125 19.09375 24.21875 19.09375 
z
" id="LiberationSerif-103"/>
     </defs>
     <g transform="translate(176.415 16.4)scale(0.08 -0.08)">
      <use xlink:href="#LiberationSerif-84"/>
      <use x="57.583984" xlink:href="#LiberationSerif-114"/>
      <use x="90.884766" xlink:href="#LiberationSerif-97"/>
      <use x="135.269531" xlink:href="#LiberationSerif-105"/>
      <use x="163.052734" xlink:href="#LiberationSerif-110"/>
      <use x="213.052734" xlink:href="#LiberationSerif-105"/>
      <use x="240.835938" xlink:href="#LiberationSerif-110"/>
      <use x="290.835938" xlink:href="#LiberationSerif-103"/>
     </g>
    </g>
    <g id="line2d_64">
     <path d="M 154.015 24.92625 
L 170.015 24.92625 
" style="fill:none;stroke:#ff0000;stroke-dasharray:3.7,1.6;stroke-dashoffset:0;"/>
    </g>
    <g id="line2d_65"/>
    <g id="text_5">
     <!-- Validation -->
     <defs>
      <path d="M 71.09375 65.484375 
L 71.09375 62.890625 
L 63.921875 61.625 
L 37.59375 -1.515625 
L 35.109375 -1.515625 
L 8.5 61.625 
L 1.125 62.890625 
L 1.125 65.484375 
L 27.59375 65.484375 
L 27.59375 62.890625 
L 18.796875 61.625 
L 38.625 13.421875 
L 58.40625 61.625 
L 49.8125 62.890625 
L 49.8125 65.484375 
z
" id="LiberationSerif-86"/>
      <path d="M 17.921875 3.421875 
L 25.78125 2.203125 
L 25.78125 0 
L 2 0 
L 2 2.203125 
L 9.8125 3.421875 
L 9.8125 66.015625 
L 2 67.1875 
L 2 69.390625 
L 17.921875 69.390625 
z
" id="LiberationSerif-108"/>
      <path d="M 35.296875 3.421875 
Q 33.15625 1.703125 29.953125 0.359375 
Q 26.765625 -0.984375 22.40625 -0.984375 
Q 3.609375 -0.984375 3.609375 22.515625 
Q 3.609375 28.21875 4.859375 32.78125 
Q 6.109375 37.359375 8.6875 40.546875 
Q 11.28125 43.75 15.234375 45.4375 
Q 19.1875 47.125 24.609375 47.125 
Q 27.09375 47.125 29.90625 46.828125 
Q 32.71875 46.53125 35.296875 46 
Q 35.203125 46.53125 35.15625 47.578125 
Q 35.109375 48.640625 35.078125 49.828125 
Q 35.0625 51.03125 35.03125 52.203125 
Q 35.015625 53.375 35.015625 54.109375 
L 35.015625 66.015625 
L 27.296875 67.1875 
L 27.296875 69.390625 
L 43.109375 69.390625 
L 43.109375 3.421875 
L 48.78125 2.203125 
L 48.78125 0 
L 35.890625 0 
z
M 12.40625 22.515625 
Q 12.40625 17.390625 13.296875 13.875 
Q 14.203125 10.359375 15.859375 8.171875 
Q 17.53125 6 19.875 5.046875 
Q 22.21875 4.109375 25.09375 4.109375 
Q 28.03125 4.109375 30.609375 4.65625 
Q 33.203125 5.21875 35.015625 6 
L 35.015625 42.28125 
Q 32.953125 42.671875 30.265625 42.890625 
Q 27.59375 43.109375 25.09375 43.109375 
Q 18.609375 43.109375 15.5 37.890625 
Q 12.40625 32.671875 12.40625 22.515625 
z
" id="LiberationSerif-100"/>
      <path d="M 16.3125 -0.984375 
Q 11.625 -0.984375 9.296875 1.796875 
Q 6.984375 4.59375 6.984375 9.625 
L 6.984375 41.796875 
L 0.984375 41.796875 
L 0.984375 44 
L 7.078125 45.90625 
L 12.015625 56.296875 
L 15.09375 56.296875 
L 15.09375 45.90625 
L 25.59375 45.90625 
L 25.59375 41.796875 
L 15.09375 41.796875 
L 15.09375 10.5 
Q 15.09375 7.328125 16.53125 5.71875 
Q 17.96875 4.109375 20.3125 4.109375 
Q 22.125 4.109375 23.90625 4.34375 
Q 25.6875 4.59375 27.203125 4.890625 
L 27.203125 1.703125 
Q 26.46875 1.21875 25.265625 0.734375 
Q 24.078125 0.25 22.625 -0.109375 
Q 21.1875 -0.484375 19.578125 -0.734375 
Q 17.96875 -0.984375 16.3125 -0.984375 
z
" id="LiberationSerif-116"/>
     </defs>
     <g transform="translate(176.415 27.72625)scale(0.08 -0.08)">
      <use xlink:href="#LiberationSerif-86"/>
      <use x="61.091797" xlink:href="#LiberationSerif-97"/>
      <use x="105.476562" xlink:href="#LiberationSerif-108"/>
      <use x="133.259766" xlink:href="#LiberationSerif-105"/>
      <use x="161.042969" xlink:href="#LiberationSerif-100"/>
      <use x="211.042969" xlink:href="#LiberationSerif-97"/>
      <use x="255.427734" xlink:href="#LiberationSerif-116"/>
      <use x="283.210938" xlink:href="#LiberationSerif-105"/>
      <use x="310.994141" xlink:href="#LiberationSerif-111"/>
      <use x="360.994141" xlink:href="#LiberationSerif-110"/>
     </g>
    </g>
   </g>
  </g>
  <g id="axes_2">
   <g id="patch_7">
    <path d="M 32.355 139.5 
L 216.495 139.5 
L 216.495 77.727273 
L 32.355 77.727273 
z
" style="fill:none;"/>
   </g>
   <g id="matplotlib.axis_3">
    <g id="xtick_26">
     <g id="line2d_66">
      <g>
       <use style="stroke:#000000;stroke-width:0.5;" x="66.176633" xlink:href="#m17efaa2d8a" y="139.5"/>
      </g>
     </g>
     <g id="line2d_67">
      <g>
       <use style="stroke:#000000;stroke-width:0.5;" x="66.176633" xlink:href="#m73479533ed" y="77.727273"/>
      </g>
     </g>
     <g id="text_6">
      <!-- 10 -->
      <g transform="translate(62.176633 148.55125)scale(0.08 -0.08)">
       <use xlink:href="#LiberationSerif-49"/>
       <use x="50" xlink:href="#LiberationSerif-48"/>
      </g>
     </g>
    </g>
    <g id="xtick_27">
     <g id="line2d_68">
      <g>
       <use style="stroke:#000000;stroke-width:0.5;" x="103.756224" xlink:href="#m17efaa2d8a" y="139.5"/>
      </g>
     </g>
     <g id="line2d_69">
      <g>
       <use style="stroke:#000000;stroke-width:0.5;" x="103.756224" xlink:href="#m73479533ed" y="77.727273"/>
      </g>
     </g>
     <g id="text_7">
      <!-- 20 -->
      <defs>
       <path d="M 44.484375 0 
L 4.390625 0 
L 4.390625 7.171875 
Q 9.328125 11.765625 13.453125 15.40625 
Q 17.578125 19.046875 20.875 22.1875 
Q 24.171875 25.34375 26.640625 28.21875 
Q 29.109375 31.109375 30.734375 34.234375 
Q 32.375 37.359375 33.171875 40.96875 
Q 33.984375 44.578125 33.984375 49.125 
Q 33.984375 55.46875 31.09375 58.78125 
Q 28.21875 62.109375 21.6875 62.109375 
Q 20.21875 62.109375 18.765625 61.890625 
Q 17.328125 61.671875 16.015625 61.296875 
Q 14.703125 60.9375 13.546875 60.46875 
Q 12.40625 60.015625 11.53125 59.515625 
L 9.8125 51.515625 
L 6.59375 51.515625 
L 6.59375 64.109375 
Q 10.296875 64.984375 13.890625 65.59375 
Q 17.484375 66.21875 21.6875 66.21875 
Q 32.421875 66.21875 37.8125 61.75 
Q 43.21875 57.28125 43.21875 49.125 
Q 43.21875 45.125 42.15625 41.703125 
Q 41.109375 38.28125 39.15625 35.125 
Q 37.203125 31.984375 34.375 28.921875 
Q 31.546875 25.875 27.921875 22.609375 
Q 24.3125 19.34375 19.984375 15.65625 
Q 15.671875 11.96875 10.796875 7.515625 
L 44.484375 7.515625 
z
" id="LiberationSerif-50"/>
      </defs>
      <g transform="translate(99.756224 148.55125)scale(0.08 -0.08)">
       <use xlink:href="#LiberationSerif-50"/>
       <use x="50" xlink:href="#LiberationSerif-48"/>
      </g>
     </g>
    </g>
    <g id="xtick_28">
     <g id="line2d_70">
      <g>
       <use style="stroke:#000000;stroke-width:0.5;" x="141.335816" xlink:href="#m17efaa2d8a" y="139.5"/>
      </g>
     </g>
     <g id="line2d_71">
      <g>
       <use style="stroke:#000000;stroke-width:0.5;" x="141.335816" xlink:href="#m73479533ed" y="77.727273"/>
      </g>
     </g>
     <g id="text_8">
      <!-- 30 -->
      <defs>
       <path d="M 46.09375 17.828125 
Q 46.09375 13.375 44.53125 9.875 
Q 42.96875 6.390625 40.015625 3.96875 
Q 37.0625 1.5625 32.734375 0.28125 
Q 28.421875 -0.984375 22.90625 -0.984375 
Q 18.0625 -0.984375 13.515625 -0.390625 
Q 8.984375 0.203125 5.328125 1.125 
L 4.78125 14.890625 
L 8.015625 14.890625 
L 10.203125 5.71875 
Q 11.078125 5.21875 12.5 4.734375 
Q 13.921875 4.25 15.546875 3.875 
Q 17.1875 3.515625 18.921875 3.296875 
Q 20.65625 3.078125 22.125 3.078125 
Q 26.65625 3.078125 29.5625 4.203125 
Q 32.46875 5.328125 34.15625 7.34375 
Q 35.84375 9.375 36.46875 12.171875 
Q 37.109375 14.984375 37.109375 18.3125 
Q 37.109375 22.125 36.03125 24.640625 
Q 34.96875 27.15625 33.078125 28.6875 
Q 31.203125 30.21875 28.6875 30.921875 
Q 26.171875 31.640625 23.296875 31.78125 
L 16.3125 32.171875 
L 16.3125 36.1875 
L 23.296875 36.625 
Q 28.8125 36.921875 31.4375 40.046875 
Q 34.078125 43.171875 34.078125 49.515625 
Q 34.078125 52.6875 33.421875 55.046875 
Q 32.765625 57.421875 31.34375 58.984375 
Q 29.9375 60.546875 27.65625 61.328125 
Q 25.390625 62.109375 22.125 62.109375 
Q 20.65625 62.109375 19.15625 61.890625 
Q 17.671875 61.671875 16.296875 61.296875 
Q 14.9375 60.9375 13.765625 60.46875 
Q 12.59375 60.015625 11.71875 59.515625 
L 10.015625 51.515625 
L 6.78125 51.515625 
L 6.78125 64.109375 
Q 8.5 64.546875 10.203125 64.9375 
Q 11.921875 65.328125 13.765625 65.59375 
Q 15.625 65.875 17.671875 66.046875 
Q 19.734375 66.21875 22.125 66.21875 
Q 32.421875 66.21875 37.765625 62.25 
Q 43.109375 58.296875 43.109375 50.09375 
Q 43.109375 47.015625 42.28125 44.359375 
Q 41.453125 41.703125 39.6875 39.640625 
Q 37.9375 37.59375 35.21875 36.203125 
Q 32.515625 34.8125 28.8125 34.28125 
Q 37.703125 33.25 41.890625 29.171875 
Q 46.09375 25.09375 46.09375 17.828125 
z
" id="LiberationSerif-51"/>
      </defs>
      <g transform="translate(137.335816 148.55125)scale(0.08 -0.08)">
       <use xlink:href="#LiberationSerif-51"/>
       <use x="50" xlink:href="#LiberationSerif-48"/>
      </g>
     </g>
    </g>
    <g id="xtick_29">
     <g id="line2d_72">
      <g>
       <use style="stroke:#000000;stroke-width:0.5;" x="178.915408" xlink:href="#m17efaa2d8a" y="139.5"/>
      </g>
     </g>
     <g id="line2d_73">
      <g>
       <use style="stroke:#000000;stroke-width:0.5;" x="178.915408" xlink:href="#m73479533ed" y="77.727273"/>
      </g>
     </g>
     <g id="text_9">
      <!-- 40 -->
      <defs>
       <path d="M 39.546875 14.40625 
L 39.546875 0 
L 31.15625 0 
L 31.15625 14.40625 
L 1.953125 14.40625 
L 1.953125 20.90625 
L 33.9375 65.828125 
L 39.546875 65.828125 
L 39.546875 21.390625 
L 48.4375 21.390625 
L 48.4375 14.40625 
z
M 31.15625 54.34375 
L 30.90625 54.34375 
L 7.46875 21.390625 
L 31.15625 21.390625 
z
" id="LiberationSerif-52"/>
      </defs>
      <g transform="translate(174.915408 148.55125)scale(0.08 -0.08)">
       <use xlink:href="#LiberationSerif-52"/>
       <use x="50" xlink:href="#LiberationSerif-48"/>
      </g>
     </g>
    </g>
    <g id="xtick_30">
     <g id="line2d_74">
      <g>
       <use style="stroke:#000000;stroke-width:0.5;" x="216.495" xlink:href="#m17efaa2d8a" y="139.5"/>
      </g>
     </g>
     <g id="line2d_75">
      <g>
       <use style="stroke:#000000;stroke-width:0.5;" x="216.495" xlink:href="#m73479533ed" y="77.727273"/>
      </g>
     </g>
     <g id="text_10">
      <!-- 50 -->
      <defs>
       <path d="M 23.6875 38.28125 
Q 29.15625 38.28125 33.34375 37.171875 
Q 37.546875 36.078125 40.375 33.78125 
Q 43.21875 31.5 44.65625 27.953125 
Q 46.09375 24.421875 46.09375 19.484375 
Q 46.09375 14.84375 44.703125 11.078125 
Q 43.3125 7.328125 40.421875 4.640625 
Q 37.546875 1.953125 33.171875 0.484375 
Q 28.8125 -0.984375 22.90625 -0.984375 
Q 18.3125 -0.984375 14.1875 -0.46875 
Q 10.0625 0.046875 6.34375 1.125 
L 5.8125 14.890625 
L 9.03125 14.890625 
L 11.234375 5.71875 
Q 12.109375 5.21875 13.34375 4.734375 
Q 14.59375 4.25 16.0625 3.875 
Q 17.53125 3.515625 19.09375 3.296875 
Q 20.65625 3.078125 22.125 3.078125 
Q 26.65625 3.078125 29.5625 4.21875 
Q 32.46875 5.375 34.15625 7.46875 
Q 35.84375 9.578125 36.46875 12.5 
Q 37.109375 15.4375 37.109375 19 
Q 37.109375 22.796875 36.453125 25.625 
Q 35.796875 28.46875 34.03125 30.375 
Q 32.28125 32.28125 29.21875 33.234375 
Q 26.171875 34.1875 21.390625 34.1875 
Q 18.5 34.1875 16.296875 33.796875 
Q 14.109375 33.40625 12.703125 33.015625 
L 8.015625 33.015625 
L 8.015625 65.484375 
L 41.21875 65.484375 
L 41.21875 58.015625 
L 12.40625 58.015625 
L 12.40625 37.109375 
Q 13.28125 37.3125 14.375 37.5 
Q 15.484375 37.703125 16.828125 37.859375 
Q 18.171875 38.03125 19.84375 38.15625 
Q 21.53125 38.28125 23.6875 38.28125 
z
" id="LiberationSerif-53"/>
      </defs>
      <g transform="translate(212.495 148.55125)scale(0.08 -0.08)">
       <use xlink:href="#LiberationSerif-53"/>
       <use x="50" xlink:href="#LiberationSerif-48"/>
      </g>
     </g>
    </g>
    <g id="xtick_31">
     <g id="line2d_76">
      <g>
       <use style="stroke:#000000;stroke-width:0.5;" x="36.112959" xlink:href="#mb28fab1cf8" y="139.5"/>
      </g>
     </g>
     <g id="line2d_77">
      <g>
       <use style="stroke:#000000;stroke-width:0.5;" x="36.112959" xlink:href="#m4b60b93972" y="77.727273"/>
      </g>
     </g>
    </g>
    <g id="xtick_32">
     <g id="line2d_78">
      <g>
       <use style="stroke:#000000;stroke-width:0.5;" x="43.628878" xlink:href="#mb28fab1cf8" y="139.5"/>
      </g>
     </g>
     <g id="line2d_79">
      <g>
       <use style="stroke:#000000;stroke-width:0.5;" x="43.628878" xlink:href="#m4b60b93972" y="77.727273"/>
      </g>
     </g>
    </g>
    <g id="xtick_33">
     <g id="line2d_80">
      <g>
       <use style="stroke:#000000;stroke-width:0.5;" x="51.144796" xlink:href="#mb28fab1cf8" y="139.5"/>
      </g>
     </g>
     <g id="line2d_81">
      <g>
       <use style="stroke:#000000;stroke-width:0.5;" x="51.144796" xlink:href="#m4b60b93972" y="77.727273"/>
      </g>
     </g>
    </g>
    <g id="xtick_34">
     <g id="line2d_82">
      <g>
       <use style="stroke:#000000;stroke-width:0.5;" x="58.660714" xlink:href="#mb28fab1cf8" y="139.5"/>
      </g>
     </g>
     <g id="line2d_83">
      <g>
       <use style="stroke:#000000;stroke-width:0.5;" x="58.660714" xlink:href="#m4b60b93972" y="77.727273"/>
      </g>
     </g>
    </g>
    <g id="xtick_35">
     <g id="line2d_84">
      <g>
       <use style="stroke:#000000;stroke-width:0.5;" x="73.692551" xlink:href="#mb28fab1cf8" y="139.5"/>
      </g>
     </g>
     <g id="line2d_85">
      <g>
       <use style="stroke:#000000;stroke-width:0.5;" x="73.692551" xlink:href="#m4b60b93972" y="77.727273"/>
      </g>
     </g>
    </g>
    <g id="xtick_36">
     <g id="line2d_86">
      <g>
       <use style="stroke:#000000;stroke-width:0.5;" x="81.208469" xlink:href="#mb28fab1cf8" y="139.5"/>
      </g>
     </g>
     <g id="line2d_87">
      <g>
       <use style="stroke:#000000;stroke-width:0.5;" x="81.208469" xlink:href="#m4b60b93972" y="77.727273"/>
      </g>
     </g>
    </g>
    <g id="xtick_37">
     <g id="line2d_88">
      <g>
       <use style="stroke:#000000;stroke-width:0.5;" x="88.724388" xlink:href="#mb28fab1cf8" y="139.5"/>
      </g>
     </g>
     <g id="line2d_89">
      <g>
       <use style="stroke:#000000;stroke-width:0.5;" x="88.724388" xlink:href="#m4b60b93972" y="77.727273"/>
      </g>
     </g>
    </g>
    <g id="xtick_38">
     <g id="line2d_90">
      <g>
       <use style="stroke:#000000;stroke-width:0.5;" x="96.240306" xlink:href="#mb28fab1cf8" y="139.5"/>
      </g>
     </g>
     <g id="line2d_91">
      <g>
       <use style="stroke:#000000;stroke-width:0.5;" x="96.240306" xlink:href="#m4b60b93972" y="77.727273"/>
      </g>
     </g>
    </g>
    <g id="xtick_39">
     <g id="line2d_92">
      <g>
       <use style="stroke:#000000;stroke-width:0.5;" x="111.272143" xlink:href="#mb28fab1cf8" y="139.5"/>
      </g>
     </g>
     <g id="line2d_93">
      <g>
       <use style="stroke:#000000;stroke-width:0.5;" x="111.272143" xlink:href="#m4b60b93972" y="77.727273"/>
      </g>
     </g>
    </g>
    <g id="xtick_40">
     <g id="line2d_94">
      <g>
       <use style="stroke:#000000;stroke-width:0.5;" x="118.788061" xlink:href="#mb28fab1cf8" y="139.5"/>
      </g>
     </g>
     <g id="line2d_95">
      <g>
       <use style="stroke:#000000;stroke-width:0.5;" x="118.788061" xlink:href="#m4b60b93972" y="77.727273"/>
      </g>
     </g>
    </g>
    <g id="xtick_41">
     <g id="line2d_96">
      <g>
       <use style="stroke:#000000;stroke-width:0.5;" x="126.30398" xlink:href="#mb28fab1cf8" y="139.5"/>
      </g>
     </g>
     <g id="line2d_97">
      <g>
       <use style="stroke:#000000;stroke-width:0.5;" x="126.30398" xlink:href="#m4b60b93972" y="77.727273"/>
      </g>
     </g>
    </g>
    <g id="xtick_42">
     <g id="line2d_98">
      <g>
       <use style="stroke:#000000;stroke-width:0.5;" x="133.819898" xlink:href="#mb28fab1cf8" y="139.5"/>
      </g>
     </g>
     <g id="line2d_99">
      <g>
       <use style="stroke:#000000;stroke-width:0.5;" x="133.819898" xlink:href="#m4b60b93972" y="77.727273"/>
      </g>
     </g>
    </g>
    <g id="xtick_43">
     <g id="line2d_100">
      <g>
       <use style="stroke:#000000;stroke-width:0.5;" x="148.851735" xlink:href="#mb28fab1cf8" y="139.5"/>
      </g>
     </g>
     <g id="line2d_101">
      <g>
       <use style="stroke:#000000;stroke-width:0.5;" x="148.851735" xlink:href="#m4b60b93972" y="77.727273"/>
      </g>
     </g>
    </g>
    <g id="xtick_44">
     <g id="line2d_102">
      <g>
       <use style="stroke:#000000;stroke-width:0.5;" x="156.367653" xlink:href="#mb28fab1cf8" y="139.5"/>
      </g>
     </g>
     <g id="line2d_103">
      <g>
       <use style="stroke:#000000;stroke-width:0.5;" x="156.367653" xlink:href="#m4b60b93972" y="77.727273"/>
      </g>
     </g>
    </g>
    <g id="xtick_45">
     <g id="line2d_104">
      <g>
       <use style="stroke:#000000;stroke-width:0.5;" x="163.883571" xlink:href="#mb28fab1cf8" y="139.5"/>
      </g>
     </g>
     <g id="line2d_105">
      <g>
       <use style="stroke:#000000;stroke-width:0.5;" x="163.883571" xlink:href="#m4b60b93972" y="77.727273"/>
      </g>
     </g>
    </g>
    <g id="xtick_46">
     <g id="line2d_106">
      <g>
       <use style="stroke:#000000;stroke-width:0.5;" x="171.39949" xlink:href="#mb28fab1cf8" y="139.5"/>
      </g>
     </g>
     <g id="line2d_107">
      <g>
       <use style="stroke:#000000;stroke-width:0.5;" x="171.39949" xlink:href="#m4b60b93972" y="77.727273"/>
      </g>
     </g>
    </g>
    <g id="xtick_47">
     <g id="line2d_108">
      <g>
       <use style="stroke:#000000;stroke-width:0.5;" x="186.431327" xlink:href="#mb28fab1cf8" y="139.5"/>
      </g>
     </g>
     <g id="line2d_109">
      <g>
       <use style="stroke:#000000;stroke-width:0.5;" x="186.431327" xlink:href="#m4b60b93972" y="77.727273"/>
      </g>
     </g>
    </g>
    <g id="xtick_48">
     <g id="line2d_110">
      <g>
       <use style="stroke:#000000;stroke-width:0.5;" x="193.947245" xlink:href="#mb28fab1cf8" y="139.5"/>
      </g>
     </g>
     <g id="line2d_111">
      <g>
       <use style="stroke:#000000;stroke-width:0.5;" x="193.947245" xlink:href="#m4b60b93972" y="77.727273"/>
      </g>
     </g>
    </g>
    <g id="xtick_49">
     <g id="line2d_112">
      <g>
       <use style="stroke:#000000;stroke-width:0.5;" x="201.463163" xlink:href="#mb28fab1cf8" y="139.5"/>
      </g>
     </g>
     <g id="line2d_113">
      <g>
       <use style="stroke:#000000;stroke-width:0.5;" x="201.463163" xlink:href="#m4b60b93972" y="77.727273"/>
      </g>
     </g>
    </g>
    <g id="xtick_50">
     <g id="line2d_114">
      <g>
       <use style="stroke:#000000;stroke-width:0.5;" x="208.979082" xlink:href="#mb28fab1cf8" y="139.5"/>
      </g>
     </g>
     <g id="line2d_115">
      <g>
       <use style="stroke:#000000;stroke-width:0.5;" x="208.979082" xlink:href="#m4b60b93972" y="77.727273"/>
      </g>
     </g>
    </g>
    <g id="text_11">
     <!-- Epochs -->
     <defs>
      <path d="M 2.875 2.59375 
L 11.28125 3.90625 
L 11.28125 61.625 
L 2.875 62.890625 
L 2.875 65.484375 
L 52 65.484375 
L 52 49.8125 
L 48.78125 49.8125 
L 47.21875 60.40625 
Q 45.65625 60.59375 43.4375 60.734375 
Q 41.21875 60.890625 38.921875 60.953125 
Q 36.625 61.03125 34.5625 61.046875 
Q 32.515625 61.078125 31.390625 61.078125 
L 20.703125 61.078125 
L 20.703125 35.5 
L 38.375 35.5 
L 39.890625 43.3125 
L 43.015625 43.3125 
L 43.015625 23.1875 
L 39.890625 23.1875 
L 38.375 31.109375 
L 20.703125 31.109375 
L 20.703125 4.390625 
L 33.59375 4.390625 
Q 36.625 4.390625 39.3125 4.46875 
Q 42 4.546875 44.140625 4.640625 
Q 46.296875 4.734375 47.828125 4.875 
Q 49.359375 5.03125 50.09375 5.171875 
L 52.875 17.28125 
L 56.109375 17.28125 
L 55.171875 0 
L 2.875 0 
z
" id="LiberationSerif-69"/>
      <path d="M 7.421875 42.484375 
L 2.203125 43.703125 
L 2.203125 45.90625 
L 15.09375 45.90625 
L 15.1875 43.21875 
Q 16.21875 44.09375 17.609375 44.796875 
Q 19 45.515625 20.609375 46.015625 
Q 22.21875 46.53125 24.015625 46.828125 
Q 25.828125 47.125 27.6875 47.125 
Q 31.984375 47.125 35.390625 45.609375 
Q 38.8125 44.09375 41.203125 41.09375 
Q 43.609375 38.09375 44.84375 33.671875 
Q 46.09375 29.25 46.09375 23.484375 
Q 46.09375 17.875 44.828125 13.359375 
Q 43.5625 8.84375 41.015625 5.640625 
Q 38.484375 2.4375 34.640625 0.71875 
Q 30.8125 -0.984375 25.6875 -0.984375 
Q 23.1875 -0.984375 20.421875 -0.703125 
Q 17.671875 -0.4375 15.1875 0.09375 
Q 15.234375 -0.484375 15.296875 -1.234375 
Q 15.375 -2 15.40625 -2.796875 
Q 15.4375 -3.609375 15.453125 -4.296875 
Q 15.484375 -4.984375 15.484375 -5.421875 
L 15.484375 -17.828125 
L 23.484375 -19 
L 23.484375 -21.296875 
L 1.609375 -21.296875 
L 1.609375 -19 
L 7.421875 -17.828125 
z
M 37.3125 23.484375 
Q 37.3125 28.46875 36.46875 31.984375 
Q 35.640625 35.5 34.046875 37.71875 
Q 32.46875 39.9375 30.171875 40.96875 
Q 27.875 42 25 42 
Q 22.65625 42 19.984375 41.578125 
Q 17.328125 41.15625 15.484375 40.375 
L 15.484375 3.71875 
Q 17.53125 3.328125 20.015625 3.09375 
Q 22.515625 2.875 25 2.875 
Q 31.453125 2.875 34.375 8.21875 
Q 37.3125 13.578125 37.3125 23.484375 
z
" id="LiberationSerif-112"/>
      <path d="M 41.3125 2.78125 
Q 40.046875 1.859375 38.28125 1.140625 
Q 36.53125 0.4375 34.515625 -0.015625 
Q 32.515625 -0.484375 30.34375 -0.734375 
Q 28.171875 -0.984375 26.125 -0.984375 
Q 20.171875 -0.984375 15.9375 0.65625 
Q 11.71875 2.296875 9.03125 5.421875 
Q 6.34375 8.546875 5.078125 13.0625 
Q 3.8125 17.578125 3.8125 23.296875 
Q 3.8125 29.546875 5.4375 34.0625 
Q 7.078125 38.578125 10 41.484375 
Q 12.9375 44.390625 16.96875 45.75 
Q 21 47.125 25.78125 47.125 
Q 29.734375 47.125 33.4375 46.65625 
Q 37.15625 46.1875 40.1875 45.609375 
L 40.1875 32.8125 
L 37.5 32.8125 
L 35.40625 40.921875 
Q 33.59375 41.9375 31.03125 42.578125 
Q 28.46875 43.21875 25.6875 43.21875 
Q 22.515625 43.21875 20.09375 42.0625 
Q 17.671875 40.921875 15.984375 38.46875 
Q 14.3125 36.03125 13.453125 32.265625 
Q 12.59375 28.515625 12.59375 23.296875 
Q 12.59375 18.890625 13.328125 15.34375 
Q 14.0625 11.8125 15.921875 9.328125 
Q 17.78125 6.84375 20.921875 5.46875 
Q 24.078125 4.109375 28.90625 4.109375 
Q 30.5625 4.109375 32.296875 4.21875 
Q 34.03125 4.34375 35.671875 4.5625 
Q 37.3125 4.78125 38.75 5.078125 
Q 40.1875 5.375 41.3125 5.71875 
z
" id="LiberationSerif-99"/>
      <path d="M 15.921875 49.515625 
Q 15.921875 48.828125 15.890625 47.84375 
Q 15.875 46.875 15.84375 45.828125 
Q 15.828125 44.78125 15.75 43.796875 
Q 15.671875 42.828125 15.578125 42.1875 
Q 16.9375 42.96875 18.890625 43.84375 
Q 20.84375 44.734375 22.96875 45.453125 
Q 25.09375 46.1875 27.21875 46.65625 
Q 29.34375 47.125 31.109375 47.125 
Q 33.734375 47.125 35.9375 46.390625 
Q 38.140625 45.65625 39.71875 44.046875 
Q 41.3125 42.4375 42.203125 39.84375 
Q 43.109375 37.25 43.109375 33.59375 
L 43.109375 3.421875 
L 48.6875 2.203125 
L 48.6875 0 
L 28.90625 0 
L 28.90625 2.203125 
L 35.015625 3.421875 
L 35.015625 33.015625 
Q 35.015625 37.0625 33.03125 39.234375 
Q 31.0625 41.40625 26.90625 41.40625 
Q 25.53125 41.40625 24 41.25 
Q 22.46875 41.109375 20.953125 40.90625 
Q 19.4375 40.71875 18.109375 40.453125 
Q 16.796875 40.1875 15.921875 39.984375 
L 15.921875 3.421875 
L 22.125 2.203125 
L 22.125 0 
L 2 0 
L 2 2.203125 
L 7.8125 3.421875 
L 7.8125 66.015625 
L 0.984375 67.1875 
L 0.984375 69.390625 
L 15.921875 69.390625 
z
" id="LiberationSerif-104"/>
     </defs>
     <g transform="translate(112.649375 159.80625)scale(0.08 -0.08)">
      <use xlink:href="#LiberationSerif-69"/>
      <use x="61.083984" xlink:href="#LiberationSerif-112"/>
      <use x="111.083984" xlink:href="#LiberationSerif-111"/>
      <use x="161.083984" xlink:href="#LiberationSerif-99"/>
      <use x="205.46875" xlink:href="#LiberationSerif-104"/>
      <use x="255.46875" xlink:href="#LiberationSerif-115"/>
     </g>
    </g>
   </g>
   <g id="matplotlib.axis_4">
    <g id="ytick_10">
     <g id="line2d_116">
      <g>
       <use style="stroke:#000000;stroke-width:0.5;" x="32.355" xlink:href="#m25c6eb8824" y="139.5"/>
      </g>
     </g>
     <g id="line2d_117">
      <defs>
       <path d="M 0 0 
L -3 0 
" id="md2daa3e6b9" style="stroke:#000000;stroke-width:0.5;"/>
      </defs>
      <g>
       <use style="stroke:#000000;stroke-width:0.5;" x="216.495" xlink:href="#md2daa3e6b9" y="139.5"/>
      </g>
     </g>
     <g id="text_12">
      <!-- 0.50 -->
      <defs>
       <path d="M 18.40625 4.5 
Q 18.40625 3.265625 17.9375 2.1875 
Q 17.484375 1.125 16.703125 0.3125 
Q 15.921875 -0.484375 14.8125 -0.953125 
Q 13.71875 -1.421875 12.5 -1.421875 
Q 11.234375 -1.421875 10.15625 -0.953125 
Q 9.078125 -0.484375 8.296875 0.3125 
Q 7.515625 1.125 7.046875 2.1875 
Q 6.59375 3.265625 6.59375 4.5 
Q 6.59375 5.71875 7.046875 6.8125 
Q 7.515625 7.90625 8.296875 8.6875 
Q 9.078125 9.46875 10.15625 9.9375 
Q 11.234375 10.40625 12.5 10.40625 
Q 13.71875 10.40625 14.8125 9.9375 
Q 15.921875 9.46875 16.703125 8.6875 
Q 17.484375 7.90625 17.9375 6.8125 
Q 18.40625 5.71875 18.40625 4.5 
z
" id="LiberationSerif-46"/>
      </defs>
      <g transform="translate(14.855 142.275625)scale(0.08 -0.08)">
       <use xlink:href="#LiberationSerif-48"/>
       <use x="50" xlink:href="#LiberationSerif-46"/>
       <use x="75" xlink:href="#LiberationSerif-53"/>
       <use x="125" xlink:href="#LiberationSerif-48"/>
      </g>
     </g>
    </g>
    <g id="ytick_11">
     <g id="line2d_118">
      <g>
       <use style="stroke:#000000;stroke-width:0.5;" x="32.355" xlink:href="#m25c6eb8824" y="113.761364"/>
      </g>
     </g>
     <g id="line2d_119">
      <g>
       <use style="stroke:#000000;stroke-width:0.5;" x="216.495" xlink:href="#md2daa3e6b9" y="113.761364"/>
      </g>
     </g>
     <g id="text_13">
      <!-- 0.75 -->
      <defs>
       <path d="M 9.8125 50 
L 6.59375 50 
L 6.59375 65.484375 
L 47.125 65.484375 
L 47.125 61.71875 
L 17.921875 0 
L 11.625 0 
L 40.28125 58.015625 
L 11.53125 58.015625 
z
" id="LiberationSerif-55"/>
      </defs>
      <g transform="translate(14.855 116.536989)scale(0.08 -0.08)">
       <use xlink:href="#LiberationSerif-48"/>
       <use x="50" xlink:href="#LiberationSerif-46"/>
       <use x="75" xlink:href="#LiberationSerif-55"/>
       <use x="125" xlink:href="#LiberationSerif-53"/>
      </g>
     </g>
    </g>
    <g id="ytick_12">
     <g id="line2d_120">
      <g>
       <use style="stroke:#000000;stroke-width:0.5;" x="32.355" xlink:href="#m25c6eb8824" y="88.022727"/>
      </g>
     </g>
     <g id="line2d_121">
      <g>
       <use style="stroke:#000000;stroke-width:0.5;" x="216.495" xlink:href="#md2daa3e6b9" y="88.022727"/>
      </g>
     </g>
     <g id="text_14">
      <!-- 1.00 -->
      <g transform="translate(14.855 90.798352)scale(0.08 -0.08)">
       <use xlink:href="#LiberationSerif-49"/>
       <use x="50" xlink:href="#LiberationSerif-46"/>
       <use x="75" xlink:href="#LiberationSerif-48"/>
       <use x="125" xlink:href="#LiberationSerif-48"/>
      </g>
     </g>
    </g>
    <g id="ytick_13">
     <g id="line2d_122">
      <g>
       <use style="stroke:#000000;stroke-width:0.5;" x="32.355" xlink:href="#m1208336186" y="134.352273"/>
      </g>
     </g>
     <g id="line2d_123">
      <defs>
       <path d="M 0 0 
L -1.5 0 
" id="m1f694080a4" style="stroke:#000000;stroke-width:0.5;"/>
      </defs>
      <g>
       <use style="stroke:#000000;stroke-width:0.5;" x="216.495" xlink:href="#m1f694080a4" y="134.352273"/>
      </g>
     </g>
    </g>
    <g id="ytick_14">
     <g id="line2d_124">
      <g>
       <use style="stroke:#000000;stroke-width:0.5;" x="32.355" xlink:href="#m1208336186" y="129.204545"/>
      </g>
     </g>
     <g id="line2d_125">
      <g>
       <use style="stroke:#000000;stroke-width:0.5;" x="216.495" xlink:href="#m1f694080a4" y="129.204545"/>
      </g>
     </g>
    </g>
    <g id="ytick_15">
     <g id="line2d_126">
      <g>
       <use style="stroke:#000000;stroke-width:0.5;" x="32.355" xlink:href="#m1208336186" y="124.056818"/>
      </g>
     </g>
     <g id="line2d_127">
      <g>
       <use style="stroke:#000000;stroke-width:0.5;" x="216.495" xlink:href="#m1f694080a4" y="124.056818"/>
      </g>
     </g>
    </g>
    <g id="ytick_16">
     <g id="line2d_128">
      <g>
       <use style="stroke:#000000;stroke-width:0.5;" x="32.355" xlink:href="#m1208336186" y="118.909091"/>
      </g>
     </g>
     <g id="line2d_129">
      <g>
       <use style="stroke:#000000;stroke-width:0.5;" x="216.495" xlink:href="#m1f694080a4" y="118.909091"/>
      </g>
     </g>
    </g>
    <g id="ytick_17">
     <g id="line2d_130">
      <g>
       <use style="stroke:#000000;stroke-width:0.5;" x="32.355" xlink:href="#m1208336186" y="108.613636"/>
      </g>
     </g>
     <g id="line2d_131">
      <g>
       <use style="stroke:#000000;stroke-width:0.5;" x="216.495" xlink:href="#m1f694080a4" y="108.613636"/>
      </g>
     </g>
    </g>
    <g id="ytick_18">
     <g id="line2d_132">
      <g>
       <use style="stroke:#000000;stroke-width:0.5;" x="32.355" xlink:href="#m1208336186" y="103.465909"/>
      </g>
     </g>
     <g id="line2d_133">
      <g>
       <use style="stroke:#000000;stroke-width:0.5;" x="216.495" xlink:href="#m1f694080a4" y="103.465909"/>
      </g>
     </g>
    </g>
    <g id="ytick_19">
     <g id="line2d_134">
      <g>
       <use style="stroke:#000000;stroke-width:0.5;" x="32.355" xlink:href="#m1208336186" y="98.318182"/>
      </g>
     </g>
     <g id="line2d_135">
      <g>
       <use style="stroke:#000000;stroke-width:0.5;" x="216.495" xlink:href="#m1f694080a4" y="98.318182"/>
      </g>
     </g>
    </g>
    <g id="ytick_20">
     <g id="line2d_136">
      <g>
       <use style="stroke:#000000;stroke-width:0.5;" x="32.355" xlink:href="#m1208336186" y="93.170455"/>
      </g>
     </g>
     <g id="line2d_137">
      <g>
       <use style="stroke:#000000;stroke-width:0.5;" x="216.495" xlink:href="#m1f694080a4" y="93.170455"/>
      </g>
     </g>
    </g>
    <g id="ytick_21">
     <g id="line2d_138">
      <g>
       <use style="stroke:#000000;stroke-width:0.5;" x="32.355" xlink:href="#m1208336186" y="82.875"/>
      </g>
     </g>
     <g id="line2d_139">
      <g>
       <use style="stroke:#000000;stroke-width:0.5;" x="216.495" xlink:href="#m1f694080a4" y="82.875"/>
      </g>
     </g>
    </g>
    <g id="ytick_22">
     <g id="line2d_140">
      <g>
       <use style="stroke:#000000;stroke-width:0.5;" x="32.355" xlink:href="#m1208336186" y="77.727273"/>
      </g>
     </g>
     <g id="line2d_141">
      <g>
       <use style="stroke:#000000;stroke-width:0.5;" x="216.495" xlink:href="#m1f694080a4" y="77.727273"/>
      </g>
     </g>
    </g>
    <g id="text_15">
     <!-- Accuracy -->
     <defs>
      <path d="M 22.515625 2.59375 
L 22.515625 0 
L 0.984375 0 
L 0.984375 2.59375 
L 8.40625 3.90625 
L 30.71875 66.015625 
L 39.984375 66.015625 
L 63.1875 3.90625 
L 71.484375 2.59375 
L 71.484375 0 
L 43.796875 0 
L 43.796875 2.59375 
L 52.59375 3.90625 
L 46.09375 22.796875 
L 20.3125 22.796875 
L 13.71875 3.90625 
z
M 33.015625 58.984375 
L 21.78125 27.203125 
L 44.578125 27.203125 
z
" id="LiberationSerif-65"/>
      <path d="M 15.28125 13.09375 
Q 15.28125 9.03125 17.109375 6.859375 
Q 18.953125 4.6875 23.09375 4.6875 
Q 25.828125 4.6875 28.75 5.046875 
Q 31.6875 5.421875 34.421875 6.203125 
L 34.421875 42.484375 
L 27.484375 43.703125 
L 27.484375 45.90625 
L 42.484375 45.90625 
L 42.484375 3.421875 
L 48.296875 2.203125 
L 48.296875 0 
L 34.90625 0 
L 34.515625 3.71875 
Q 33.109375 2.9375 31.15625 2.09375 
Q 29.203125 1.265625 27.078125 0.578125 
Q 24.953125 -0.09375 22.796875 -0.53125 
Q 20.65625 -0.984375 18.890625 -0.984375 
Q 16.265625 -0.984375 14.109375 -0.25 
Q 11.96875 0.484375 10.421875 2.09375 
Q 8.890625 3.71875 8.03125 6.28125 
Q 7.171875 8.84375 7.171875 12.5 
L 7.171875 42.484375 
L 1.3125 43.703125 
L 1.3125 45.90625 
L 15.28125 45.90625 
z
" id="LiberationSerif-117"/>
      <path d="M 44.828125 42.671875 
L 26.90625 -2.875 
Q 25.34375 -6.84375 23.734375 -10.25 
Q 22.125 -13.671875 20.140625 -16.1875 
Q 18.171875 -18.703125 15.625 -20.140625 
Q 13.09375 -21.578125 9.71875 -21.578125 
Q 8.453125 -21.578125 7.5 -21.53125 
Q 6.546875 -21.484375 5.71875 -21.359375 
Q 4.890625 -21.234375 4.046875 -21.09375 
Q 3.21875 -20.953125 2.203125 -20.703125 
L 2.203125 -10.796875 
L 4.5 -10.796875 
L 6.109375 -15.484375 
Q 7.625 -16.609375 10.296875 -16.609375 
Q 12.40625 -16.609375 14.109375 -15.671875 
Q 15.828125 -14.75 17.265625 -13.0625 
Q 18.703125 -11.375 19.875 -9.078125 
Q 21.046875 -6.78125 22.125 -4 
L 23.390625 -0.484375 
L 5.90625 42.484375 
L 1.21875 43.703125 
L 1.21875 45.90625 
L 22.515625 45.90625 
L 22.515625 43.703125 
L 15.28125 42.390625 
L 27.6875 10.296875 
L 39.703125 42.484375 
L 32.515625 43.703125 
L 32.515625 45.90625 
L 49.609375 45.90625 
L 49.609375 43.703125 
z
" id="LiberationSerif-121"/>
     </defs>
     <g transform="translate(9.12875 123.936761)rotate(-90)scale(0.08 -0.08)">
      <use xlink:href="#LiberationSerif-65"/>
      <use x="72.216797" xlink:href="#LiberationSerif-99"/>
      <use x="116.601562" xlink:href="#LiberationSerif-99"/>
      <use x="160.986328" xlink:href="#LiberationSerif-117"/>
      <use x="210.986328" xlink:href="#LiberationSerif-114"/>
      <use x="244.287109" xlink:href="#LiberationSerif-97"/>
      <use x="288.671875" xlink:href="#LiberationSerif-99"/>
      <use x="333.056641" xlink:href="#LiberationSerif-121"/>
     </g>
    </g>
   </g>
   <g id="line2d_142">
    <path clip-path="url(#p9aa76a26ce)" d="M 28.597041 116.978693 
L 32.355 113.761364 
L 36.112959 118.587358 
L 39.870918 102.50071 
L 43.628878 105.71804 
L 47.386837 110.544034 
L 51.144796 108.935369 
L 54.902755 104.109375 
L 58.660714 102.50071 
L 62.418673 94.457386 
L 66.176633 99.283381 
L 69.934592 96.066051 
L 73.692551 104.109375 
L 77.45051 94.457386 
L 81.208469 100.892045 
L 84.966429 99.283381 
L 88.724388 97.674716 
L 92.482347 94.457386 
L 96.240306 97.674716 
L 99.998265 97.674716 
L 103.756224 100.892045 
L 107.514184 91.240057 
L 111.272143 91.240057 
L 115.030102 102.50071 
L 118.788061 91.240057 
L 122.54602 97.674716 
L 126.30398 92.848722 
L 130.061939 92.848722 
L 133.819898 89.631392 
L 137.577857 100.892045 
L 141.335816 102.50071 
L 145.093776 91.291125 
L 148.851735 92.848722 
L 152.609694 92.848722 
L 156.367653 92.848722 
L 160.125612 94.457386 
L 163.883571 89.631392 
L 167.641531 89.631392 
L 171.39949 92.848722 
L 175.157449 91.240057 
L 178.915408 94.457386 
L 182.673367 94.457386 
L 186.431327 94.457386 
L 190.189286 92.848722 
L 193.947245 92.848722 
L 197.705204 89.631392 
L 201.463163 99.283381 
L 205.221122 94.457386 
L 208.979082 91.240057 
L 212.737041 91.240057 
" style="fill:none;stroke:#0000ff;stroke-linecap:square;"/>
   </g>
   <g id="line2d_143">
    <path clip-path="url(#p9aa76a26ce)" d="M 28.597041 129.848011 
L 32.355 134.674006 
L 36.112959 137.891335 
L 39.870918 141.108665 
L 43.628878 142.71733 
L 47.386837 136.28267 
L 51.144796 139.5 
L 54.902755 141.108665 
L 58.660714 123.413352 
L 62.418673 131.456676 
L 66.176633 133.065341 
L 69.934592 125.022017 
L 73.692551 139.5 
L 77.45051 134.674006 
L 81.208469 125.022017 
L 84.966429 123.413352 
L 88.724388 125.022017 
L 92.482347 121.804688 
L 96.240306 133.065341 
L 99.998265 115.370028 
L 103.756224 118.587358 
L 107.514184 123.413352 
L 111.272143 123.413352 
L 115.030102 126.630682 
L 118.788061 99.283381 
L 122.54602 105.71804 
L 126.30398 100.892045 
L 130.061939 102.50071 
L 133.819898 110.544034 
L 137.577857 104.109375 
L 141.335816 94.457386 
L 145.093776 107.326705 
L 148.851735 94.457386 
L 152.609694 96.066051 
L 156.367653 96.066051 
L 160.125612 94.457386 
L 163.883571 96.066051 
L 167.641531 94.457386 
L 171.39949 96.066051 
L 175.157449 92.848722 
L 178.915408 92.848722 
L 182.673367 96.066051 
L 186.431327 96.066051 
L 190.189286 94.457386 
L 193.947245 96.066051 
L 197.705204 97.674716 
L 201.463163 89.631392 
L 205.221122 91.240057 
L 208.979082 96.066051 
L 212.737041 91.240057 
" style="fill:none;stroke:#ff0000;stroke-dasharray:3.7,1.6;stroke-dashoffset:0;"/>
   </g>
   <g id="patch_8">
    <path d="M 32.355 139.5 
L 32.355 77.727273 
" style="fill:none;stroke:#000000;stroke-linecap:square;stroke-linejoin:miter;stroke-width:0.5;"/>
   </g>
   <g id="patch_9">
    <path d="M 216.495 139.5 
L 216.495 77.727273 
" style="fill:none;stroke:#000000;stroke-linecap:square;stroke-linejoin:miter;stroke-width:0.5;"/>
   </g>
   <g id="patch_10">
    <path d="M 32.355 139.5 
L 216.495 139.5 
" style="fill:none;stroke:#000000;stroke-linecap:square;stroke-linejoin:miter;stroke-width:0.5;"/>
   </g>
   <g id="patch_11">
    <path d="M 32.355 77.727273 
L 216.495 77.727273 
" style="fill:none;stroke:#000000;stroke-linecap:square;stroke-linejoin:miter;stroke-width:0.5;"/>
   </g>
   <g id="legend_2">
    <g id="line2d_144">
     <path d="M 154.015 116.47 
L 170.015 116.47 
" style="fill:none;stroke:#0000ff;stroke-linecap:square;"/>
    </g>
    <g id="line2d_145"/>
    <g id="text_16">
     <!-- Training -->
     <g transform="translate(176.415 119.27)scale(0.08 -0.08)">
      <use xlink:href="#LiberationSerif-84"/>
      <use x="57.583984" xlink:href="#LiberationSerif-114"/>
      <use x="90.884766" xlink:href="#LiberationSerif-97"/>
      <use x="135.269531" xlink:href="#LiberationSerif-105"/>
      <use x="163.052734" xlink:href="#LiberationSerif-110"/>
      <use x="213.052734" xlink:href="#LiberationSerif-105"/>
      <use x="240.835938" xlink:href="#LiberationSerif-110"/>
      <use x="290.835938" xlink:href="#LiberationSerif-103"/>
     </g>
    </g>
    <g id="line2d_146">
     <path d="M 154.015 127.79625 
L 170.015 127.79625 
" style="fill:none;stroke:#ff0000;stroke-dasharray:3.7,1.6;stroke-dashoffset:0;"/>
    </g>
    <g id="line2d_147"/>
    <g id="text_17">
     <!-- Validation -->
     <g transform="translate(176.415 130.59625)scale(0.08 -0.08)">
      <use xlink:href="#LiberationSerif-86"/>
      <use x="61.091797" xlink:href="#LiberationSerif-97"/>
      <use x="105.476562" xlink:href="#LiberationSerif-108"/>
      <use x="133.259766" xlink:href="#LiberationSerif-105"/>
      <use x="161.042969" xlink:href="#LiberationSerif-100"/>
      <use x="211.042969" xlink:href="#LiberationSerif-97"/>
      <use x="255.427734" xlink:href="#LiberationSerif-116"/>
      <use x="283.210938" xlink:href="#LiberationSerif-105"/>
      <use x="310.994141" xlink:href="#LiberationSerif-111"/>
      <use x="360.994141" xlink:href="#LiberationSerif-110"/>
     </g>
    </g>
   </g>
  </g>
  <g id="axes_3">
   <g id="matplotlib.axis_5">
    <g id="ytick_23">
     <g id="line2d_148">
      <g>
       <use style="stroke:#000000;stroke-width:0.5;" x="216.495" xlink:href="#md2daa3e6b9" y="63.612615"/>
      </g>
     </g>
     <g id="text_18">
      <!-- 0.0000 -->
      <g transform="translate(219.995 66.38824)scale(0.08 -0.08)">
       <use xlink:href="#LiberationSerif-48"/>
       <use x="50" xlink:href="#LiberationSerif-46"/>
       <use x="75" xlink:href="#LiberationSerif-48"/>
       <use x="125" xlink:href="#LiberationSerif-48"/>
       <use x="175" xlink:href="#LiberationSerif-48"/>
       <use x="225" xlink:href="#LiberationSerif-48"/>
      </g>
     </g>
    </g>
    <g id="ytick_24">
     <g id="line2d_149">
      <g>
       <use style="stroke:#000000;stroke-width:0.5;" x="216.495" xlink:href="#md2daa3e6b9" y="35.010235"/>
      </g>
     </g>
     <g id="text_19">
      <!-- 0.0005 -->
      <g transform="translate(219.995 37.78586)scale(0.08 -0.08)">
       <use xlink:href="#LiberationSerif-48"/>
       <use x="50" xlink:href="#LiberationSerif-46"/>
       <use x="75" xlink:href="#LiberationSerif-48"/>
       <use x="125" xlink:href="#LiberationSerif-48"/>
       <use x="175" xlink:href="#LiberationSerif-48"/>
       <use x="225" xlink:href="#LiberationSerif-53"/>
      </g>
     </g>
    </g>
    <g id="ytick_25">
     <g id="line2d_150">
      <g>
       <use style="stroke:#000000;stroke-width:0.5;" x="216.495" xlink:href="#md2daa3e6b9" y="6.407854"/>
      </g>
     </g>
     <g id="text_20">
      <!-- 0.0010 -->
      <g transform="translate(219.995 9.183479)scale(0.08 -0.08)">
       <use xlink:href="#LiberationSerif-48"/>
       <use x="50" xlink:href="#LiberationSerif-46"/>
       <use x="75" xlink:href="#LiberationSerif-48"/>
       <use x="125" xlink:href="#LiberationSerif-48"/>
       <use x="175" xlink:href="#LiberationSerif-49"/>
       <use x="225" xlink:href="#LiberationSerif-48"/>
      </g>
     </g>
    </g>
    <g id="ytick_26">
     <g id="line2d_151">
      <g>
       <use style="stroke:#000000;stroke-width:0.5;" x="216.495" xlink:href="#m1f694080a4" y="57.892139"/>
      </g>
     </g>
    </g>
    <g id="ytick_27">
     <g id="line2d_152">
      <g>
       <use style="stroke:#000000;stroke-width:0.5;" x="216.495" xlink:href="#m1f694080a4" y="52.171663"/>
      </g>
     </g>
    </g>
    <g id="ytick_28">
     <g id="line2d_153">
      <g>
       <use style="stroke:#000000;stroke-width:0.5;" x="216.495" xlink:href="#m1f694080a4" y="46.451187"/>
      </g>
     </g>
    </g>
    <g id="ytick_29">
     <g id="line2d_154">
      <g>
       <use style="stroke:#000000;stroke-width:0.5;" x="216.495" xlink:href="#m1f694080a4" y="40.730711"/>
      </g>
     </g>
    </g>
    <g id="ytick_30">
     <g id="line2d_155">
      <g>
       <use style="stroke:#000000;stroke-width:0.5;" x="216.495" xlink:href="#m1f694080a4" y="29.289759"/>
      </g>
     </g>
    </g>
    <g id="ytick_31">
     <g id="line2d_156">
      <g>
       <use style="stroke:#000000;stroke-width:0.5;" x="216.495" xlink:href="#m1f694080a4" y="23.569282"/>
      </g>
     </g>
    </g>
    <g id="ytick_32">
     <g id="line2d_157">
      <g>
       <use style="stroke:#000000;stroke-width:0.5;" x="216.495" xlink:href="#m1f694080a4" y="17.848806"/>
      </g>
     </g>
    </g>
    <g id="ytick_33">
     <g id="line2d_158">
      <g>
       <use style="stroke:#000000;stroke-width:0.5;" x="216.495" xlink:href="#m1f694080a4" y="12.12833"/>
      </g>
     </g>
    </g>
    <g id="text_21">
     <!-- Learning Rate -->
     <defs>
      <path d="M 12.703125 23.09375 
L 12.703125 22.21875 
Q 12.703125 18.65625 13.203125 15.375 
Q 13.71875 12.109375 15.25 9.59375 
Q 16.796875 7.078125 19.578125 5.59375 
Q 22.359375 4.109375 26.90625 4.109375 
Q 28.375 4.109375 29.984375 4.21875 
Q 31.59375 4.34375 33.203125 4.53125 
Q 34.8125 4.734375 36.328125 4.96875 
Q 37.84375 5.21875 39.109375 5.515625 
L 39.109375 2.78125 
Q 37.984375 2.046875 36.390625 1.390625 
Q 34.8125 0.734375 32.90625 0.1875 
Q 31 -0.34375 28.84375 -0.65625 
Q 26.703125 -0.984375 24.515625 -0.984375 
Q 18.796875 -0.984375 14.859375 0.578125 
Q 10.9375 2.15625 8.5 5.21875 
Q 6.0625 8.296875 4.984375 12.84375 
Q 3.90625 17.390625 3.90625 23.296875 
Q 3.90625 35.296875 8.9375 41.203125 
Q 13.96875 47.125 23.296875 47.125 
Q 26.953125 47.125 30.140625 46.140625 
Q 33.34375 45.171875 35.734375 42.875 
Q 38.140625 40.578125 39.53125 36.71875 
Q 40.921875 32.859375 40.921875 27.09375 
L 40.921875 23.09375 
z
M 23.296875 43.21875 
Q 20.5625 43.21875 18.578125 42.0625 
Q 16.609375 40.921875 15.3125 38.8125 
Q 14.015625 36.71875 13.40625 33.71875 
Q 12.796875 30.71875 12.796875 27 
L 32.421875 27 
Q 32.421875 30.71875 32 33.71875 
Q 31.59375 36.71875 30.546875 38.8125 
Q 29.5 40.921875 27.734375 42.0625 
Q 25.984375 43.21875 23.296875 43.21875 
z
" id="LiberationSerif-101"/>
      <path id="LiberationSerif-32"/>
      <path d="M 20.703125 28.71875 
L 20.703125 3.90625 
L 30.609375 2.59375 
L 30.609375 0 
L 3.515625 0 
L 3.515625 2.59375 
L 11.28125 3.90625 
L 11.28125 61.625 
L 2.875 62.890625 
L 2.875 65.484375 
L 31.15625 65.484375 
Q 38.03125 65.484375 42.640625 64.25 
Q 47.265625 63.03125 50.046875 60.765625 
Q 52.828125 58.5 54 55.265625 
Q 55.171875 52.046875 55.171875 48 
Q 55.171875 44.234375 54.078125 41.28125 
Q 52.984375 38.328125 51.125 36.078125 
Q 49.265625 33.84375 46.828125 32.34375 
Q 44.390625 30.859375 41.75 30.078125 
L 59.46875 3.90625 
L 66.546875 2.59375 
L 66.546875 0 
L 50.875 0 
L 32.46875 28.71875 
z
M 45.453125 47.3125 
Q 45.453125 51.21875 44.53125 53.859375 
Q 43.609375 56.5 41.625 58.109375 
Q 39.65625 59.71875 36.546875 60.390625 
Q 33.453125 61.078125 29.046875 61.078125 
L 20.703125 61.078125 
L 20.703125 33.109375 
L 29.34375 33.109375 
Q 33.84375 33.109375 36.90625 33.90625 
Q 39.984375 34.71875 41.890625 36.453125 
Q 43.796875 38.1875 44.625 40.875 
Q 45.453125 43.5625 45.453125 47.3125 
z
" id="LiberationSerif-82"/>
     </defs>
     <g style="fill:#008000;" transform="translate(251.52375 57.254489)rotate(-90)scale(0.08 -0.08)">
      <use xlink:href="#LiberationSerif-76"/>
      <use x="61.083984" xlink:href="#LiberationSerif-101"/>
      <use x="105.46875" xlink:href="#LiberationSerif-97"/>
      <use x="149.853516" xlink:href="#LiberationSerif-114"/>
      <use x="183.154297" xlink:href="#LiberationSerif-110"/>
      <use x="233.154297" xlink:href="#LiberationSerif-105"/>
      <use x="260.9375" xlink:href="#LiberationSerif-110"/>
      <use x="310.9375" xlink:href="#LiberationSerif-103"/>
      <use x="360.9375" xlink:href="#LiberationSerif-32"/>
      <use x="385.9375" xlink:href="#LiberationSerif-82"/>
      <use x="452.636719" xlink:href="#LiberationSerif-97"/>
      <use x="497.021484" xlink:href="#LiberationSerif-116"/>
      <use x="524.804688" xlink:href="#LiberationSerif-101"/>
     </g>
    </g>
   </g>
   <g id="line2d_159">
    <path clip-path="url(#p9bc9f4a9b1)" d="M 28.597041 6.407851 
L 32.355 6.407851 
L 36.112959 6.407851 
L 39.870918 6.407851 
L 43.628878 6.407851 
L 47.386837 6.407851 
L 51.144796 6.407851 
L 54.902755 6.407851 
L 58.660714 6.407851 
L 62.418673 6.407851 
L 66.176633 11.851608 
L 69.934592 16.777322 
L 73.692551 21.234293 
L 77.45051 25.267126 
L 81.208469 28.916185 
L 84.966429 32.217987 
L 88.724388 35.205583 
L 92.482347 37.908872 
L 96.240306 40.354909 
L 99.998265 42.568174 
L 103.756224 44.570818 
L 107.514184 46.382886 
L 111.272143 48.022513 
L 115.030102 49.506108 
L 118.788061 50.848521 
L 122.54602 52.063186 
L 126.30398 53.16226 
L 130.061939 54.156743 
L 133.819898 55.056588 
L 137.577857 55.870803 
L 141.335816 56.607534 
L 145.093776 57.274156 
L 148.851735 57.87734 
L 152.609694 58.423124 
L 156.367653 58.916969 
L 160.125612 59.363819 
L 163.883571 59.768146 
L 167.641531 60.133996 
L 171.39949 60.46503 
L 175.157449 60.764563 
L 178.915408 61.035591 
L 182.673367 61.280827 
L 186.431327 61.502727 
L 190.189286 61.703509 
L 193.947245 61.885185 
L 197.705204 62.049572 
L 201.463163 62.198315 
L 205.221122 62.332903 
L 208.979082 62.454684 
L 212.737041 62.564876 
" style="fill:none;stroke:#008000;stroke-linecap:square;"/>
   </g>
   <g id="patch_12">
    <path d="M 32.355 65.372727 
L 32.355 3.6 
" style="fill:none;stroke:#000000;stroke-linecap:square;stroke-linejoin:miter;stroke-width:0.5;"/>
   </g>
   <g id="patch_13">
    <path d="M 216.495 65.372727 
L 216.495 3.6 
" style="fill:none;stroke:#000000;stroke-linecap:square;stroke-linejoin:miter;stroke-width:0.5;"/>
   </g>
   <g id="patch_14">
    <path d="M 32.355 65.372727 
L 216.495 65.372727 
" style="fill:none;stroke:#000000;stroke-linecap:square;stroke-linejoin:miter;stroke-width:0.5;"/>
   </g>
   <g id="patch_15">
    <path d="M 32.355 3.6 
L 216.495 3.6 
" style="fill:none;stroke:#000000;stroke-linecap:square;stroke-linejoin:miter;stroke-width:0.5;"/>
   </g>
  </g>
 </g>
 <defs>
  <clipPath id="p9bc9f4a9b1">
   <rect height="61.772727" width="184.14" x="32.355" y="3.6"/>
  </clipPath>
  <clipPath id="p9aa76a26ce">
   <rect height="61.772727" width="184.14" x="32.355" y="77.727273"/>
  </clipPath>
 </defs>
</svg>
